{"glyphs":{"0":{"ha":1514,"x_min":75,"x_max":1863,"o":"m 163 -75 l 168 -75 l 185 -106 l 1357 -106 l 1508 1 l 1863 794 l 1844 822 l 1846 828 l 1822 872 l 1824 878 l 1763 985 l 588 985 l 428 875 l 75 82 l 135 -31 l 140 -31 l 163 -75 m 160 -11 l 154 -11 l 100 93 l 443 864 l 589 965 l 1742 965 l 1800 867 l 1797 861 l 1822 818 l 1479 46 l 1335 -56 l 182 -56 l 160 -11 m 1433 93 l 1778 867 l 1732 943 l 579 943 l 465 864 l 122 93 l 165 11 l 1318 11 l 1433 93 m 601 893 l 1731 893 l 1753 856 l 1418 104 l 1315 31 l 185 31 l 163 72 l 496 819 l 601 893 m 839 714 l 629 243 l 638 243 l 654 213 l 1074 213 l 1279 675 l 1263 706 l 1267 714 l 839 714 m 850 694 l 1239 694 l 1046 263 l 657 263 l 850 694 m 1006 335 l 1133 621 l 892 621 l 764 335 l 1006 335 m 919 571 l 1092 571 l 996 354 l 824 354 l 919 571 m 1188 631 l 1157 631 l 1174 599 l 1188 631 m 732 282 l 763 282 l 746 313 l 732 282 z "},"1":{"ha":821,"x_min":186,"x_max":1208,"o":"m 1179 985 l 478 985 l 329 653 l 338 653 l 354 622 l 368 622 l 375 611 l 381 611 l 397 581 l 458 581 l 186 -31 l 194 -31 l 211 -61 l 222 -61 l 231 -75 l 236 -75 l 253 -106 l 768 -106 l 1208 882 l 1192 913 l 1193 918 l 1186 932 l 1192 946 l 1175 976 l 1179 985 m 1169 907 l 740 -56 l 250 -56 l 228 -11 l 214 -11 l 500 631 l 394 631 l 371 672 l 357 672 l 488 965 l 1150 965 l 1144 951 l 1169 907 m 704 11 l 1118 943 l 500 943 l 390 694 l 551 694 l 247 11 l 704 11 m 579 714 l 449 714 l 528 893 l 1076 893 l 693 31 l 306 31 l 592 675 l 575 706 l 579 714 z "},"2":{"ha":1393,"x_min":25,"x_max":1740,"o":"m 706 414 l 1365 414 l 1468 488 l 1631 853 l 1608 893 l 528 893 l 449 714 l 1146 714 l 1142 706 l 1158 675 l 1086 513 l 432 513 l 325 436 l 144 31 l 1265 31 l 1346 213 l 654 213 l 638 243 l 629 243 l 706 414 m 1485 482 l 1488 479 l 1367 394 l 715 394 l 657 263 l 1388 263 l 1276 11 l 86 11 l 294 481 l 410 563 l 1058 563 l 1118 694 l 390 694 l 500 943 l 1611 943 l 1656 864 l 1485 482 m 1621 965 l 488 965 l 357 672 l 365 672 l 369 675 l 397 631 l 1069 631 l 1049 585 l 419 585 l 272 481 l 53 -11 l 67 -11 l 92 -56 l 1313 -56 l 1439 226 l 1414 271 l 1418 282 l 732 282 l 754 331 l 1386 331 l 1529 429 l 1701 817 l 1676 860 l 1678 864 l 1621 965 m 1701 875 l 1700 871 l 1724 825 l 1722 819 l 1740 792 l 1558 385 l 1439 301 l 1447 301 l 1443 293 l 1461 265 l 1456 251 l 1463 238 l 1460 232 l 1478 201 l 1340 -106 l 94 -106 l 78 -75 l 72 -75 l 64 -61 l 50 -61 l 33 -31 l 25 -31 l 258 492 l 396 589 l 381 611 l 378 611 l 369 622 l 354 622 l 338 653 l 329 653 l 478 985 l 1642 985 l 1701 875 z "},"3":{"ha":1399,"x_min":25,"x_max":1742,"o":"m 965 294 l 983 265 l 960 213 l 225 213 l 144 31 l 1193 31 l 1308 114 l 1418 361 l 1350 474 l 1524 600 l 1632 842 l 1606 893 l 528 893 l 449 714 l 1153 714 l 1149 706 l 1165 675 l 1143 625 l 988 513 l 360 513 l 317 414 l 911 414 l 968 299 l 965 294 m 197 263 l 932 263 l 943 288 l 890 394 l 257 394 l 332 563 l 965 563 l 1114 669 l 1125 694 l 390 694 l 500 943 l 1610 943 l 1656 853 l 1539 590 l 1381 474 l 1442 372 l 1322 104 l 1197 11 l 86 11 l 197 263 m 1678 851 l 1679 854 l 1621 965 l 488 965 l 357 672 l 365 672 l 369 675 l 397 631 l 1036 631 l 972 585 l 319 585 l 226 375 l 240 375 l 265 331 l 901 331 l 925 282 l 183 282 l 53 -11 l 67 -11 l 92 -56 l 1215 -56 l 1368 56 l 1486 322 l 1463 367 l 1464 372 l 1428 428 l 1585 542 l 1703 807 l 1678 851 m 1725 814 l 1742 782 l 1614 497 l 1478 397 l 1489 383 l 1486 378 l 1511 333 l 1508 328 l 1525 297 l 1399 11 l 1238 -106 l 94 -106 l 78 -75 l 72 -75 l 64 -61 l 50 -61 l 33 -31 l 25 -31 l 174 301 l 257 301 l 251 311 l 246 311 l 238 325 l 224 325 l 207 356 l 199 356 l 310 604 l 385 604 l 381 611 l 378 611 l 369 622 l 354 622 l 338 653 l 329 653 l 478 985 l 1642 985 l 1703 865 l 1701 863 l 1726 818 l 1725 814 z "},"4":{"ha":1413,"x_min":178,"x_max":1800,"o":"m 751 499 l 743 499 l 918 893 l 528 893 l 296 372 l 1013 372 l 1010 364 l 1026 333 l 892 31 l 1285 31 l 1668 893 l 1275 893 l 1086 468 l 768 468 l 751 499 m 771 518 l 1058 518 l 1247 943 l 1710 943 l 1296 11 l 833 11 l 985 353 l 238 353 l 500 943 l 960 943 l 771 518 m 986 951 l 992 965 l 488 965 l 206 331 l 219 331 l 244 286 l 936 286 l 803 -11 l 815 -11 l 839 -56 l 1332 -56 l 1761 907 l 1736 951 l 1742 965 l 1238 965 l 1049 540 l 847 540 l 1011 907 l 986 951 m 1021 985 l 1017 976 l 1033 946 l 1028 932 l 1035 918 l 1033 913 l 1050 882 l 906 560 l 1038 560 l 1228 985 l 1771 985 l 1767 976 l 1783 946 l 1778 932 l 1785 918 l 1783 913 l 1800 882 l 1360 -106 l 842 -106 l 825 -75 l 819 -75 l 811 -61 l 800 -61 l 783 -31 l 775 -31 l 896 239 l 249 239 l 231 269 l 225 269 l 217 281 l 203 281 l 186 311 l 178 311 l 478 985 l 1021 985 z "},"5":{"ha":1393,"x_min":25,"x_max":1781,"o":"m 839 714 l 1569 714 l 1649 893 l 528 893 l 315 414 l 1013 414 l 1008 406 l 1025 375 l 953 213 l 225 213 l 144 31 l 1194 31 l 1297 104 l 1460 469 l 1438 513 l 788 513 l 771 543 l 763 543 l 839 714 m 850 694 l 790 563 l 1442 563 l 1485 481 l 1313 93 l 1197 11 l 86 11 l 197 263 l 925 263 l 983 394 l 256 394 l 500 943 l 1690 943 l 1581 694 l 850 694 m 1717 951 l 1722 965 l 488 965 l 225 375 l 239 375 l 264 331 l 936 331 l 914 282 l 183 282 l 53 -11 l 67 -11 l 92 -56 l 1214 -56 l 1358 46 l 1529 431 l 1506 476 l 1507 481 l 1451 585 l 867 585 l 888 631 l 1618 631 l 1742 907 l 1717 951 m 236 325 l 222 325 l 206 356 l 197 356 l 478 985 l 1751 985 l 1747 976 l 1764 946 l 1758 932 l 1765 918 l 1764 913 l 1781 882 l 1646 581 l 1483 581 l 1532 492 l 1529 488 l 1554 442 l 1551 436 l 1568 406 l 1388 1 l 1236 -106 l 94 -106 l 78 -75 l 72 -75 l 64 -61 l 50 -61 l 33 -31 l 25 -31 l 174 301 l 256 301 l 250 311 l 244 311 l 236 325 z "},"6":{"ha":1514,"x_min":75,"x_max":1901,"o":"m 1063 350 l 1032 282 l 732 282 l 763 350 l 1063 350 m 657 263 l 1046 263 l 1114 414 l 725 414 l 657 263 m 1138 425 l 1154 394 l 1074 213 l 654 213 l 638 243 l 629 243 l 714 433 l 1142 433 l 1138 425 m 839 714 l 1690 714 l 1769 893 l 601 893 l 496 819 l 163 72 l 185 31 l 1313 31 l 1418 103 l 1590 490 l 1568 532 l 797 532 l 779 563 l 771 563 l 839 714 m 850 694 l 800 582 l 1571 582 l 1615 501 l 1432 92 l 1315 11 l 165 11 l 122 93 l 465 864 l 579 943 l 1811 943 l 1701 694 l 850 694 m 182 -56 l 1332 -56 l 1478 44 l 1660 451 l 1635 496 l 1638 501 l 1581 604 l 876 604 l 888 631 l 1739 631 l 1863 907 l 1838 951 l 1843 965 l 589 965 l 443 864 l 100 93 l 154 -11 l 160 -11 l 182 -56 m 140 -31 l 135 -31 l 75 82 l 428 875 l 588 985 l 1872 985 l 1868 976 l 1885 946 l 1879 932 l 1886 918 l 1885 913 l 1901 882 l 1767 581 l 1624 581 l 1661 513 l 1660 507 l 1683 463 l 1681 457 l 1699 426 l 1508 0 l 1354 -106 l 185 -106 l 168 -75 l 163 -75 l 140 -31 z "},"7":{"ha":1393,"x_min":139,"x_max":1781,"o":"m 439 436 l 258 31 l 651 31 l 822 414 l 1365 414 l 1468 488 l 1649 893 l 528 893 l 449 714 l 1146 714 l 1142 706 l 1158 675 l 1086 513 l 546 513 l 439 436 m 1485 482 l 1488 479 l 1367 394 l 832 394 l 663 11 l 200 11 l 408 481 l 524 563 l 1058 563 l 1118 694 l 390 694 l 500 943 l 1690 943 l 1485 482 m 1717 951 l 1722 965 l 488 965 l 357 672 l 365 672 l 369 675 l 397 631 l 1069 631 l 1049 585 l 533 585 l 386 481 l 167 -11 l 181 -11 l 206 -56 l 699 -56 l 871 331 l 1386 331 l 1529 429 l 1742 907 l 1717 951 m 1751 985 l 1747 976 l 1764 946 l 1758 932 l 1765 918 l 1764 913 l 1781 882 l 1558 385 l 1408 281 l 899 281 l 726 -106 l 208 -106 l 192 -75 l 186 -75 l 178 -61 l 164 -61 l 147 -31 l 139 -31 l 372 492 l 497 581 l 400 581 l 381 611 l 378 611 l 369 622 l 354 622 l 338 653 l 329 653 l 478 985 l 1751 985 z "},"8":{"ha":1513,"x_min":79,"x_max":1856,"o":"m 881 631 l 1150 631 l 1086 585 l 903 585 l 881 631 m 1036 282 l 769 282 l 838 331 l 1015 331 l 1036 282 m 1228 669 l 1239 694 l 849 694 l 838 669 l 892 563 l 1079 563 l 1228 669 m 667 288 l 656 263 l 1046 263 l 1057 288 l 1004 394 l 817 394 l 667 288 m 878 543 l 872 543 l 813 658 l 838 714 l 1267 714 l 1263 706 l 1279 675 l 1257 625 l 1101 513 l 894 513 l 878 543 m 636 243 l 628 243 l 653 299 l 815 414 l 1025 414 l 1082 299 l 1079 294 l 1097 265 l 1074 213 l 653 213 l 636 243 m 424 472 l 440 439 l 276 328 l 167 81 l 190 31 l 1307 31 l 1422 114 l 1532 361 l 1464 474 l 1638 600 l 1746 842 l 1719 893 l 608 893 l 492 811 l 383 567 l 426 474 l 424 472 m 126 104 l 246 372 l 396 474 l 343 590 l 460 853 l 586 943 l 1724 943 l 1769 853 l 1653 590 l 1494 474 l 1556 372 l 1436 104 l 1311 11 l 171 11 l 126 104 m 1792 851 l 1793 854 l 1735 965 l 594 965 l 439 854 l 321 589 l 375 472 l 224 372 l 104 103 l 158 -11 l 164 -11 l 186 -56 l 1329 -56 l 1482 56 l 1600 322 l 1576 367 l 1578 372 l 1542 428 l 1699 542 l 1817 807 l 1792 851 m 1839 814 l 1856 782 l 1728 497 l 1592 397 l 1603 383 l 1600 378 l 1625 333 l 1622 328 l 1639 297 l 1513 11 l 1351 -106 l 189 -106 l 172 -75 l 167 -75 l 144 -31 l 139 -31 l 79 92 l 210 383 l 346 474 l 296 578 l 424 865 l 593 985 l 1756 985 l 1817 865 l 1815 863 l 1840 818 l 1839 814 z "},"9":{"ha":1514,"x_min":25,"x_max":1861,"o":"m 1188 631 l 1157 563 l 857 563 l 888 631 l 1188 631 m 781 540 l 1169 540 l 1239 694 l 850 694 l 781 540 m 839 714 l 1267 714 l 1263 706 l 1279 675 l 1197 490 l 778 490 l 761 521 l 753 521 l 839 714 m 225 213 l 144 31 l 1315 31 l 1418 104 l 1751 853 l 1729 893 l 604 893 l 496 821 l 324 435 l 347 394 l 1124 394 l 1121 386 l 1138 356 l 1074 213 l 225 213 m 197 263 l 1046 263 l 1096 375 l 328 375 l 282 453 l 465 865 l 582 943 l 1732 943 l 1776 864 l 1433 93 l 1318 11 l 86 11 l 197 263 m 1742 965 l 592 965 l 443 865 l 260 453 l 318 353 l 324 353 l 346 308 l 1044 308 l 1032 282 l 183 282 l 53 -11 l 67 -11 l 92 -56 l 1335 -56 l 1479 46 l 1822 817 l 1797 860 l 1799 864 l 1742 965 m 1763 985 l 1822 875 l 1821 871 l 1844 825 l 1843 819 l 1861 792 l 1508 1 l 1357 -106 l 94 -106 l 78 -75 l 72 -75 l 64 -61 l 50 -61 l 33 -31 l 25 -31 l 174 301 l 319 301 l 308 326 l 303 333 l 299 333 l 236 442 l 429 876 l 590 985 l 1763 985 z "}," ":{"ha":618,"x_min":0,"x_max":0,"o":""}," ":{"ha":618,"x_min":0,"x_max":0,"o":""},"!":{"ha":654,"x_min":25,"x_max":1042,"o":"m 1013 985 l 478 985 l 25 -31 l 33 -31 l 50 -61 l 61 -61 l 69 -75 l 75 -75 l 92 -106 l 601 -106 l 739 201 l 726 224 l 749 224 l 1042 882 l 1025 913 l 1026 918 l 1019 932 l 1025 946 l 1008 976 l 1013 985 m 1003 907 l 719 272 l 672 272 l 700 226 l 574 -56 l 89 -56 l 67 -11 l 53 -11 l 183 282 l 228 282 l 213 315 l 199 315 l 488 965 l 983 965 l 978 951 l 1003 907 m 682 338 l 951 943 l 497 943 l 228 338 l 682 338 m 525 893 l 910 893 l 671 357 l 286 357 l 525 893 m 538 11 l 649 263 l 194 263 l 83 11 l 538 11 m 222 213 l 607 213 l 526 31 l 142 31 l 222 213 z "},"\"":{"ha":926,"x_min":239,"x_max":1308,"o":"m 524 882 l 357 510 l 429 510 l 675 649 l 779 882 l 524 882 m 1074 649 l 1178 882 l 922 882 l 756 510 l 828 510 l 1074 649 m 697 490 l 894 932 l 1219 932 l 1088 636 l 829 490 l 697 490 m 299 490 l 496 932 l 821 932 l 689 636 l 431 490 l 299 490 m 711 571 l 665 469 l 679 469 l 707 429 l 853 429 l 1131 585 l 1269 896 l 1244 940 l 1251 954 l 882 954 l 863 911 l 846 940 l 853 954 l 483 954 l 267 469 l 281 469 l 306 429 l 453 429 l 711 571 m 1286 921 l 1294 907 l 1292 901 l 1308 871 l 1161 539 l 874 379 l 710 379 l 690 410 l 686 410 l 678 422 l 664 422 l 646 450 l 638 450 l 649 474 l 475 379 l 308 379 l 290 410 l 285 410 l 278 422 l 265 422 l 247 450 l 239 450 l 472 974 l 1279 974 l 1275 965 l 1293 935 l 1286 921 z "},"#":{"ha":1500,"x_min":146,"x_max":1793,"o":"m 992 501 l 976 467 l 943 467 l 958 501 l 992 501 m 865 444 l 988 444 l 1043 568 l 921 568 l 865 444 m 846 425 l 838 425 l 910 588 l 1071 588 l 1068 579 l 1085 549 l 1015 394 l 863 394 l 846 425 m 1428 425 l 1419 425 l 1492 588 l 1619 588 l 1663 683 l 1574 683 l 1557 714 l 1549 714 l 1628 893 l 1238 893 l 1144 683 l 992 683 l 975 714 l 967 714 l 1046 893 l 653 893 l 560 683 l 435 683 l 392 588 l 486 588 l 483 579 l 500 549 l 431 394 l 306 394 l 264 299 l 358 299 l 354 290 l 372 263 l 269 31 l 663 31 l 782 299 l 943 299 l 939 290 l 957 263 l 854 31 l 1244 31 l 1364 299 l 1492 299 l 1533 394 l 1444 394 l 1428 425 m 407 733 l 532 733 l 625 943 l 1088 943 l 994 733 l 1117 733 l 1210 943 l 1669 943 l 1576 733 l 1704 733 l 1631 568 l 1503 568 l 1447 444 l 1575 444 l 1501 279 l 1374 279 l 1256 11 l 796 11 l 914 279 l 792 279 l 674 11 l 211 11 l 329 279 l 204 279 l 278 444 l 403 444 l 458 568 l 333 568 l 407 733 m 394 756 l 301 546 l 315 546 l 340 501 l 407 501 l 392 467 l 267 467 l 174 260 l 188 260 l 213 215 l 279 215 l 178 -11 l 192 -11 l 217 -56 l 710 -56 l 831 215 l 864 215 l 763 -11 l 776 -11 l 801 -56 l 1292 -56 l 1413 215 l 1540 215 l 1626 408 l 1601 453 l 1608 467 l 1525 467 l 1540 501 l 1668 501 l 1756 697 l 1731 742 l 1736 756 l 1653 756 l 1721 907 l 1696 951 l 1701 965 l 1197 965 l 1104 756 l 1071 756 l 1139 907 l 1114 951 l 1119 965 l 613 965 l 519 756 l 394 756 m 383 775 l 508 775 l 603 985 l 1149 985 l 1144 976 l 1161 946 l 1156 932 l 1160 924 l 1188 985 l 1731 985 l 1726 976 l 1743 946 l 1738 932 l 1744 918 l 1743 913 l 1760 882 l 1711 775 l 1764 775 l 1761 767 l 1778 736 l 1772 722 l 1779 708 l 1776 703 l 1793 672 l 1696 451 l 1647 451 l 1649 447 l 1643 433 l 1650 419 l 1649 414 l 1665 383 l 1568 165 l 1440 165 l 1319 -106 l 804 -106 l 788 -75 l 782 -75 l 774 -61 l 760 -61 l 758 -58 l 738 -106 l 219 -106 l 203 -75 l 197 -75 l 189 -61 l 175 -61 l 158 -31 l 150 -31 l 238 165 l 215 165 l 199 196 l 193 196 l 185 210 l 171 210 l 154 240 l 146 240 l 256 486 l 318 486 l 313 496 l 299 496 l 282 526 l 274 526 l 383 775 z "},"$":{"ha":1393,"x_min":38,"x_max":1771,"o":"m 828 689 l 1558 689 l 1639 871 l 1279 871 l 1263 901 l 1254 901 l 1293 989 l 969 989 l 917 871 l 592 871 l 485 794 l 333 457 l 357 417 l 1014 417 l 1010 408 l 1026 378 l 965 240 l 238 240 l 157 58 l 525 58 l 521 50 l 538 19 l 503 -60 l 826 -60 l 879 58 l 1207 58 l 1310 132 l 1460 469 l 1438 513 l 788 513 l 771 543 l 763 543 l 828 689 m 569 921 l 889 921 l 942 1039 l 1335 1039 l 1282 921 l 1681 921 l 1569 669 l 839 669 l 790 563 l 1442 563 l 1485 481 l 1325 121 l 1208 39 l 889 39 l 838 -79 l 444 -79 l 496 39 l 97 39 l 210 290 l 938 290 l 985 397 l 336 397 l 293 476 l 454 839 l 569 921 m 432 839 l 271 476 l 326 375 l 332 375 l 354 331 l 936 331 l 928 313 l 197 313 l 65 17 l 79 17 l 104 -28 l 444 -28 l 411 -101 l 425 -101 l 447 -146 l 874 -146 l 926 -28 l 1226 -28 l 1371 74 l 1531 433 l 1506 476 l 1507 481 l 1451 585 l 867 585 l 875 603 l 1606 603 l 1732 885 l 1707 929 l 1713 943 l 1358 943 l 1385 1003 l 1361 1047 l 1365 1058 l 928 1058 l 876 943 l 579 943 l 432 839 m 417 850 l 576 960 l 865 960 l 917 1078 l 1393 1078 l 1390 1069 l 1407 1039 l 1401 1028 l 1410 1014 l 1407 1008 l 1424 978 l 1417 960 l 1740 960 l 1738 954 l 1754 924 l 1749 910 l 1756 896 l 1753 890 l 1771 860 l 1633 553 l 1497 553 l 1532 492 l 1529 488 l 1554 444 l 1553 439 l 1569 408 l 1400 29 l 1249 -78 l 954 -78 l 901 -196 l 450 -196 l 433 -165 l 428 -165 l 419 -151 l 408 -151 l 392 -121 l 383 -121 l 403 -78 l 107 -78 l 90 -47 l 85 -47 l 76 -33 l 63 -33 l 46 -3 l 38 -3 l 186 329 l 325 329 l 313 356 l 307 356 l 246 465 l 417 850 z "},"%":{"ha":1931,"x_min":283,"x_max":2068,"o":"m 510 -75 l 515 -75 l 532 -106 l 976 -106 l 1151 83 l 1111 -6 l 1144 -74 l 1150 -74 l 1175 -118 l 1181 -118 l 1197 -149 l 1796 -149 l 1886 -86 l 2068 322 l 2051 353 l 2054 358 l 2029 403 l 2032 408 l 1992 472 l 1506 472 l 1888 883 l 1871 911 l 1875 915 l 1864 928 l 1882 949 l 1863 976 l 1872 988 l 1394 988 l 1193 771 l 1242 879 l 1224 907 l 1226 913 l 1201 957 l 1204 963 l 1164 1026 l 563 1026 l 467 961 l 283 549 l 319 481 l 325 481 l 350 436 l 356 436 l 372 406 l 849 406 l 451 -31 l 460 -31 l 476 -61 l 501 -61 l 510 -75 m 917 456 l 369 456 l 344 500 l 339 500 l 307 560 l 482 950 l 565 1007 l 1144 1007 l 1179 951 l 1176 946 l 1201 901 l 1082 635 l 1088 635 l 1396 968 l 1835 968 l 1824 953 l 1846 910 l 1424 453 l 1972 453 l 2007 397 l 2006 392 l 2029 347 l 1857 -42 l 1774 -99 l 1194 -99 l 1171 -54 l 1165 -54 l 1136 6 l 1246 253 l 1240 253 l 953 -56 l 529 -56 l 504 -11 l 485 -11 l 917 456 m 1788 946 l 1403 946 l 533 11 l 921 11 l 1788 946 m 1811 6 l 1985 397 l 1961 433 l 1957 431 l 1381 431 l 1329 396 l 1156 6 l 1175 -32 l 1757 -32 l 1811 6 m 982 560 l 1157 951 l 1135 985 l 556 985 l 504 950 l 329 560 l 349 522 l 928 522 l 982 560 m 615 31 l 1424 896 l 1719 896 l 914 31 l 615 31 m 1403 381 l 1958 381 l 1796 17 l 1754 -12 l 1197 -12 l 1360 351 l 1403 381 m 578 935 l 1131 935 l 968 571 l 926 542 l 372 542 l 533 906 l 578 935 m 699 857 l 610 658 l 618 658 l 635 628 l 807 628 l 892 818 l 875 849 l 879 857 l 699 857 m 1525 300 l 1438 104 l 1446 104 l 1461 74 l 1636 74 l 1721 264 l 1703 293 l 1706 300 l 1525 300 m 708 838 l 850 838 l 779 678 l 638 678 l 708 838 m 1538 283 l 1679 283 l 1608 124 l 1467 124 l 1538 283 m 769 697 l 801 771 l 746 771 l 714 697 l 769 697 m 1594 143 l 1626 217 l 1571 217 l 1539 143 l 1594 143 z "},"&":{"ha":1569,"x_min":79,"x_max":1788,"o":"m 965 282 l 769 282 l 838 331 l 942 331 l 965 282 m 669 288 l 658 263 l 975 263 l 986 288 l 931 394 l 817 394 l 669 288 m 639 243 l 631 243 l 656 299 l 815 414 l 951 414 l 1011 299 l 1008 294 l 1026 265 l 1003 213 l 656 213 l 639 243 m 1349 114 l 1482 414 l 1613 414 l 1656 513 l 894 513 l 878 543 l 872 543 l 815 658 l 840 714 l 1526 714 l 1606 893 l 608 893 l 492 811 l 383 567 l 426 474 l 424 472 l 440 439 l 276 328 l 167 81 l 190 31 l 1236 31 l 1349 114 m 892 563 l 1697 563 l 1622 394 l 1492 394 l 1365 110 l 1367 107 l 1240 11 l 171 11 l 126 104 l 246 372 l 396 474 l 343 590 l 460 853 l 586 943 l 1647 943 l 1538 694 l 851 694 l 840 669 l 892 563 m 1408 56 l 1531 331 l 1661 331 l 1749 526 l 1724 571 l 1729 585 l 903 585 l 881 631 l 1572 631 l 1696 907 l 1674 951 l 1679 965 l 594 965 l 439 854 l 321 589 l 375 472 l 224 372 l 104 103 l 158 -11 l 164 -11 l 186 -56 l 1256 -56 l 1408 56 m 1765 551 l 1772 538 l 1771 532 l 1788 501 l 1689 281 l 1558 281 l 1439 11 l 1278 -106 l 189 -106 l 172 -75 l 167 -75 l 144 -31 l 139 -31 l 79 92 l 210 383 l 346 474 l 296 578 l 424 865 l 593 985 l 1708 985 l 1704 976 l 1721 946 l 1714 929 l 1719 918 l 1718 914 l 1735 882 l 1611 604 l 1758 604 l 1754 596 l 1771 565 l 1765 551 z "},"'":{"ha":585,"x_min":238,"x_max":967,"o":"m 732 649 l 836 882 l 521 882 l 354 510 l 489 510 l 732 649 m 296 490 l 493 932 l 878 932 l 746 636 l 490 490 l 296 490 m 306 429 l 513 429 l 789 585 l 928 896 l 903 940 l 910 954 l 483 954 l 267 469 l 276 469 l 306 429 m 944 921 l 953 907 l 950 901 l 967 871 l 819 539 l 535 379 l 307 379 l 288 410 l 285 410 l 276 422 l 265 422 l 247 450 l 239 450 l 247 467 l 238 483 l 254 483 l 472 974 l 938 974 l 933 965 l 951 935 l 944 921 z "},"(":{"ha":896,"x_min":38,"x_max":1321,"o":"m 874 797 l 1110 797 l 1190 979 l 638 979 l 533 906 l 124 -15 l 143 -56 l 729 -56 l 811 126 l 614 126 l 596 157 l 588 157 l 874 797 m 83 7 l 503 947 l 615 1029 l 1232 1029 l 1119 778 l 883 778 l 617 176 l 853 176 l 740 -75 l 124 -75 l 83 7 m 922 714 l 1158 714 l 1282 993 l 1258 1038 l 1263 1049 l 624 1049 l 481 947 l 61 7 l 114 -97 l 119 -97 l 144 -142 l 778 -142 l 904 143 l 878 185 l 885 199 l 693 199 l 922 714 m 1304 999 l 1321 968 l 1186 664 l 947 664 l 749 218 l 913 218 l 908 210 l 925 179 l 919 167 l 928 154 l 926 149 l 943 118 l 806 -192 l 144 -192 l 129 -161 l 124 -161 l 100 -117 l 94 -117 l 38 -4 l 465 958 l 621 1068 l 1290 1068 l 1288 1060 l 1304 1029 l 1299 1018 l 1307 1004 l 1304 999 z "},")":{"ha":896,"x_min":-12,"x_max":1279,"o":"m 413 694 l 418 694 l 435 664 l 571 664 l 372 218 l 136 218 l -12 -117 l -4 -117 l 13 -147 l 24 -147 l 31 -161 l 36 -161 l 54 -192 l 701 -192 l 853 -85 l 1279 875 l 1263 906 l 1265 911 l 1240 954 l 1242 958 l 1181 1068 l 514 1068 l 367 736 l 375 736 l 392 706 l 406 706 l 413 694 m 1218 947 l 1217 944 l 1242 900 l 822 -40 l 679 -142 l 51 -142 l 29 -97 l 15 -97 l 147 199 l 383 199 l 613 714 l 432 714 l 408 756 l 394 756 l 525 1049 l 1161 1049 l 1218 947 m 47 -75 l 661 -75 l 776 7 l 1196 947 l 1153 1029 l 539 1029 l 426 778 l 660 778 l 393 176 l 160 176 l 47 -75 m 1172 939 l 763 18 l 658 -56 l 106 -56 l 188 126 l 421 126 l 701 758 l 685 789 l 689 797 l 486 797 l 567 979 l 1149 979 l 1172 939 z "},"*":{"ha":635,"x_min":360,"x_max":975,"o":"m 575 825 l 593 793 l 497 740 l 543 704 l 638 789 l 646 761 l 656 743 l 665 704 l 782 761 l 758 792 l 749 806 l 726 835 l 869 851 l 872 903 l 776 875 l 757 903 l 749 900 l 782 960 l 676 960 l 647 872 l 567 913 l 515 846 l 589 833 l 575 825 m 621 749 l 535 672 l 435 765 l 532 819 l 447 838 l 550 967 l 619 926 l 647 1010 l 829 1010 l 782 928 l 899 964 l 890 835 l 774 819 l 824 763 l 644 672 l 621 749 m 629 642 l 635 643 l 658 606 l 878 710 l 853 754 l 863 760 l 857 767 l 939 776 l 939 928 l 918 968 l 919 996 l 875 979 l 856 1018 l 863 1031 l 632 1031 l 608 963 l 551 997 l 410 822 l 428 819 l 442 789 l 394 763 l 414 743 l 417 747 l 439 708 l 561 604 l 622 658 l 629 642 m 635 593 l 633 593 l 629 597 l 575 544 l 440 660 l 428 679 l 419 688 l 414 697 l 388 725 l 379 742 l 360 763 l 401 785 l 389 807 l 381 810 l 551 1024 l 599 993 l 624 1050 l 893 1050 l 888 1042 l 906 1011 l 899 1001 l 946 1019 l 942 1007 l 960 979 l 954 956 l 961 947 l 960 936 l 975 911 l 974 728 l 901 718 l 910 707 l 904 704 l 922 674 l 667 549 l 647 582 l 643 581 l 635 593 z "},"+":{"ha":949,"x_min":208,"x_max":1178,"o":"m 497 175 l 593 175 l 713 442 l 1004 442 l 1046 538 l 793 538 l 776 568 l 768 568 l 872 801 l 776 801 l 658 538 l 369 538 l 328 442 l 586 442 l 582 433 l 599 403 l 497 175 m 439 156 l 557 422 l 268 422 l 342 588 l 631 588 l 749 851 l 914 851 l 796 588 l 1088 588 l 1014 422 l 722 422 l 604 156 l 439 156 m 940 860 l 946 874 l 736 874 l 618 610 l 329 610 l 236 400 l 250 400 l 272 356 l 506 356 l 407 133 l 421 133 l 446 92 l 642 92 l 760 356 l 1051 356 l 1139 551 l 1114 596 l 1119 610 l 872 610 l 964 815 l 940 860 m 319 629 l 608 629 l 725 893 l 974 893 l 971 885 l 988 854 l 981 840 l 989 826 l 986 821 l 1003 790 l 932 629 l 1149 629 l 1144 621 l 1161 590 l 1156 576 l 1163 563 l 1161 557 l 1178 526 l 1079 306 l 788 306 l 669 42 l 449 42 l 429 72 l 426 72 l 419 83 l 404 83 l 388 114 l 379 114 l 464 306 l 275 306 l 258 336 l 253 336 l 244 350 l 233 350 l 217 381 l 208 381 l 319 629 z "},",":{"ha":585,"x_min":-29,"x_max":697,"o":"m 463 44 l 567 278 l 251 278 l 86 -94 l 221 -94 l 463 44 m 26 -114 l 224 328 l 608 328 l 476 32 l 221 -114 l 26 -114 m 519 -22 l 658 292 l 633 333 l 639 347 l 213 347 l -3 -136 l 8 -136 l 35 -178 l 242 -178 l 519 -22 m 21 -197 l 15 -197 l 7 -183 l -4 -183 l -21 -153 l -29 -153 l 203 367 l 668 367 l 664 358 l 681 328 l 675 315 l 683 303 l 681 297 l 697 267 l 549 -68 l 264 -228 l 35 -228 l 21 -197 z "},"-":{"ha":800,"x_min":203,"x_max":1019,"o":"m 318 422 l 846 422 l 888 515 l 360 515 l 318 422 m 928 563 l 857 403 l 260 403 l 331 563 l 928 563 m 954 571 l 960 583 l 318 583 l 231 386 l 244 386 l 267 343 l 897 343 l 981 529 l 954 571 m 240 336 l 228 336 l 211 367 l 203 367 l 307 603 l 988 603 l 985 594 l 1001 564 l 996 551 l 1004 540 l 1001 535 l 1019 504 l 925 293 l 269 293 l 253 324 l 247 324 l 240 336 z "},".":{"ha":585,"x_min":25,"x_max":697,"o":"m 142 31 l 457 31 l 565 275 l 250 275 l 142 31 m 607 325 l 468 11 l 83 11 l 222 325 l 607 325 m 633 333 l 639 347 l 213 347 l 53 -11 l 58 -11 l 63 -8 l 90 -53 l 506 -53 l 658 289 l 633 333 m 667 364 l 663 356 l 681 328 l 675 314 l 682 300 l 679 294 l 697 264 l 533 -103 l 90 -103 l 74 -72 l 71 -72 l 63 -61 l 50 -61 l 33 -31 l 25 -31 l 201 364 l 667 364 z "},"/":{"ha":1133,"x_min":4,"x_max":1528,"o":"m 551 31 l 1357 893 l 979 893 l 171 31 l 551 31 m 1425 943 l 558 11 l 89 11 l 958 943 l 1425 943 m 85 -56 l 590 -56 l 1486 907 l 1463 950 l 1472 965 l 951 965 l 40 -11 l 60 -11 l 85 -56 m 57 -61 l 32 -61 l 15 -31 l 4 -31 l 950 985 l 1513 985 l 1503 974 l 1522 946 l 1506 925 l 1517 913 l 1511 908 l 1528 881 l 614 -106 l 88 -106 l 71 -75 l 65 -75 l 57 -61 z "},":":{"ha":585,"x_min":25,"x_max":907,"o":"m 876 838 l 411 838 l 233 438 l 242 438 l 258 407 l 269 407 l 278 393 l 283 393 l 296 369 l 203 369 l 25 -31 l 33 -31 l 50 -61 l 61 -61 l 69 -75 l 75 -75 l 89 -106 l 532 -106 l 699 269 l 682 300 l 685 306 l 676 318 l 682 331 l 665 361 l 665 363 l 740 363 l 907 738 l 890 768 l 893 774 l 885 786 l 890 799 l 874 829 l 876 838 m 868 763 l 713 413 l 297 413 l 272 457 l 261 457 l 422 818 l 849 818 l 843 804 l 868 763 m 660 294 l 504 -56 l 89 -56 l 64 -11 l 53 -11 l 214 350 l 640 350 l 635 336 l 660 294 m 468 11 l 610 331 l 225 331 l 83 11 l 468 11 m 676 479 l 817 796 l 432 796 l 292 479 l 676 479 m 253 281 l 568 281 l 457 31 l 142 31 l 253 281 m 460 746 l 775 746 l 665 499 l 350 499 l 460 746 z "},";":{"ha":585,"x_min":-31,"x_max":908,"o":"m 350 499 l 665 499 l 778 751 l 463 751 l 350 499 m 253 281 l 85 -97 l 219 -97 l 463 44 l 568 281 l 253 281 m 819 801 l 676 479 l 292 479 l 435 801 l 819 801 m 26 -117 l 225 331 l 610 331 l 476 32 l 221 -117 l 26 -117 m 844 807 l 850 821 l 424 821 l 261 457 l 272 457 l 297 413 l 713 413 l 869 765 l 844 807 m 33 -181 l 240 -181 l 519 -22 l 660 294 l 636 339 l 642 353 l 215 353 l -3 -136 l 8 -136 l 33 -181 m 878 840 l 875 832 l 892 803 l 886 790 l 894 776 l 892 771 l 908 740 l 740 363 l 667 363 l 683 333 l 676 319 l 685 306 l 682 300 l 699 269 l 549 -68 l 263 -231 l 33 -231 l 19 -200 l 14 -200 l 6 -186 l -6 -186 l -22 -156 l -31 -156 l 204 372 l 294 372 l 283 393 l 278 393 l 269 407 l 258 407 l 242 438 l 233 438 l 413 840 l 878 840 z "},"<":{"ha":997,"x_min":242,"x_max":1399,"o":"m 331 443 l 432 31 l 844 31 l 739 478 l 1207 893 l 842 893 l 331 443 m 1292 943 l 764 478 l 878 11 l 406 11 l 290 478 l 818 943 l 1292 943 m 267 478 l 388 -11 l 396 -11 l 421 -56 l 928 -56 l 808 429 l 1356 910 l 1326 953 l 1340 965 l 821 965 l 267 478 m 393 -61 l 389 -61 l 372 -31 l 367 -31 l 242 478 l 818 985 l 1394 985 l 1382 975 l 1399 943 l 1376 924 l 1385 911 l 1381 907 l 1399 876 l 847 394 l 974 -106 l 424 -106 l 407 -75 l 401 -75 l 393 -61 z "},"=":{"ha":915,"x_min":143,"x_max":1206,"o":"m 389 579 l 1032 579 l 1074 675 l 431 675 l 389 579 m 263 296 l 906 296 l 949 392 l 306 392 l 263 296 m 1115 725 l 1042 560 l 329 560 l 403 725 l 1115 725 m 990 442 l 917 276 l 204 276 l 278 442 l 990 442 m 1142 733 l 1147 744 l 390 744 l 297 538 l 311 538 l 333 493 l 1079 493 l 1167 689 l 1142 733 m 1015 450 l 1021 461 l 264 461 l 171 254 l 185 254 l 207 210 l 953 210 l 1040 406 l 1015 450 m 378 761 l 1174 761 l 1169 753 l 1188 725 l 1183 714 l 1190 700 l 1189 694 l 1206 664 l 1108 446 l 1063 446 l 1063 444 l 1057 431 l 1065 417 l 1063 411 l 1079 381 l 981 160 l 210 160 l 193 190 l 188 190 l 179 204 l 168 204 l 151 235 l 143 235 l 253 481 l 310 481 l 306 488 l 294 488 l 278 518 l 269 518 l 378 761 z "},">":{"ha":996,"x_min":-8,"x_max":1175,"o":"m 188 31 l 553 31 l 1058 478 l 958 893 l 544 893 l 656 443 l 188 31 m 89 11 l 613 478 l 503 943 l 974 943 l 1086 478 l 558 11 l 89 11 m 36 -11 l 56 -11 l 81 -56 l 582 -56 l 1133 429 l 1018 901 l 993 946 l 996 946 l 993 965 l 471 965 l 588 478 l 36 -11 m 53 -61 l 22 -61 l 6 -31 l -8 -31 l 560 478 l 444 985 l 1015 985 l 1017 967 l 1029 949 l 1031 928 l 1032 929 l 1040 915 l 1046 897 l 1056 878 l 1175 394 l 606 -106 l 83 -106 l 67 -75 l 61 -75 l 53 -61 z "},"?":{"ha":1393,"x_min":140,"x_max":1740,"o":"m 1701 875 l 1642 985 l 478 985 l 329 653 l 338 653 l 354 622 l 369 622 l 378 611 l 381 611 l 400 581 l 499 581 l 374 492 l 140 -31 l 149 -31 l 165 -61 l 179 -61 l 188 -75 l 193 -75 l 210 -106 l 728 -106 l 865 201 l 853 224 l 875 224 l 900 281 l 1408 281 l 1558 385 l 1740 792 l 1722 819 l 1724 825 l 1700 871 l 1701 875 m 1701 817 l 1529 429 l 1386 331 l 872 331 l 846 272 l 799 272 l 826 226 l 700 -56 l 207 -56 l 182 -11 l 168 -11 l 299 282 l 346 282 l 328 315 l 314 315 l 388 481 l 535 585 l 1049 585 l 1069 631 l 397 631 l 369 675 l 365 672 l 357 672 l 488 965 l 1621 965 l 1678 864 l 1676 860 l 1701 817 m 1656 864 l 1611 943 l 500 943 l 390 694 l 1118 694 l 1058 563 l 525 563 l 410 481 l 346 338 l 808 338 l 833 394 l 1367 394 l 1483 476 l 1656 864 m 547 513 l 1086 513 l 1158 675 l 1142 706 l 1146 714 l 449 714 l 528 893 l 1608 893 l 1631 853 l 1468 488 l 1365 414 l 824 414 l 797 357 l 404 357 l 440 436 l 547 513 m 664 11 l 775 263 l 313 263 l 201 11 l 664 11 m 340 213 l 733 213 l 653 31 l 260 31 l 340 213 z "},"@":{"ha":1932,"x_min":38,"x_max":2315,"o":"m 915 688 l 928 714 l 953 714 l 915 688 m 774 199 l 699 199 l 729 269 l 753 225 l 758 225 l 774 199 m 1571 714 l 1643 714 l 1608 638 l 1592 668 l 1594 674 l 1571 714 m 1210 485 l 1182 422 l 1126 422 l 1154 485 l 1210 485 m 1050 400 l 1194 400 l 1263 551 l 1118 551 l 1050 400 m 1286 563 l 1304 532 l 1222 350 l 1047 350 l 1031 381 l 1022 381 l 1107 571 l 1290 571 l 1286 563 m 601 157 l 593 157 l 879 797 l 1722 797 l 1718 789 l 1735 758 l 1553 350 l 1447 350 l 1431 381 l 1422 381 l 1546 660 l 990 660 l 946 628 l 785 267 l 1838 267 l 1942 339 l 2208 939 l 2185 979 l 640 979 l 533 906 l 125 -14 l 146 -56 l 1681 -56 l 1763 126 l 619 126 l 601 157 m 743 285 l 915 672 l 969 710 l 1551 710 l 1572 674 l 1450 400 l 1525 400 l 1693 778 l 889 778 l 622 176 l 1804 176 l 1692 -75 l 126 -75 l 83 7 l 503 947 l 618 1029 l 2189 1029 l 2232 947 l 1956 328 l 1840 247 l 763 247 l 743 285 m 147 -142 l 1729 -142 l 1856 143 l 1832 181 l 1860 181 l 2001 282 l 2278 900 l 2253 944 l 2254 947 l 2197 1049 l 626 1049 l 481 947 l 61 7 l 117 -97 l 122 -97 l 147 -142 m 103 -117 l 97 -117 l 38 -4 l 465 958 l 624 1068 l 2217 1068 l 2278 958 l 2276 954 l 2301 911 l 2299 906 l 2315 875 l 2032 238 l 1886 133 l 1894 118 l 1757 -192 l 150 -192 l 132 -161 l 126 -161 l 103 -117 z "},"A":{"ha":1514,"x_min":25,"x_max":1863,"o":"m 906 558 l 1136 558 l 1146 581 l 915 581 l 906 558 m 1188 631 l 1147 539 l 847 539 l 888 631 l 1188 631 m 771 517 l 1160 517 l 1239 694 l 850 694 l 771 517 m 1263 706 l 1279 675 l 1188 467 l 768 467 l 750 497 l 742 497 l 839 714 l 1267 714 l 1263 706 m 1114 371 l 1110 363 l 1126 332 l 993 31 l 1386 31 l 1753 856 l 1731 893 l 601 893 l 496 821 l 144 31 l 535 31 l 686 371 l 1114 371 m 935 11 l 1086 351 l 697 351 l 546 11 l 86 11 l 465 865 l 579 943 l 1726 943 l 1731 946 l 1778 867 l 1397 11 l 935 11 m 901 -11 l 915 -11 l 940 -56 l 1433 -56 l 1822 818 l 1797 861 l 1800 867 l 1742 965 l 589 965 l 443 865 l 53 -11 l 67 -11 l 92 -56 l 582 -56 l 733 285 l 1033 285 l 901 -11 m 913 -61 l 899 -61 l 882 -31 l 874 -31 l 993 238 l 763 238 l 610 -106 l 94 -106 l 78 -75 l 72 -75 l 64 -61 l 50 -61 l 33 -31 l 25 -31 l 429 876 l 588 985 l 1763 985 l 1824 878 l 1822 872 l 1846 828 l 1844 822 l 1863 794 l 1461 -106 l 943 -106 l 926 -75 l 921 -75 l 913 -61 z "},"B":{"ha":1513,"x_min":25,"x_max":1856,"o":"m 888 631 l 1150 631 l 1086 585 l 867 585 l 888 631 m 1036 282 l 732 282 l 754 331 l 1015 331 l 1036 282 m 1228 669 l 1239 694 l 850 694 l 790 563 l 1079 563 l 1228 669 m 1004 394 l 715 394 l 657 263 l 1046 263 l 1057 288 l 1004 394 m 638 243 l 629 243 l 706 414 l 1025 414 l 1082 299 l 1079 294 l 1097 265 l 1074 213 l 654 213 l 638 243 m 771 543 l 763 543 l 839 714 l 1267 714 l 1263 706 l 1279 675 l 1257 625 l 1101 513 l 788 513 l 771 543 m 1719 893 l 528 893 l 144 31 l 1307 31 l 1422 114 l 1532 361 l 1464 474 l 1638 600 l 1746 842 l 1719 893 m 1769 853 l 1653 590 l 1494 474 l 1556 372 l 1436 104 l 1311 11 l 86 11 l 500 943 l 1724 943 l 1769 853 m 1699 542 l 1817 807 l 1792 851 l 1793 854 l 1735 965 l 488 965 l 53 -11 l 67 -11 l 92 -56 l 1329 -56 l 1482 56 l 1600 322 l 1576 367 l 1578 372 l 1542 428 l 1699 542 m 1839 814 l 1856 782 l 1728 497 l 1592 397 l 1603 383 l 1600 378 l 1625 333 l 1622 328 l 1639 297 l 1513 11 l 1351 -106 l 94 -106 l 78 -75 l 72 -75 l 64 -61 l 50 -61 l 33 -31 l 25 -31 l 478 985 l 1756 985 l 1817 865 l 1815 863 l 1840 818 l 1839 814 z "},"C":{"ha":1390,"x_min":75,"x_max":1778,"o":"m 839 714 l 1567 714 l 1646 893 l 601 893 l 496 819 l 163 72 l 185 31 l 1263 31 l 1343 213 l 654 213 l 638 243 l 629 243 l 839 714 m 122 93 l 465 864 l 579 943 l 1688 943 l 1578 694 l 850 694 l 657 263 l 1385 263 l 1274 11 l 165 11 l 122 93 m 888 631 l 1615 631 l 1739 907 l 1714 951 l 1719 965 l 589 965 l 443 864 l 100 93 l 154 -11 l 160 -11 l 182 -56 l 1310 -56 l 1436 226 l 1411 271 l 1415 282 l 732 282 l 888 631 m 1761 913 l 1778 882 l 1643 581 l 915 581 l 792 301 l 1444 301 l 1440 293 l 1458 265 l 1453 251 l 1460 238 l 1457 232 l 1475 201 l 1338 -106 l 185 -106 l 168 -75 l 163 -75 l 140 -31 l 135 -31 l 75 82 l 428 875 l 588 985 l 1749 985 l 1744 976 l 1761 946 l 1756 932 l 1763 918 l 1761 913 z "},"D":{"ha":1514,"x_min":25,"x_max":1863,"o":"m 72 -75 l 78 -75 l 94 -106 l 1357 -106 l 1508 1 l 1863 794 l 1844 822 l 1846 828 l 1822 872 l 1824 878 l 1763 985 l 478 985 l 25 -31 l 33 -31 l 50 -61 l 64 -61 l 72 -75 m 1800 867 l 1797 861 l 1822 818 l 1479 46 l 1335 -56 l 92 -56 l 67 -11 l 53 -11 l 488 965 l 1742 965 l 1800 867 m 86 11 l 1318 11 l 1438 96 l 1436 99 l 1778 867 l 1731 946 l 1726 943 l 500 943 l 86 11 m 1753 856 l 1418 104 l 1315 31 l 144 31 l 528 893 l 1731 893 l 1753 856 m 839 714 l 629 243 l 638 243 l 654 213 l 1074 213 l 1279 675 l 1263 706 l 1267 714 l 839 714 m 850 694 l 1239 694 l 1046 263 l 657 263 l 850 694 m 1032 282 l 1188 631 l 888 631 l 732 282 l 1032 282 m 915 581 l 1146 581 l 1022 301 l 792 301 l 915 581 z "},"E":{"ha":1397,"x_min":25,"x_max":1785,"o":"m 718 442 l 1451 442 l 1494 540 l 800 540 l 783 571 l 775 571 l 839 714 l 1574 714 l 1653 893 l 528 893 l 144 31 l 1269 31 l 1350 213 l 654 213 l 638 243 l 629 243 l 718 442 m 850 694 l 803 590 l 1536 590 l 1461 422 l 728 422 l 657 263 l 1392 263 l 1281 11 l 86 11 l 500 943 l 1694 943 l 1585 694 l 850 694 m 767 358 l 1500 358 l 1588 554 l 1563 599 l 1568 613 l 879 613 l 889 633 l 1624 633 l 1746 907 l 1721 951 l 1726 965 l 488 965 l 53 -11 l 67 -11 l 92 -56 l 1317 -56 l 1443 226 l 1418 271 l 1422 282 l 732 282 l 767 358 m 1608 560 l 1626 529 l 1528 308 l 794 308 l 792 301 l 1451 301 l 1447 293 l 1465 265 l 1460 251 l 1467 238 l 1464 232 l 1482 201 l 1344 -106 l 94 -106 l 78 -75 l 72 -75 l 64 -61 l 50 -61 l 33 -31 l 25 -31 l 478 985 l 1756 985 l 1751 976 l 1768 946 l 1763 932 l 1769 918 l 1768 913 l 1785 882 l 1651 583 l 1606 583 l 1604 579 l 1611 565 l 1608 560 z "},"F":{"ha":1358,"x_min":25,"x_max":1746,"o":"m 839 714 l 1535 714 l 1614 893 l 528 893 l 144 31 l 535 31 l 717 440 l 1411 440 l 1456 539 l 800 539 l 783 569 l 775 569 l 839 714 m 850 694 l 803 589 l 1497 589 l 1422 421 l 728 421 l 546 11 l 86 11 l 500 943 l 1656 943 l 1546 694 l 850 694 m 1682 951 l 1688 965 l 488 965 l 53 -11 l 67 -11 l 92 -56 l 582 -56 l 765 357 l 1460 357 l 1547 553 l 1522 597 l 1529 611 l 879 611 l 888 631 l 1583 631 l 1707 907 l 1682 951 m 1717 985 l 1713 976 l 1729 946 l 1724 932 l 1731 918 l 1729 913 l 1746 882 l 1611 581 l 1565 581 l 1564 578 l 1572 564 l 1569 558 l 1586 528 l 1488 307 l 793 307 l 610 -106 l 94 -106 l 78 -75 l 72 -75 l 64 -61 l 50 -61 l 33 -31 l 25 -31 l 478 985 l 1717 985 z "},"G":{"ha":1514,"x_min":75,"x_max":1904,"o":"m 793 304 l 1024 304 l 1146 581 l 915 581 l 793 304 m 497 822 l 163 72 l 185 31 l 963 31 l 958 22 l 975 -8 l 944 -78 l 964 -118 l 1318 -118 l 1589 490 l 1567 532 l 1217 532 l 1074 213 l 654 213 l 638 243 l 629 243 l 840 717 l 1692 717 l 1772 899 l 604 899 l 497 822 m 851 697 l 657 263 l 1046 263 l 1189 582 l 1571 582 l 1614 501 l 1329 -137 l 944 -137 l 904 -57 l 935 11 l 165 11 l 122 93 l 467 867 l 581 946 l 1813 946 l 1703 697 l 851 697 m 182 -56 l 882 -56 l 881 -58 l 935 -157 l 940 -157 l 964 -201 l 1367 -201 l 1658 451 l 1633 496 l 1636 501 l 1581 604 l 1176 604 l 1033 285 l 733 285 l 888 631 l 1739 631 l 1865 913 l 1839 954 l 1844 968 l 590 968 l 444 867 l 100 93 l 154 -11 l 160 -11 l 182 -56 m 140 -31 l 135 -31 l 75 82 l 429 878 l 589 988 l 1874 988 l 1869 979 l 1886 949 l 1881 935 l 1889 924 l 1886 918 l 1904 888 l 1767 581 l 1622 581 l 1660 513 l 1658 507 l 1682 463 l 1679 457 l 1697 426 l 1394 -251 l 967 -251 l 950 -221 l 944 -221 l 919 -176 l 914 -176 l 875 -106 l 185 -106 l 168 -75 l 163 -75 l 140 -31 z "},"H":{"ha":1514,"x_min":25,"x_max":1901,"o":"m 789 585 l 781 585 l 918 893 l 528 893 l 144 31 l 535 31 l 724 456 l 1151 456 l 1147 447 l 1165 417 l 993 31 l 1386 31 l 1769 893 l 1376 893 l 1226 554 l 807 554 l 789 585 m 810 604 l 1199 604 l 1349 943 l 1811 943 l 1397 11 l 935 11 l 1124 436 l 735 436 l 546 11 l 86 11 l 500 943 l 960 943 l 810 604 m 986 951 l 992 965 l 488 965 l 53 -11 l 67 -11 l 92 -56 l 582 -56 l 772 372 l 1072 372 l 901 -11 l 915 -11 l 940 -56 l 1433 -56 l 1863 907 l 1838 951 l 1843 965 l 1336 965 l 1186 626 l 886 626 l 1011 907 l 986 951 m 1021 985 l 1017 976 l 1033 946 l 1028 932 l 1035 918 l 1033 913 l 1050 882 l 944 646 l 1175 646 l 1326 985 l 1872 985 l 1868 976 l 1885 946 l 1879 932 l 1886 918 l 1885 913 l 1901 882 l 1461 -106 l 943 -106 l 926 -75 l 921 -75 l 913 -61 l 899 -61 l 882 -31 l 874 -31 l 1031 322 l 800 322 l 610 -106 l 94 -106 l 78 -75 l 72 -75 l 64 -61 l 50 -61 l 33 -31 l 25 -31 l 478 985 l 1021 985 z "},"I":{"ha":1121,"x_min":25,"x_max":1508,"o":"m 1069 714 l 1297 714 l 1376 893 l 528 893 l 449 714 l 646 714 l 642 706 l 658 675 l 453 213 l 225 213 l 144 31 l 993 31 l 1074 213 l 885 213 l 868 243 l 860 243 l 1069 714 m 1081 694 l 888 263 l 1115 263 l 1004 11 l 86 11 l 197 263 l 425 263 l 618 694 l 390 694 l 500 943 l 1418 943 l 1308 694 l 1081 694 m 411 282 l 183 282 l 53 -11 l 67 -11 l 92 -56 l 1040 -56 l 1167 226 l 1142 271 l 1146 282 l 960 282 l 1115 631 l 1346 631 l 1469 907 l 1444 951 l 1450 965 l 488 965 l 357 672 l 365 672 l 369 675 l 397 631 l 567 631 l 411 282 m 174 301 l 404 301 l 528 581 l 400 581 l 381 611 l 378 611 l 369 622 l 354 622 l 338 653 l 329 653 l 478 985 l 1479 985 l 1475 976 l 1492 946 l 1486 932 l 1493 918 l 1492 913 l 1508 882 l 1374 581 l 1143 581 l 1019 301 l 1175 301 l 1171 293 l 1189 265 l 1183 251 l 1190 238 l 1188 232 l 1206 201 l 1068 -106 l 94 -106 l 78 -75 l 72 -75 l 64 -61 l 50 -61 l 33 -31 l 25 -31 l 174 301 z "},"J":{"ha":1514,"x_min":75,"x_max":1901,"o":"m 638 243 l 629 243 l 708 422 l 318 422 l 163 72 l 185 31 l 1315 31 l 1418 104 l 1769 893 l 1376 893 l 1074 213 l 654 213 l 638 243 m 122 93 l 290 472 l 750 472 l 657 263 l 1046 263 l 1349 943 l 1811 943 l 1436 99 l 1438 96 l 1318 11 l 165 11 l 122 93 m 776 481 l 783 494 l 279 494 l 100 93 l 154 -11 l 160 -11 l 182 -56 l 1335 -56 l 1479 46 l 1863 907 l 1838 951 l 1843 965 l 1336 965 l 1032 282 l 732 282 l 801 436 l 776 481 m 807 506 l 824 475 l 818 461 l 825 447 l 824 442 l 840 411 l 792 301 l 1022 301 l 1326 985 l 1872 985 l 1868 976 l 1885 946 l 1879 932 l 1886 918 l 1885 913 l 1901 882 l 1508 1 l 1357 -106 l 185 -106 l 168 -75 l 163 -75 l 140 -31 l 135 -31 l 75 82 l 268 514 l 811 514 l 807 506 z "},"K":{"ha":1514,"x_min":25,"x_max":1901,"o":"m 789 585 l 781 585 l 918 893 l 528 893 l 144 31 l 535 31 l 724 456 l 1040 456 l 1099 338 l 1097 333 l 1114 301 l 993 31 l 1385 31 l 1564 435 l 1500 556 l 1675 681 l 1769 893 l 1376 893 l 1256 622 l 1119 554 l 807 554 l 789 585 m 1226 668 l 1349 943 l 1811 943 l 1690 669 l 1531 556 l 1589 446 l 1396 11 l 935 11 l 1075 326 l 1021 436 l 735 436 l 546 11 l 86 11 l 500 943 l 960 943 l 810 604 l 1099 604 l 1226 668 m 986 951 l 992 965 l 488 965 l 53 -11 l 67 -11 l 92 -56 l 582 -56 l 772 372 l 1031 372 l 1051 325 l 901 -11 l 915 -11 l 940 -56 l 1432 -56 l 1633 396 l 1608 440 l 1611 446 l 1576 508 l 1736 624 l 1863 907 l 1838 951 l 1843 965 l 1336 965 l 1210 679 l 1101 626 l 886 626 l 1011 907 l 986 951 m 1021 985 l 1017 976 l 1033 946 l 1028 932 l 1035 918 l 1033 913 l 1050 882 l 944 646 l 1096 646 l 1196 693 l 1326 985 l 1872 985 l 1868 976 l 1885 946 l 1879 932 l 1886 918 l 1885 913 l 1901 882 l 1767 579 l 1624 476 l 1635 457 l 1633 451 l 1657 407 l 1656 401 l 1672 371 l 1460 -106 l 943 -106 l 926 -75 l 921 -75 l 913 -61 l 899 -61 l 882 -31 l 874 -31 l 1028 314 l 1022 322 l 800 322 l 610 -106 l 94 -106 l 78 -75 l 72 -75 l 64 -61 l 50 -61 l 33 -31 l 25 -31 l 478 985 l 1021 985 z "},"L":{"ha":1326,"x_min":25,"x_max":1411,"o":"m 1381 301 l 792 301 l 1050 882 l 1033 913 l 1035 918 l 1028 932 l 1033 946 l 1017 976 l 1021 985 l 478 985 l 25 -31 l 33 -31 l 50 -61 l 64 -61 l 72 -75 l 78 -75 l 94 -106 l 1274 -106 l 1411 201 l 1393 232 l 1396 238 l 1389 251 l 1394 265 l 1376 293 l 1381 301 m 1372 226 l 1246 -56 l 92 -56 l 67 -11 l 53 -11 l 488 965 l 992 965 l 986 951 l 1011 907 l 732 282 l 1351 282 l 1347 271 l 1372 226 m 1210 11 l 1321 263 l 657 263 l 960 943 l 500 943 l 86 11 l 1210 11 m 654 213 l 1279 213 l 1199 31 l 144 31 l 528 893 l 918 893 l 629 243 l 638 243 l 654 213 z "},"M":{"ha":1767,"x_min":25,"x_max":2154,"o":"m 2125 985 l 1415 985 l 1225 796 l 1217 885 l 1201 907 l 1201 921 l 1196 931 l 1193 946 l 1182 965 l 1179 985 l 478 985 l 25 -31 l 33 -31 l 50 -61 l 64 -61 l 72 -75 l 78 -75 l 94 -106 l 613 -106 l 801 318 l 817 217 l 824 217 l 842 186 l 847 186 l 854 172 l 860 172 l 876 142 l 1136 142 l 1250 249 l 1125 -31 l 1133 -31 l 1150 -61 l 1164 -61 l 1172 -75 l 1178 -75 l 1194 -106 l 1714 -106 l 2154 882 l 2138 913 l 2139 918 l 2132 932 l 2138 946 l 2121 976 l 2125 985 m 2115 907 l 1686 -56 l 1192 -56 l 1167 -11 l 1153 -11 l 1339 407 l 1113 192 l 874 192 l 850 236 l 838 236 l 810 440 l 806 440 l 585 -56 l 92 -56 l 67 -11 l 53 -11 l 488 965 l 1156 965 l 1158 949 l 1156 949 l 1182 901 l 1199 747 l 1414 965 l 2096 965 l 2090 951 l 2115 907 m 1650 11 l 2064 943 l 1419 943 l 1161 682 l 1131 943 l 500 943 l 86 11 l 549 11 l 781 535 l 825 535 l 863 258 l 1083 258 l 1372 533 l 1418 533 l 1186 11 l 1650 11 m 1446 553 l 1367 553 l 1075 275 l 886 275 l 861 518 l 847 540 l 847 539 l 846 554 l 771 554 l 538 31 l 144 31 l 528 893 l 1114 893 l 1143 642 l 1147 647 l 1167 617 l 1438 893 l 2022 893 l 1639 31 l 1244 31 l 1460 514 l 1443 544 l 1446 553 z "},"N":{"ha":1514,"x_min":25,"x_max":1901,"o":"m 1053 233 l 1069 203 l 993 31 l 1386 31 l 1769 893 l 1376 893 l 1218 538 l 819 893 l 528 893 l 144 31 l 535 31 l 753 521 l 1056 239 l 1053 233 m 817 943 l 1197 601 l 1349 943 l 1811 943 l 1397 11 l 935 11 l 1031 226 l 754 482 l 546 11 l 86 11 l 500 943 l 817 943 m 92 -56 l 582 -56 l 786 401 l 997 204 l 901 -11 l 915 -11 l 940 -56 l 1433 -56 l 1863 907 l 1838 951 l 1843 965 l 1336 965 l 1193 643 l 833 965 l 488 965 l 53 -11 l 67 -11 l 92 -56 m 33 -31 l 25 -31 l 478 985 l 854 985 l 1190 681 l 1326 985 l 1872 985 l 1868 976 l 1885 946 l 1879 932 l 1886 918 l 1885 913 l 1901 882 l 1461 -106 l 943 -106 l 926 -75 l 921 -75 l 913 -61 l 899 -61 l 882 -31 l 874 -31 l 969 183 l 806 333 l 610 -106 l 94 -106 l 78 -75 l 72 -75 l 64 -61 l 50 -61 l 33 -31 z "},"O":{"ha":1514,"x_min":75,"x_max":1863,"o":"m 163 -75 l 168 -75 l 185 -106 l 1357 -106 l 1508 1 l 1863 794 l 1844 822 l 1846 828 l 1822 872 l 1824 878 l 1763 985 l 588 985 l 428 875 l 75 82 l 135 -31 l 140 -31 l 163 -75 m 160 -11 l 154 -11 l 100 93 l 443 864 l 589 965 l 1742 965 l 1800 867 l 1797 861 l 1822 818 l 1479 46 l 1335 -56 l 182 -56 l 160 -11 m 1778 867 l 1732 943 l 579 943 l 465 864 l 122 93 l 165 11 l 1318 11 l 1433 93 l 1778 867 m 601 893 l 1731 893 l 1753 856 l 1418 104 l 1315 31 l 185 31 l 163 72 l 496 819 l 601 893 m 839 714 l 629 243 l 638 243 l 654 213 l 1074 213 l 1279 675 l 1263 706 l 1267 714 l 839 714 m 850 694 l 1239 694 l 1046 263 l 657 263 l 850 694 m 1032 282 l 1188 631 l 888 631 l 732 282 l 1032 282 m 915 581 l 1146 581 l 1022 301 l 792 301 l 915 581 z "},"P":{"ha":1494,"x_min":25,"x_max":1838,"o":"m 906 558 l 1042 558 l 1071 581 l 915 581 l 906 558 m 847 539 l 888 631 l 1171 631 l 1046 539 l 847 539 m 1192 629 l 1221 694 l 850 694 l 771 517 l 1039 517 l 1192 629 m 750 497 l 742 497 l 839 714 l 1249 714 l 1244 706 l 1261 675 l 1221 585 l 1061 467 l 768 467 l 750 497 m 1701 893 l 528 893 l 144 31 l 535 31 l 686 371 l 1421 371 l 1564 474 l 1728 842 l 1701 893 m 1424 351 l 697 351 l 546 11 l 86 11 l 500 943 l 1706 943 l 1751 853 l 1578 463 l 1424 351 m 1717 965 l 488 965 l 53 -11 l 67 -11 l 92 -56 l 582 -56 l 733 285 l 1442 285 l 1624 414 l 1799 807 l 1774 851 l 1775 854 l 1717 965 m 1799 865 l 1797 863 l 1822 818 l 1821 814 l 1838 782 l 1653 369 l 1465 238 l 763 238 l 610 -106 l 94 -106 l 78 -75 l 72 -75 l 64 -61 l 50 -61 l 33 -31 l 25 -31 l 478 985 l 1738 985 l 1799 865 z "},"Q":{"ha":1514,"x_min":75,"x_max":1863,"o":"m 1144 576 l 1146 581 l 915 581 l 793 304 l 826 304 l 882 429 l 1144 576 m 733 285 l 888 631 l 1188 631 l 1158 564 l 896 417 l 836 285 l 733 285 m 1178 557 l 1240 697 l 851 697 l 657 263 l 849 263 l 914 408 l 1178 557 m 1264 708 l 1281 678 l 1207 511 l 943 363 l 876 213 l 654 213 l 638 243 l 629 243 l 840 717 l 1268 717 l 1264 708 m 885 -118 l 1233 -118 l 1300 31 l 1315 31 l 1418 104 l 1754 858 l 1732 899 l 604 899 l 497 822 l 163 72 l 185 31 l 756 31 l 885 -118 m 736 11 l 165 11 l 122 93 l 467 867 l 581 946 l 1733 946 l 1779 869 l 1433 93 l 1318 11 l 1311 11 l 1244 -137 l 867 -137 l 736 11 m 182 -56 l 750 -56 l 883 -201 l 1282 -201 l 1353 -43 l 1479 46 l 1824 819 l 1799 864 l 1801 869 l 1743 968 l 590 968 l 444 867 l 100 93 l 154 -11 l 160 -11 l 182 -56 m 168 -75 l 163 -75 l 140 -31 l 135 -31 l 75 82 l 429 878 l 589 988 l 1764 988 l 1825 881 l 1822 875 l 1847 831 l 1844 825 l 1863 794 l 1508 1 l 1383 -87 l 1310 -251 l 886 -251 l 753 -106 l 185 -106 l 168 -75 z "},"R":{"ha":1514,"x_min":25,"x_max":1857,"o":"m 906 558 l 1060 558 l 1089 581 l 915 581 l 906 558 m 847 539 l 888 631 l 1189 631 l 1064 539 l 847 539 m 1210 629 l 1239 694 l 850 694 l 771 517 l 1057 517 l 1210 629 m 750 497 l 742 497 l 839 714 l 1267 714 l 1263 706 l 1279 675 l 1239 585 l 1079 467 l 768 467 l 750 497 m 1110 363 l 1126 332 l 993 31 l 1385 31 l 1529 356 l 1464 474 l 1639 600 l 1747 842 l 1721 893 l 528 893 l 144 31 l 535 31 l 686 371 l 1114 371 l 1110 363 m 935 11 l 1086 351 l 697 351 l 546 11 l 86 11 l 500 943 l 1725 943 l 1771 853 l 1654 590 l 1494 474 l 1554 367 l 1396 11 l 935 11 m 1736 965 l 488 965 l 53 -11 l 67 -11 l 92 -56 l 582 -56 l 733 285 l 1033 285 l 901 -11 l 915 -11 l 940 -56 l 1432 -56 l 1599 317 l 1574 361 l 1576 367 l 1540 426 l 1700 542 l 1818 807 l 1793 851 l 1794 854 l 1736 965 m 1818 865 l 1817 863 l 1842 818 l 1840 814 l 1857 782 l 1729 497 l 1589 396 l 1600 378 l 1597 372 l 1622 328 l 1619 322 l 1636 292 l 1460 -106 l 943 -106 l 926 -75 l 921 -75 l 913 -61 l 899 -61 l 882 -31 l 874 -31 l 993 238 l 763 238 l 610 -106 l 94 -106 l 78 -75 l 72 -75 l 64 -61 l 50 -61 l 33 -31 l 25 -31 l 478 985 l 1757 985 l 1818 865 z "},"S":{"ha":1393,"x_min":25,"x_max":1781,"o":"m 496 819 l 333 456 l 356 414 l 1013 414 l 1008 406 l 1025 375 l 953 213 l 225 213 l 144 31 l 1194 31 l 1297 104 l 1460 469 l 1438 513 l 788 513 l 771 543 l 763 543 l 839 714 l 1569 714 l 1649 893 l 601 893 l 496 819 m 850 694 l 790 563 l 1442 563 l 1485 481 l 1313 93 l 1197 11 l 86 11 l 197 263 l 925 263 l 983 394 l 335 394 l 293 476 l 465 864 l 579 943 l 1690 943 l 1581 694 l 850 694 m 326 375 l 332 375 l 354 331 l 936 331 l 914 282 l 183 282 l 53 -11 l 67 -11 l 92 -56 l 1214 -56 l 1358 46 l 1529 431 l 1506 476 l 1507 481 l 1451 585 l 867 585 l 888 631 l 1618 631 l 1742 907 l 1717 951 l 1722 965 l 589 965 l 443 864 l 271 476 l 326 375 m 246 465 l 428 875 l 588 985 l 1751 985 l 1747 976 l 1764 946 l 1758 932 l 1765 918 l 1764 913 l 1781 882 l 1646 581 l 1483 581 l 1532 492 l 1529 488 l 1554 442 l 1551 436 l 1568 406 l 1388 1 l 1236 -106 l 94 -106 l 78 -75 l 72 -75 l 64 -61 l 50 -61 l 33 -31 l 25 -31 l 174 301 l 346 301 l 340 311 l 335 311 l 313 356 l 307 356 l 246 465 z "},"T":{"ha":1450,"x_min":329,"x_max":1838,"o":"m 378 611 l 381 611 l 400 581 l 689 581 l 417 -31 l 425 -31 l 442 -61 l 456 -61 l 464 -75 l 469 -75 l 486 -106 l 1004 -106 l 1310 581 l 1703 581 l 1838 882 l 1821 913 l 1822 918 l 1815 932 l 1821 946 l 1804 976 l 1808 985 l 478 985 l 329 653 l 338 653 l 354 622 l 369 622 l 378 611 m 1799 907 l 1675 631 l 1282 631 l 976 -56 l 483 -56 l 458 -11 l 444 -11 l 731 631 l 397 631 l 369 675 l 365 672 l 357 672 l 488 965 l 1779 965 l 1774 951 l 1799 907 m 940 11 l 1244 694 l 1638 694 l 1747 943 l 500 943 l 390 694 l 782 694 l 478 11 l 940 11 m 810 714 l 449 714 l 528 893 l 1706 893 l 1626 714 l 1233 714 l 929 31 l 536 31 l 822 675 l 806 706 l 810 714 z "},"U":{"ha":1514,"x_min":75,"x_max":1901,"o":"m 638 243 l 629 243 l 918 893 l 528 893 l 163 72 l 185 31 l 1315 31 l 1418 104 l 1769 893 l 1376 893 l 1074 213 l 654 213 l 638 243 m 122 93 l 500 943 l 960 943 l 657 263 l 1046 263 l 1349 943 l 1811 943 l 1436 99 l 1438 96 l 1318 11 l 165 11 l 122 93 m 986 951 l 992 965 l 488 965 l 100 93 l 154 -11 l 160 -11 l 182 -56 l 1335 -56 l 1479 46 l 1863 907 l 1838 951 l 1843 965 l 1336 965 l 1032 282 l 732 282 l 1011 907 l 986 951 m 1017 976 l 1033 946 l 1028 932 l 1035 918 l 1033 913 l 1050 882 l 792 301 l 1022 301 l 1326 985 l 1872 985 l 1868 976 l 1885 946 l 1879 932 l 1886 918 l 1885 913 l 1901 882 l 1508 1 l 1357 -106 l 185 -106 l 168 -75 l 163 -75 l 140 -31 l 135 -31 l 75 82 l 478 985 l 1021 985 l 1017 976 z "},"V":{"ha":1428,"x_min":211,"x_max":1815,"o":"m 767 553 l 918 893 l 528 893 l 294 367 l 297 31 l 1125 31 l 1465 403 l 1683 893 l 1290 893 l 1125 519 l 863 213 l 782 213 l 765 243 l 758 243 l 767 553 m 1263 943 l 1725 943 l 1483 400 l 1131 11 l 264 11 l 258 400 l 500 943 l 960 943 l 788 556 l 778 263 l 839 263 l 1090 556 l 1263 943 m 986 951 l 992 965 l 488 965 l 232 390 l 236 -11 l 251 -11 l 276 -56 l 1160 -56 l 1526 346 l 1776 907 l 1751 951 l 1757 965 l 1253 965 l 1074 563 l 829 281 l 835 513 l 1011 907 l 986 951 m 1021 985 l 1017 976 l 1033 946 l 1028 932 l 1035 918 l 1033 913 l 1050 882 l 869 478 l 865 346 l 1056 564 l 1243 985 l 1786 985 l 1782 976 l 1799 946 l 1793 932 l 1800 918 l 1799 913 l 1815 882 l 1560 310 l 1183 -106 l 279 -106 l 263 -75 l 257 -75 l 249 -61 l 240 -61 l 224 -31 l 217 -31 l 211 388 l 478 985 l 1021 985 z "},"W":{"ha":1989,"x_min":211,"x_max":2376,"o":"m 769 553 l 921 893 l 528 893 l 293 365 l 290 31 l 899 31 l 1072 222 l 1071 200 l 1088 176 l 1086 31 l 1690 31 l 2026 403 l 2244 893 l 1851 893 l 1686 519 l 1394 183 l 1376 214 l 1369 207 l 1381 553 l 1490 800 l 1199 800 l 1075 519 l 786 183 l 768 214 l 761 207 l 769 553 m 1824 943 l 2286 943 l 2044 400 l 1696 11 l 1053 11 l 1053 178 l 904 11 l 257 11 l 258 400 l 500 943 l 963 943 l 790 556 l 782 254 l 1040 556 l 1171 847 l 1532 847 l 1401 556 l 1390 254 l 1651 556 l 1824 943 m 1557 856 l 1564 869 l 1158 869 l 1021 563 l 833 344 l 838 513 l 1014 907 l 989 951 l 994 965 l 488 965 l 232 390 l 232 -11 l 244 -11 l 269 -56 l 936 -56 l 1026 46 l 1025 -11 l 1040 -11 l 1065 -56 l 1728 -56 l 2088 346 l 2338 907 l 2313 951 l 2318 965 l 1811 965 l 1632 563 l 1442 344 l 1446 513 l 1581 814 l 1557 856 m 1592 889 l 1588 881 l 1604 850 l 1597 833 l 1604 822 l 1601 818 l 1619 789 l 1481 478 l 1478 408 l 1614 564 l 1801 985 l 2347 985 l 2343 976 l 2360 946 l 2354 932 l 2361 918 l 2360 913 l 2376 882 l 2121 310 l 1751 -106 l 1068 -106 l 1051 -75 l 1046 -75 l 1038 -61 l 1029 -61 l 1017 -37 l 960 -106 l 272 -106 l 256 -75 l 250 -75 l 242 -61 l 236 -61 l 219 -31 l 213 -31 l 211 388 l 478 985 l 1024 985 l 1019 976 l 1036 946 l 1031 932 l 1038 918 l 1036 913 l 1053 882 l 872 478 l 869 410 l 1003 564 l 1147 889 l 1592 889 z "},"X":{"ha":1514,"x_min":26,"x_max":1901,"o":"m 1097 335 l 1114 303 l 993 31 l 1385 31 l 1565 436 l 1501 557 l 1676 682 l 1769 893 l 1376 893 l 1278 671 l 1118 556 l 918 556 l 901 586 l 896 586 l 835 704 l 918 893 l 528 893 l 418 647 l 465 557 l 463 556 l 478 522 l 311 403 l 146 31 l 535 31 l 672 339 l 838 457 l 1040 457 l 1100 339 l 1097 335 m 1811 943 l 1690 671 l 1532 557 l 1589 447 l 1396 11 l 935 11 l 1075 328 l 1021 438 l 840 438 l 686 328 l 546 11 l 88 11 l 281 447 l 435 557 l 379 671 l 500 943 l 960 943 l 858 715 l 915 606 l 1096 606 l 1247 715 l 1349 943 l 1811 943 m 986 951 l 992 965 l 488 965 l 357 669 l 413 556 l 258 447 l 54 -11 l 68 -11 l 93 -56 l 582 -56 l 731 279 l 861 374 l 1032 374 l 1053 326 l 901 -11 l 915 -11 l 940 -56 l 1432 -56 l 1633 397 l 1610 442 l 1611 447 l 1576 510 l 1736 625 l 1863 907 l 1838 951 l 1843 965 l 1336 965 l 1225 715 l 1103 628 l 926 628 l 904 668 l 1011 907 l 986 951 m 1021 985 l 1017 976 l 1033 946 l 1028 932 l 1035 918 l 1033 913 l 1050 882 l 946 649 l 946 647 l 1100 647 l 1211 726 l 1326 985 l 1872 985 l 1868 976 l 1885 946 l 1879 932 l 1886 918 l 1885 913 l 1901 882 l 1767 581 l 1624 478 l 1636 458 l 1633 453 l 1658 408 l 1656 403 l 1672 372 l 1460 -106 l 943 -106 l 926 -75 l 921 -75 l 913 -61 l 899 -61 l 882 -31 l 874 -31 l 1028 315 l 1024 324 l 883 324 l 763 238 l 610 -106 l 96 -106 l 79 -75 l 74 -75 l 65 -61 l 51 -61 l 35 -31 l 26 -31 l 244 458 l 382 556 l 332 658 l 478 985 l 1021 985 z "},"Y":{"ha":1514,"x_min":332,"x_max":1901,"o":"m 835 704 l 918 893 l 528 893 l 422 654 l 656 297 l 653 292 l 672 264 l 568 31 l 961 31 l 1079 296 l 1676 682 l 1769 893 l 1376 893 l 1278 671 l 1106 556 l 931 556 l 911 586 l 908 586 l 835 704 m 379 671 l 500 943 l 960 943 l 858 715 l 928 606 l 1083 606 l 1247 715 l 1349 943 l 1811 943 l 1690 671 l 1093 285 l 972 11 l 510 11 l 632 286 l 379 671 m 986 951 l 992 965 l 488 965 l 357 669 l 608 283 l 476 -11 l 490 -11 l 513 -56 l 1008 -56 l 1139 238 l 1736 625 l 1863 907 l 1838 951 l 1843 965 l 1336 965 l 1226 717 l 1092 628 l 939 628 l 907 674 l 1011 907 l 986 951 m 1017 976 l 1033 946 l 1028 932 l 1035 918 l 1033 913 l 1050 882 l 950 658 l 957 647 l 1089 647 l 1211 728 l 1326 985 l 1872 985 l 1868 976 l 1885 946 l 1879 932 l 1886 918 l 1885 913 l 1901 882 l 1767 581 l 1169 193 l 1036 -106 l 515 -106 l 499 -75 l 493 -75 l 485 -61 l 474 -61 l 457 -31 l 449 -31 l 583 272 l 332 658 l 478 985 l 1021 985 l 1017 976 z "},"Z":{"ha":1388,"x_min":25,"x_max":1775,"o":"m 1746 985 l 478 985 l 329 653 l 338 653 l 354 622 l 369 622 l 378 611 l 381 611 l 400 581 l 701 581 l 161 275 l 25 -31 l 33 -31 l 50 -61 l 64 -61 l 72 -75 l 78 -75 l 94 -106 l 1335 -106 l 1472 201 l 1454 232 l 1457 238 l 1450 251 l 1456 265 l 1438 293 l 1442 301 l 1111 301 l 1649 600 l 1775 882 l 1758 913 l 1760 918 l 1753 932 l 1758 946 l 1742 976 l 1746 985 m 1736 907 l 1619 646 l 964 282 l 1413 282 l 1408 271 l 1433 226 l 1307 -56 l 92 -56 l 67 -11 l 53 -11 l 176 265 l 829 631 l 397 631 l 369 675 l 365 672 l 357 672 l 488 965 l 1717 965 l 1711 951 l 1736 907 m 86 11 l 1271 11 l 1382 263 l 788 263 l 1576 699 l 1685 943 l 500 943 l 390 694 l 982 694 l 194 256 l 86 11 m 1056 714 l 449 714 l 528 893 l 1643 893 l 1563 711 l 717 243 l 742 243 l 758 213 l 1340 213 l 1260 31 l 144 31 l 224 210 l 1053 672 l 1036 704 l 1056 714 z "},"[":{"ha":896,"x_min":-12,"x_max":1321,"o":"m 874 797 l 1110 797 l 1190 979 l 567 979 l 106 -56 l 729 -56 l 811 126 l 614 126 l 596 157 l 588 157 l 874 797 m 883 778 l 617 176 l 853 176 l 740 -75 l 47 -75 l 539 1029 l 1232 1029 l 1119 778 l 883 778 m 922 714 l 1158 714 l 1282 993 l 1258 1038 l 1263 1049 l 525 1049 l 15 -97 l 29 -97 l 51 -142 l 778 -142 l 904 143 l 878 185 l 885 199 l 693 199 l 922 714 m 1304 999 l 1321 968 l 1186 664 l 947 664 l 749 218 l 913 218 l 908 210 l 925 179 l 919 167 l 928 154 l 926 149 l 943 118 l 806 -192 l 54 -192 l 36 -161 l 31 -161 l 24 -147 l 13 -147 l -4 -117 l -12 -117 l 514 1068 l 1290 1068 l 1288 1060 l 1304 1029 l 1299 1018 l 1307 1004 l 1304 999 z "},"\\":{"ha":1133,"x_min":457,"x_max":1096,"o":"m 457 985 l 497 -31 l 504 -31 l 521 -61 l 529 -61 l 538 -75 l 543 -75 l 560 -106 l 1096 -106 l 1056 885 l 1042 910 l 1040 921 l 1032 933 l 1032 932 l 1031 949 l 1018 967 l 1017 985 l 457 985 m 994 950 l 1021 901 l 1060 -56 l 557 -56 l 532 -11 l 517 -11 l 475 965 l 994 965 l 999 950 l 994 950 m 1011 11 l 971 943 l 503 943 l 544 11 l 1011 11 m 949 893 l 989 31 l 575 31 l 536 893 l 949 893 z "},"]":{"ha":896,"x_min":-12,"x_max":1321,"o":"m 413 694 l 418 694 l 435 664 l 571 664 l 372 218 l 136 218 l -12 -117 l -4 -117 l 13 -147 l 24 -147 l 31 -161 l 36 -161 l 54 -192 l 806 -192 l 1321 968 l 1304 999 l 1307 1004 l 1299 1018 l 1304 1029 l 1288 1060 l 1290 1068 l 514 1068 l 367 736 l 375 736 l 392 706 l 406 706 l 413 694 m 1282 993 l 778 -142 l 51 -142 l 29 -97 l 15 -97 l 147 199 l 383 199 l 613 714 l 432 714 l 408 756 l 394 756 l 525 1049 l 1263 1049 l 1258 1038 l 1282 993 m 47 -75 l 740 -75 l 1232 1029 l 539 1029 l 426 778 l 660 778 l 393 176 l 160 176 l 47 -75 m 421 126 l 701 758 l 685 789 l 689 797 l 486 797 l 567 979 l 1190 979 l 729 -56 l 106 -56 l 188 126 l 421 126 z "},"^":{"ha":1515,"x_min":25,"x_max":1724,"o":"m 1006 558 l 1067 558 l 1067 581 l 1024 581 l 1006 558 m 1092 631 l 1088 539 l 928 539 l 1003 631 l 1092 631 m 819 517 l 1111 517 l 1119 694 l 971 694 l 819 517 m 794 497 l 783 497 l 968 714 l 1142 714 l 1139 703 l 1154 678 l 1146 467 l 813 467 l 794 497 m 1115 371 l 1111 363 l 1128 332 l 994 31 l 1388 31 l 1619 551 l 1610 893 l 699 893 l 361 518 l 144 31 l 535 31 l 686 371 l 1115 371 m 936 11 l 1088 351 l 697 351 l 546 11 l 86 11 l 328 554 l 678 943 l 1632 943 l 1640 554 l 1399 11 l 936 11 m 582 -56 l 733 285 l 1035 285 l 903 -11 l 917 -11 l 942 -56 l 1435 -56 l 1689 514 l 1679 901 l 1654 944 l 1658 965 l 671 965 l 310 564 l 53 -11 l 67 -11 l 92 -56 l 582 -56 m 928 -75 l 922 -75 l 914 -61 l 900 -61 l 883 -31 l 875 -31 l 994 238 l 763 238 l 610 -106 l 94 -106 l 78 -75 l 72 -75 l 64 -61 l 50 -61 l 33 -31 l 25 -31 l 292 567 l 669 985 l 1686 985 l 1682 975 l 1699 946 l 1692 928 l 1699 921 l 1699 907 l 1714 885 l 1724 481 l 1463 -106 l 944 -106 l 928 -75 z "},"_":{"ha":964,"x_min":25,"x_max":1007,"o":"m 144 31 l 836 31 l 875 118 l 183 118 l 144 31 m 917 168 l 847 11 l 86 11 l 156 168 l 917 168 m 943 176 l 949 190 l 143 190 l 53 -11 l 67 -11 l 90 -53 l 885 -53 l 968 135 l 943 176 m 132 210 l 976 210 l 974 201 l 990 171 l 985 158 l 993 146 l 990 140 l 1007 110 l 914 -100 l 94 -100 l 76 -72 l 71 -72 l 64 -61 l 50 -61 l 33 -31 l 25 -31 l 132 210 z "},"`":{"ha":460,"x_min":375,"x_max":871,"o":"m 753 1014 l 733 1139 l 490 1139 l 538 1014 l 753 1014 m 753 1189 l 781 994 l 518 994 l 442 1189 l 753 1189 m 535 933 l 831 933 l 801 1149 l 775 1194 l 778 1194 l 775 1211 l 408 1211 l 503 972 l 510 972 l 535 933 m 508 925 l 507 925 l 489 954 l 483 954 l 375 1231 l 796 1231 l 799 1213 l 813 1192 l 815 1178 l 821 1168 l 822 1154 l 836 1131 l 871 883 l 538 883 l 519 914 l 515 914 l 508 925 z "},"a":{"ha":1514,"x_min":25,"x_max":1863,"o":"m 906 558 l 1136 558 l 1146 581 l 915 581 l 906 558 m 1188 631 l 1147 539 l 847 539 l 888 631 l 1188 631 m 771 517 l 1160 517 l 1239 694 l 850 694 l 771 517 m 1263 706 l 1279 675 l 1188 467 l 768 467 l 750 497 l 742 497 l 839 714 l 1267 714 l 1263 706 m 1114 371 l 1110 363 l 1126 332 l 993 31 l 1386 31 l 1753 856 l 1731 893 l 601 893 l 496 821 l 144 31 l 535 31 l 686 371 l 1114 371 m 935 11 l 1086 351 l 697 351 l 546 11 l 86 11 l 465 865 l 579 943 l 1726 943 l 1731 946 l 1778 867 l 1397 11 l 935 11 m 901 -11 l 915 -11 l 940 -56 l 1433 -56 l 1822 818 l 1797 861 l 1800 867 l 1742 965 l 589 965 l 443 865 l 53 -11 l 67 -11 l 92 -56 l 582 -56 l 733 285 l 1033 285 l 901 -11 m 913 -61 l 899 -61 l 882 -31 l 874 -31 l 993 238 l 763 238 l 610 -106 l 94 -106 l 78 -75 l 72 -75 l 64 -61 l 50 -61 l 33 -31 l 25 -31 l 429 876 l 588 985 l 1763 985 l 1824 878 l 1822 872 l 1846 828 l 1844 822 l 1863 794 l 1461 -106 l 943 -106 l 926 -75 l 921 -75 l 913 -61 z "},"b":{"ha":1513,"x_min":25,"x_max":1856,"o":"m 888 631 l 1150 631 l 1086 585 l 867 585 l 888 631 m 1036 282 l 732 282 l 754 331 l 1015 331 l 1036 282 m 1228 669 l 1239 694 l 850 694 l 790 563 l 1079 563 l 1228 669 m 1004 394 l 715 394 l 657 263 l 1046 263 l 1057 288 l 1004 394 m 638 243 l 629 243 l 706 414 l 1025 414 l 1082 299 l 1079 294 l 1097 265 l 1074 213 l 654 213 l 638 243 m 771 543 l 763 543 l 839 714 l 1267 714 l 1263 706 l 1279 675 l 1257 625 l 1101 513 l 788 513 l 771 543 m 1719 893 l 528 893 l 144 31 l 1307 31 l 1422 114 l 1532 361 l 1464 474 l 1638 600 l 1746 842 l 1719 893 m 1769 853 l 1653 590 l 1494 474 l 1556 372 l 1436 104 l 1311 11 l 86 11 l 500 943 l 1724 943 l 1769 853 m 1699 542 l 1817 807 l 1792 851 l 1793 854 l 1735 965 l 488 965 l 53 -11 l 67 -11 l 92 -56 l 1329 -56 l 1482 56 l 1600 322 l 1576 367 l 1578 372 l 1542 428 l 1699 542 m 1839 814 l 1856 782 l 1728 497 l 1592 397 l 1603 383 l 1600 378 l 1625 333 l 1622 328 l 1639 297 l 1513 11 l 1351 -106 l 94 -106 l 78 -75 l 72 -75 l 64 -61 l 50 -61 l 33 -31 l 25 -31 l 478 985 l 1756 985 l 1817 865 l 1815 863 l 1840 818 l 1839 814 z "},"c":{"ha":1390,"x_min":75,"x_max":1778,"o":"m 839 714 l 1567 714 l 1646 893 l 601 893 l 496 819 l 163 72 l 185 31 l 1263 31 l 1343 213 l 654 213 l 638 243 l 629 243 l 839 714 m 122 93 l 465 864 l 579 943 l 1688 943 l 1578 694 l 850 694 l 657 263 l 1385 263 l 1274 11 l 165 11 l 122 93 m 888 631 l 1615 631 l 1739 907 l 1714 951 l 1719 965 l 589 965 l 443 864 l 100 93 l 154 -11 l 160 -11 l 182 -56 l 1310 -56 l 1436 226 l 1411 271 l 1415 282 l 732 282 l 888 631 m 1761 913 l 1778 882 l 1643 581 l 915 581 l 792 301 l 1444 301 l 1440 293 l 1458 265 l 1453 251 l 1460 238 l 1457 232 l 1475 201 l 1338 -106 l 185 -106 l 168 -75 l 163 -75 l 140 -31 l 135 -31 l 75 82 l 428 875 l 588 985 l 1749 985 l 1744 976 l 1761 946 l 1756 932 l 1763 918 l 1761 913 z "},"d":{"ha":1514,"x_min":25,"x_max":1863,"o":"m 72 -75 l 78 -75 l 94 -106 l 1357 -106 l 1508 1 l 1863 794 l 1844 822 l 1846 828 l 1822 872 l 1824 878 l 1763 985 l 478 985 l 25 -31 l 33 -31 l 50 -61 l 64 -61 l 72 -75 m 1800 867 l 1797 861 l 1822 818 l 1479 46 l 1335 -56 l 92 -56 l 67 -11 l 53 -11 l 488 965 l 1742 965 l 1800 867 m 86 11 l 1318 11 l 1438 96 l 1436 99 l 1778 867 l 1731 946 l 1726 943 l 500 943 l 86 11 m 1753 856 l 1418 104 l 1315 31 l 144 31 l 528 893 l 1731 893 l 1753 856 m 839 714 l 629 243 l 638 243 l 654 213 l 1074 213 l 1279 675 l 1263 706 l 1267 714 l 839 714 m 850 694 l 1239 694 l 1046 263 l 657 263 l 850 694 m 1032 282 l 1188 631 l 888 631 l 732 282 l 1032 282 m 915 581 l 1146 581 l 1022 301 l 792 301 l 915 581 z "},"e":{"ha":1397,"x_min":25,"x_max":1785,"o":"m 718 442 l 1451 442 l 1494 540 l 800 540 l 783 571 l 775 571 l 839 714 l 1574 714 l 1653 893 l 528 893 l 144 31 l 1269 31 l 1350 213 l 654 213 l 638 243 l 629 243 l 718 442 m 850 694 l 803 590 l 1536 590 l 1461 422 l 728 422 l 657 263 l 1392 263 l 1281 11 l 86 11 l 500 943 l 1694 943 l 1585 694 l 850 694 m 767 358 l 1500 358 l 1588 554 l 1563 599 l 1568 613 l 879 613 l 889 633 l 1624 633 l 1746 907 l 1721 951 l 1726 965 l 488 965 l 53 -11 l 67 -11 l 92 -56 l 1317 -56 l 1443 226 l 1418 271 l 1422 282 l 732 282 l 767 358 m 1608 560 l 1626 529 l 1528 308 l 794 308 l 792 301 l 1451 301 l 1447 293 l 1465 265 l 1460 251 l 1467 238 l 1464 232 l 1482 201 l 1344 -106 l 94 -106 l 78 -75 l 72 -75 l 64 -61 l 50 -61 l 33 -31 l 25 -31 l 478 985 l 1756 985 l 1751 976 l 1768 946 l 1763 932 l 1769 918 l 1768 913 l 1785 882 l 1651 583 l 1606 583 l 1604 579 l 1611 565 l 1608 560 z "},"f":{"ha":1358,"x_min":25,"x_max":1746,"o":"m 839 714 l 1535 714 l 1614 893 l 528 893 l 144 31 l 535 31 l 717 440 l 1411 440 l 1456 539 l 800 539 l 783 569 l 775 569 l 839 714 m 850 694 l 803 589 l 1497 589 l 1422 421 l 728 421 l 546 11 l 86 11 l 500 943 l 1656 943 l 1546 694 l 850 694 m 1682 951 l 1688 965 l 488 965 l 53 -11 l 67 -11 l 92 -56 l 582 -56 l 765 357 l 1460 357 l 1547 553 l 1522 597 l 1529 611 l 879 611 l 888 631 l 1583 631 l 1707 907 l 1682 951 m 1717 985 l 1713 976 l 1729 946 l 1724 932 l 1731 918 l 1729 913 l 1746 882 l 1611 581 l 1565 581 l 1564 578 l 1572 564 l 1569 558 l 1586 528 l 1488 307 l 793 307 l 610 -106 l 94 -106 l 78 -75 l 72 -75 l 64 -61 l 50 -61 l 33 -31 l 25 -31 l 478 985 l 1717 985 z "},"g":{"ha":1514,"x_min":75,"x_max":1901,"o":"m 792 301 l 1022 301 l 1146 581 l 915 581 l 792 301 m 496 819 l 163 72 l 185 31 l 1313 31 l 1418 103 l 1590 490 l 1568 532 l 1217 532 l 1074 213 l 654 213 l 638 243 l 629 243 l 839 714 l 1690 714 l 1769 893 l 601 893 l 496 819 m 850 694 l 657 263 l 1046 263 l 1189 582 l 1571 582 l 1615 501 l 1432 92 l 1315 11 l 165 11 l 122 93 l 465 864 l 579 943 l 1811 943 l 1701 694 l 850 694 m 154 -11 l 160 -11 l 182 -56 l 1332 -56 l 1478 44 l 1660 451 l 1635 496 l 1638 501 l 1581 604 l 1176 604 l 1032 282 l 732 282 l 888 631 l 1739 631 l 1863 907 l 1838 951 l 1843 965 l 589 965 l 443 864 l 100 93 l 154 -11 m 140 -31 l 135 -31 l 75 82 l 428 875 l 588 985 l 1872 985 l 1868 976 l 1885 946 l 1879 932 l 1886 918 l 1885 913 l 1901 882 l 1767 581 l 1624 581 l 1661 513 l 1660 507 l 1683 463 l 1681 457 l 1699 426 l 1508 0 l 1354 -106 l 185 -106 l 168 -75 l 163 -75 l 140 -31 z "},"h":{"ha":1514,"x_min":25,"x_max":1901,"o":"m 789 585 l 781 585 l 918 893 l 528 893 l 144 31 l 535 31 l 724 456 l 1151 456 l 1147 447 l 1165 417 l 993 31 l 1386 31 l 1769 893 l 1376 893 l 1226 554 l 807 554 l 789 585 m 810 604 l 1199 604 l 1349 943 l 1811 943 l 1397 11 l 935 11 l 1124 436 l 735 436 l 546 11 l 86 11 l 500 943 l 960 943 l 810 604 m 986 951 l 992 965 l 488 965 l 53 -11 l 67 -11 l 92 -56 l 582 -56 l 772 372 l 1072 372 l 901 -11 l 915 -11 l 940 -56 l 1433 -56 l 1863 907 l 1838 951 l 1843 965 l 1336 965 l 1186 626 l 886 626 l 1011 907 l 986 951 m 1021 985 l 1017 976 l 1033 946 l 1028 932 l 1035 918 l 1033 913 l 1050 882 l 944 646 l 1175 646 l 1326 985 l 1872 985 l 1868 976 l 1885 946 l 1879 932 l 1886 918 l 1885 913 l 1901 882 l 1461 -106 l 943 -106 l 926 -75 l 921 -75 l 913 -61 l 899 -61 l 882 -31 l 874 -31 l 1031 322 l 800 322 l 610 -106 l 94 -106 l 78 -75 l 72 -75 l 64 -61 l 50 -61 l 33 -31 l 25 -31 l 478 985 l 1021 985 z "},"i":{"ha":654,"x_min":25,"x_max":1042,"o":"m 142 31 l 526 31 l 910 893 l 525 893 l 142 31 m 951 943 l 538 11 l 83 11 l 497 943 l 951 943 m 89 -56 l 574 -56 l 1003 907 l 978 951 l 983 965 l 488 965 l 53 -11 l 67 -11 l 89 -56 m 1019 932 l 1026 918 l 1025 913 l 1042 882 l 601 -106 l 92 -106 l 75 -75 l 69 -75 l 61 -61 l 50 -61 l 33 -31 l 25 -31 l 478 985 l 1013 985 l 1008 976 l 1025 946 l 1019 932 z "},"j":{"ha":1324,"x_min":25,"x_max":1711,"o":"m 225 213 l 144 31 l 1125 31 l 1228 104 l 1579 893 l 1189 893 l 886 213 l 225 213 m 197 263 l 858 263 l 1161 943 l 1621 943 l 1243 93 l 1128 11 l 86 11 l 197 263 m 1289 46 l 1672 907 l 1647 951 l 1653 965 l 1149 965 l 844 282 l 183 282 l 53 -11 l 67 -11 l 92 -56 l 1144 -56 l 1289 46 m 33 -31 l 25 -31 l 174 301 l 835 301 l 1139 985 l 1682 985 l 1678 976 l 1694 946 l 1689 932 l 1696 918 l 1694 913 l 1711 882 l 1318 1 l 1167 -106 l 94 -106 l 78 -75 l 72 -75 l 64 -61 l 50 -61 l 33 -31 z "},"k":{"ha":1514,"x_min":25,"x_max":1901,"o":"m 789 585 l 781 585 l 918 893 l 528 893 l 144 31 l 535 31 l 724 456 l 1040 456 l 1099 338 l 1097 333 l 1114 301 l 993 31 l 1385 31 l 1564 435 l 1500 556 l 1675 681 l 1769 893 l 1376 893 l 1256 622 l 1119 554 l 807 554 l 789 585 m 1226 668 l 1349 943 l 1811 943 l 1690 669 l 1531 556 l 1589 446 l 1396 11 l 935 11 l 1075 326 l 1021 436 l 735 436 l 546 11 l 86 11 l 500 943 l 960 943 l 810 604 l 1099 604 l 1226 668 m 986 951 l 992 965 l 488 965 l 53 -11 l 67 -11 l 92 -56 l 582 -56 l 772 372 l 1031 372 l 1051 325 l 901 -11 l 915 -11 l 940 -56 l 1432 -56 l 1633 396 l 1608 440 l 1611 446 l 1576 508 l 1736 624 l 1863 907 l 1838 951 l 1843 965 l 1336 965 l 1210 679 l 1101 626 l 886 626 l 1011 907 l 986 951 m 1021 985 l 1017 976 l 1033 946 l 1028 932 l 1035 918 l 1033 913 l 1050 882 l 944 646 l 1096 646 l 1196 693 l 1326 985 l 1872 985 l 1868 976 l 1885 946 l 1879 932 l 1886 918 l 1885 913 l 1901 882 l 1767 579 l 1624 476 l 1635 457 l 1633 451 l 1657 407 l 1656 401 l 1672 371 l 1460 -106 l 943 -106 l 926 -75 l 921 -75 l 913 -61 l 899 -61 l 882 -31 l 874 -31 l 1028 314 l 1022 322 l 800 322 l 610 -106 l 94 -106 l 78 -75 l 72 -75 l 64 -61 l 50 -61 l 33 -31 l 25 -31 l 478 985 l 1021 985 z "},"l":{"ha":1326,"x_min":25,"x_max":1411,"o":"m 1381 301 l 792 301 l 1050 882 l 1033 913 l 1035 918 l 1028 932 l 1033 946 l 1017 976 l 1021 985 l 478 985 l 25 -31 l 33 -31 l 50 -61 l 64 -61 l 72 -75 l 78 -75 l 94 -106 l 1274 -106 l 1411 201 l 1393 232 l 1396 238 l 1389 251 l 1394 265 l 1376 293 l 1381 301 m 1372 226 l 1246 -56 l 92 -56 l 67 -11 l 53 -11 l 488 965 l 992 965 l 986 951 l 1011 907 l 732 282 l 1351 282 l 1347 271 l 1372 226 m 1210 11 l 1321 263 l 657 263 l 960 943 l 500 943 l 86 11 l 1210 11 m 654 213 l 1279 213 l 1199 31 l 144 31 l 528 893 l 918 893 l 629 243 l 638 243 l 654 213 z "},"m":{"ha":1767,"x_min":25,"x_max":2154,"o":"m 2125 985 l 1415 985 l 1225 796 l 1217 885 l 1201 907 l 1201 921 l 1196 931 l 1193 946 l 1182 965 l 1179 985 l 478 985 l 25 -31 l 33 -31 l 50 -61 l 64 -61 l 72 -75 l 78 -75 l 94 -106 l 613 -106 l 801 318 l 817 217 l 824 217 l 842 186 l 847 186 l 854 172 l 860 172 l 876 142 l 1136 142 l 1250 249 l 1125 -31 l 1133 -31 l 1150 -61 l 1164 -61 l 1172 -75 l 1178 -75 l 1194 -106 l 1714 -106 l 2154 882 l 2138 913 l 2139 918 l 2132 932 l 2138 946 l 2121 976 l 2125 985 m 2115 907 l 1686 -56 l 1192 -56 l 1167 -11 l 1153 -11 l 1339 407 l 1113 192 l 874 192 l 850 236 l 838 236 l 810 440 l 806 440 l 585 -56 l 92 -56 l 67 -11 l 53 -11 l 488 965 l 1156 965 l 1158 949 l 1156 949 l 1182 901 l 1199 747 l 1414 965 l 2096 965 l 2090 951 l 2115 907 m 1650 11 l 2064 943 l 1419 943 l 1161 682 l 1131 943 l 500 943 l 86 11 l 549 11 l 781 535 l 825 535 l 863 258 l 1083 258 l 1372 533 l 1418 533 l 1186 11 l 1650 11 m 1446 553 l 1367 553 l 1075 275 l 886 275 l 861 518 l 847 540 l 847 539 l 846 554 l 771 554 l 538 31 l 144 31 l 528 893 l 1114 893 l 1143 642 l 1147 647 l 1167 617 l 1438 893 l 2022 893 l 1639 31 l 1244 31 l 1460 514 l 1443 544 l 1446 553 z "},"n":{"ha":1514,"x_min":25,"x_max":1901,"o":"m 1051 232 l 1069 201 l 993 31 l 1386 31 l 1769 893 l 1376 893 l 1218 538 l 819 893 l 528 893 l 144 31 l 535 31 l 753 521 l 1054 238 l 1051 232 m 817 943 l 1197 601 l 1349 943 l 1811 943 l 1397 11 l 935 11 l 1029 225 l 754 482 l 546 11 l 86 11 l 500 943 l 817 943 m 92 -56 l 582 -56 l 786 401 l 997 203 l 901 -11 l 915 -11 l 940 -56 l 1433 -56 l 1863 907 l 1838 951 l 1843 965 l 1336 965 l 1193 643 l 833 965 l 488 965 l 53 -11 l 67 -11 l 92 -56 m 33 -31 l 25 -31 l 478 985 l 854 985 l 1190 681 l 1326 985 l 1872 985 l 1868 976 l 1885 946 l 1879 932 l 1886 918 l 1885 913 l 1901 882 l 1461 -106 l 943 -106 l 926 -75 l 921 -75 l 913 -61 l 899 -61 l 882 -31 l 874 -31 l 969 183 l 806 333 l 610 -106 l 94 -106 l 78 -75 l 72 -75 l 64 -61 l 50 -61 l 33 -31 z "},"o":{"ha":1514,"x_min":75,"x_max":1863,"o":"m 792 301 l 1022 301 l 1146 581 l 915 581 l 792 301 m 1188 631 l 1032 282 l 732 282 l 888 631 l 1188 631 m 657 263 l 1046 263 l 1239 694 l 850 694 l 657 263 m 638 243 l 629 243 l 839 714 l 1267 714 l 1263 706 l 1279 675 l 1074 213 l 654 213 l 638 243 m 496 819 l 163 72 l 185 31 l 1315 31 l 1418 104 l 1753 856 l 1731 893 l 601 893 l 496 819 m 165 11 l 122 93 l 465 864 l 579 943 l 1732 943 l 1778 867 l 1433 93 l 1318 11 l 165 11 m 1479 46 l 1822 818 l 1797 861 l 1800 867 l 1742 965 l 589 965 l 443 864 l 100 93 l 154 -11 l 160 -11 l 182 -56 l 1335 -56 l 1479 46 m 168 -75 l 163 -75 l 140 -31 l 135 -31 l 75 82 l 428 875 l 588 985 l 1763 985 l 1824 878 l 1822 872 l 1846 828 l 1844 822 l 1863 794 l 1508 1 l 1357 -106 l 185 -106 l 168 -75 z "},"p":{"ha":1494,"x_min":25,"x_max":1838,"o":"m 906 558 l 1042 558 l 1071 581 l 915 581 l 906 558 m 847 539 l 888 631 l 1171 631 l 1046 539 l 847 539 m 1192 629 l 1221 694 l 850 694 l 771 517 l 1039 517 l 1192 629 m 750 497 l 742 497 l 839 714 l 1249 714 l 1244 706 l 1261 675 l 1221 585 l 1061 467 l 768 467 l 750 497 m 1701 893 l 528 893 l 144 31 l 535 31 l 686 371 l 1421 371 l 1564 474 l 1728 842 l 1701 893 m 1424 351 l 697 351 l 546 11 l 86 11 l 500 943 l 1706 943 l 1751 853 l 1578 463 l 1424 351 m 1717 965 l 488 965 l 53 -11 l 67 -11 l 92 -56 l 582 -56 l 733 285 l 1442 285 l 1624 414 l 1799 807 l 1774 851 l 1775 854 l 1717 965 m 1799 865 l 1797 863 l 1822 818 l 1821 814 l 1838 782 l 1653 369 l 1465 238 l 763 238 l 610 -106 l 94 -106 l 78 -75 l 72 -75 l 64 -61 l 50 -61 l 33 -31 l 25 -31 l 478 985 l 1738 985 l 1799 865 z "},"q":{"ha":1514,"x_min":75,"x_max":1863,"o":"m 1144 576 l 1146 581 l 915 581 l 792 301 l 825 301 l 881 426 l 1144 576 m 732 282 l 888 631 l 1188 631 l 1158 564 l 894 414 l 835 282 l 732 282 m 850 694 l 657 263 l 849 263 l 913 407 l 1178 557 l 1239 694 l 850 694 m 638 243 l 629 243 l 839 714 l 1267 714 l 1263 706 l 1279 675 l 1207 511 l 943 361 l 876 213 l 654 213 l 638 243 m 496 819 l 163 72 l 185 31 l 1315 31 l 1418 104 l 1753 856 l 1731 893 l 601 893 l 496 819 m 122 93 l 465 864 l 579 943 l 1726 943 l 1731 946 l 1778 867 l 1436 99 l 1438 96 l 1318 11 l 165 11 l 122 93 m 182 -56 l 1335 -56 l 1479 46 l 1822 818 l 1797 861 l 1800 867 l 1742 965 l 589 965 l 443 864 l 100 93 l 154 -11 l 160 -11 l 182 -56 m 1846 828 l 1844 822 l 1863 794 l 1508 1 l 1357 -106 l 185 -106 l 168 -75 l 163 -75 l 140 -31 l 135 -31 l 75 82 l 428 875 l 588 985 l 1763 985 l 1824 878 l 1822 872 l 1846 828 z "},"r":{"ha":1514,"x_min":25,"x_max":1857,"o":"m 906 558 l 1060 558 l 1089 581 l 915 581 l 906 558 m 847 539 l 888 631 l 1189 631 l 1064 539 l 847 539 m 1210 629 l 1239 694 l 850 694 l 771 517 l 1057 517 l 1210 629 m 750 497 l 742 497 l 839 714 l 1267 714 l 1263 706 l 1279 675 l 1239 585 l 1079 467 l 768 467 l 750 497 m 1060 250 l 1076 218 l 993 31 l 1385 31 l 1529 356 l 1464 474 l 1639 600 l 1747 842 l 1721 893 l 528 893 l 144 31 l 535 31 l 686 371 l 1001 371 l 1061 254 l 1060 250 m 1657 596 l 1658 593 l 1494 474 l 1554 367 l 1396 11 l 935 11 l 1038 243 l 982 351 l 697 351 l 546 11 l 86 11 l 500 943 l 1725 943 l 1771 853 l 1657 596 m 1736 965 l 488 965 l 53 -11 l 67 -11 l 92 -56 l 582 -56 l 733 285 l 993 285 l 1015 243 l 901 -11 l 915 -11 l 940 -56 l 1432 -56 l 1599 317 l 1574 361 l 1576 367 l 1540 426 l 1700 542 l 1818 807 l 1793 851 l 1794 854 l 1736 965 m 1818 865 l 1817 863 l 1842 818 l 1840 814 l 1857 782 l 1729 497 l 1589 396 l 1600 378 l 1597 372 l 1622 328 l 1619 322 l 1636 292 l 1460 -106 l 943 -106 l 926 -75 l 921 -75 l 913 -61 l 899 -61 l 882 -31 l 874 -31 l 990 232 l 988 238 l 763 238 l 610 -106 l 94 -106 l 78 -75 l 72 -75 l 64 -61 l 50 -61 l 33 -31 l 25 -31 l 478 985 l 1757 985 l 1818 865 z "},"s":{"ha":1393,"x_min":25,"x_max":1781,"o":"m 496 819 l 333 456 l 356 414 l 1013 414 l 1008 406 l 1025 375 l 953 213 l 225 213 l 144 31 l 1194 31 l 1297 104 l 1460 469 l 1438 513 l 788 513 l 771 543 l 763 543 l 839 714 l 1569 714 l 1649 893 l 601 893 l 496 819 m 850 694 l 790 563 l 1442 563 l 1485 481 l 1313 93 l 1197 11 l 86 11 l 197 263 l 925 263 l 983 394 l 335 394 l 293 476 l 465 864 l 579 943 l 1690 943 l 1581 694 l 850 694 m 326 375 l 332 375 l 354 331 l 936 331 l 914 282 l 183 282 l 53 -11 l 67 -11 l 92 -56 l 1214 -56 l 1358 46 l 1529 431 l 1506 476 l 1507 481 l 1451 585 l 867 585 l 888 631 l 1618 631 l 1742 907 l 1717 951 l 1722 965 l 589 965 l 443 864 l 271 476 l 326 375 m 246 465 l 428 875 l 588 985 l 1751 985 l 1747 976 l 1764 946 l 1758 932 l 1765 918 l 1764 913 l 1781 882 l 1646 581 l 1483 581 l 1532 492 l 1529 488 l 1554 442 l 1551 436 l 1568 406 l 1388 1 l 1236 -106 l 94 -106 l 78 -75 l 72 -75 l 64 -61 l 50 -61 l 33 -31 l 25 -31 l 174 301 l 346 301 l 340 311 l 335 311 l 313 356 l 307 356 l 246 465 z "},"t":{"ha":1450,"x_min":329,"x_max":1838,"o":"m 378 611 l 381 611 l 400 581 l 689 581 l 417 -31 l 425 -31 l 442 -61 l 456 -61 l 464 -75 l 469 -75 l 486 -106 l 1004 -106 l 1310 581 l 1703 581 l 1838 882 l 1821 913 l 1822 918 l 1815 932 l 1821 946 l 1804 976 l 1808 985 l 478 985 l 329 653 l 338 653 l 354 622 l 369 622 l 378 611 m 1799 907 l 1675 631 l 1282 631 l 976 -56 l 483 -56 l 458 -11 l 444 -11 l 731 631 l 397 631 l 369 675 l 365 672 l 357 672 l 488 965 l 1779 965 l 1774 951 l 1799 907 m 940 11 l 1244 694 l 1638 694 l 1747 943 l 500 943 l 390 694 l 782 694 l 478 11 l 940 11 m 810 714 l 449 714 l 528 893 l 1706 893 l 1626 714 l 1233 714 l 929 31 l 536 31 l 822 675 l 806 706 l 810 714 z "},"u":{"ha":1514,"x_min":75,"x_max":1901,"o":"m 638 243 l 629 243 l 918 893 l 528 893 l 163 72 l 185 31 l 1315 31 l 1418 104 l 1769 893 l 1376 893 l 1074 213 l 654 213 l 638 243 m 122 93 l 500 943 l 960 943 l 657 263 l 1046 263 l 1349 943 l 1811 943 l 1436 99 l 1438 96 l 1318 11 l 165 11 l 122 93 m 986 951 l 992 965 l 488 965 l 100 93 l 154 -11 l 160 -11 l 182 -56 l 1335 -56 l 1479 46 l 1863 907 l 1838 951 l 1843 965 l 1336 965 l 1032 282 l 732 282 l 1011 907 l 986 951 m 1017 976 l 1033 946 l 1028 932 l 1035 918 l 1033 913 l 1050 882 l 792 301 l 1022 301 l 1326 985 l 1872 985 l 1868 976 l 1885 946 l 1879 932 l 1886 918 l 1885 913 l 1901 882 l 1508 1 l 1357 -106 l 185 -106 l 168 -75 l 163 -75 l 140 -31 l 135 -31 l 75 82 l 478 985 l 1021 985 l 1017 976 z "},"v":{"ha":1428,"x_min":211,"x_max":1815,"o":"m 767 553 l 918 893 l 528 893 l 294 367 l 297 31 l 1125 31 l 1465 403 l 1683 893 l 1290 893 l 1125 519 l 863 213 l 782 213 l 765 243 l 758 243 l 767 553 m 1263 943 l 1725 943 l 1483 400 l 1131 11 l 264 11 l 258 400 l 500 943 l 960 943 l 788 556 l 778 263 l 839 263 l 1090 556 l 1263 943 m 986 951 l 992 965 l 488 965 l 232 390 l 236 -11 l 251 -11 l 276 -56 l 1160 -56 l 1526 346 l 1776 907 l 1751 951 l 1757 965 l 1253 965 l 1074 563 l 829 281 l 835 513 l 1011 907 l 986 951 m 1021 985 l 1017 976 l 1033 946 l 1028 932 l 1035 918 l 1033 913 l 1050 882 l 869 478 l 865 346 l 1056 564 l 1243 985 l 1786 985 l 1782 976 l 1799 946 l 1793 932 l 1800 918 l 1799 913 l 1815 882 l 1560 310 l 1183 -106 l 279 -106 l 263 -75 l 257 -75 l 249 -61 l 240 -61 l 224 -31 l 217 -31 l 211 388 l 478 985 l 1021 985 z "},"w":{"ha":1989,"x_min":211,"x_max":2376,"o":"m 769 553 l 921 893 l 528 893 l 293 365 l 290 31 l 899 31 l 1072 222 l 1071 200 l 1088 176 l 1086 31 l 1690 31 l 2026 403 l 2244 893 l 1851 893 l 1686 519 l 1394 183 l 1376 214 l 1369 207 l 1381 553 l 1490 800 l 1199 800 l 1075 519 l 786 183 l 768 214 l 761 207 l 769 553 m 1824 943 l 2286 943 l 2044 400 l 1696 11 l 1053 11 l 1053 178 l 904 11 l 257 11 l 258 400 l 500 943 l 963 943 l 790 556 l 782 254 l 1040 556 l 1171 847 l 1532 847 l 1401 556 l 1390 254 l 1651 556 l 1824 943 m 1557 856 l 1564 869 l 1158 869 l 1021 563 l 833 344 l 838 513 l 1014 907 l 989 951 l 994 965 l 488 965 l 232 390 l 232 -11 l 244 -11 l 269 -56 l 936 -56 l 1026 46 l 1025 -11 l 1040 -11 l 1065 -56 l 1728 -56 l 2088 346 l 2338 907 l 2313 951 l 2318 965 l 1811 965 l 1632 563 l 1442 344 l 1446 513 l 1581 814 l 1557 856 m 1592 889 l 1588 881 l 1604 850 l 1597 833 l 1604 822 l 1601 818 l 1619 789 l 1481 478 l 1478 408 l 1614 564 l 1801 985 l 2347 985 l 2343 976 l 2360 946 l 2354 932 l 2361 918 l 2360 913 l 2376 882 l 2121 310 l 1751 -106 l 1068 -106 l 1051 -75 l 1046 -75 l 1038 -61 l 1029 -61 l 1017 -37 l 960 -106 l 272 -106 l 256 -75 l 250 -75 l 242 -61 l 236 -61 l 219 -31 l 213 -31 l 211 388 l 478 985 l 1024 985 l 1019 976 l 1036 946 l 1031 932 l 1038 918 l 1036 913 l 1053 882 l 872 478 l 869 410 l 1003 564 l 1147 889 l 1592 889 z "},"x":{"ha":1514,"x_min":26,"x_max":1901,"o":"m 1097 335 l 1114 303 l 993 31 l 1385 31 l 1565 436 l 1501 557 l 1676 682 l 1769 893 l 1376 893 l 1278 671 l 1118 556 l 918 556 l 901 586 l 896 586 l 835 704 l 918 893 l 528 893 l 418 647 l 465 557 l 463 556 l 478 522 l 311 403 l 146 31 l 535 31 l 672 339 l 838 457 l 1040 457 l 1100 339 l 1097 335 m 1811 943 l 1690 671 l 1532 557 l 1589 447 l 1396 11 l 935 11 l 1075 328 l 1021 438 l 840 438 l 686 328 l 546 11 l 88 11 l 281 447 l 435 557 l 379 671 l 500 943 l 960 943 l 858 715 l 915 606 l 1096 606 l 1247 715 l 1349 943 l 1811 943 m 986 951 l 992 965 l 488 965 l 357 669 l 413 556 l 258 447 l 54 -11 l 68 -11 l 93 -56 l 582 -56 l 731 279 l 861 374 l 1032 374 l 1053 326 l 901 -11 l 915 -11 l 940 -56 l 1432 -56 l 1633 397 l 1610 442 l 1611 447 l 1576 510 l 1736 625 l 1863 907 l 1838 951 l 1843 965 l 1336 965 l 1225 715 l 1103 628 l 926 628 l 904 668 l 1011 907 l 986 951 m 1021 985 l 1017 976 l 1033 946 l 1028 932 l 1035 918 l 1033 913 l 1050 882 l 946 649 l 946 647 l 1100 647 l 1211 726 l 1326 985 l 1872 985 l 1868 976 l 1885 946 l 1879 932 l 1886 918 l 1885 913 l 1901 882 l 1767 581 l 1624 478 l 1636 458 l 1633 453 l 1658 408 l 1656 403 l 1672 372 l 1460 -106 l 943 -106 l 926 -75 l 921 -75 l 913 -61 l 899 -61 l 882 -31 l 874 -31 l 1028 315 l 1024 324 l 883 324 l 763 238 l 610 -106 l 96 -106 l 79 -75 l 74 -75 l 65 -61 l 51 -61 l 35 -31 l 26 -31 l 244 458 l 382 556 l 332 658 l 478 985 l 1021 985 z "},"y":{"ha":1514,"x_min":26,"x_max":1901,"o":"m 1129 407 l 1147 376 l 1074 213 l 226 213 l 146 31 l 1315 31 l 1418 104 l 1769 893 l 1376 893 l 1226 554 l 807 554 l 789 585 l 781 585 l 918 893 l 528 893 l 333 457 l 356 415 l 1133 415 l 1129 407 m 199 263 l 1046 263 l 1106 396 l 336 396 l 293 478 l 500 943 l 960 943 l 810 604 l 1199 604 l 1349 943 l 1811 943 l 1436 99 l 1438 96 l 1318 11 l 88 11 l 199 263 m 986 951 l 992 965 l 488 965 l 271 478 l 328 376 l 333 376 l 354 332 l 1054 332 l 1032 282 l 185 282 l 54 -11 l 68 -11 l 93 -56 l 1335 -56 l 1479 46 l 1863 907 l 1838 951 l 1843 965 l 1336 965 l 1186 626 l 886 626 l 1011 907 l 986 951 m 1017 976 l 1033 946 l 1028 932 l 1035 918 l 1033 913 l 1050 882 l 944 646 l 1175 646 l 1326 985 l 1872 985 l 1868 976 l 1885 946 l 1879 932 l 1886 918 l 1885 913 l 1901 882 l 1508 1 l 1357 -106 l 96 -106 l 79 -75 l 74 -75 l 65 -61 l 51 -61 l 35 -31 l 26 -31 l 175 301 l 347 301 l 340 313 l 335 313 l 313 357 l 307 357 l 247 467 l 478 985 l 1021 985 l 1017 976 z "},"z":{"ha":1388,"x_min":25,"x_max":1775,"o":"m 1746 985 l 478 985 l 329 653 l 338 653 l 354 622 l 369 622 l 378 611 l 381 611 l 400 581 l 701 581 l 161 275 l 25 -31 l 33 -31 l 50 -61 l 64 -61 l 72 -75 l 78 -75 l 94 -106 l 1335 -106 l 1472 201 l 1454 232 l 1457 238 l 1450 251 l 1456 265 l 1438 293 l 1442 301 l 1111 301 l 1649 600 l 1775 882 l 1758 913 l 1760 918 l 1753 932 l 1758 946 l 1742 976 l 1746 985 m 1736 907 l 1619 646 l 964 282 l 1413 282 l 1408 271 l 1433 226 l 1307 -56 l 92 -56 l 67 -11 l 53 -11 l 176 265 l 829 631 l 397 631 l 369 675 l 365 672 l 357 672 l 488 965 l 1717 965 l 1711 951 l 1736 907 m 86 11 l 1271 11 l 1382 263 l 788 263 l 1576 699 l 1685 943 l 500 943 l 390 694 l 982 694 l 194 256 l 86 11 m 1056 714 l 449 714 l 528 893 l 1643 893 l 1563 711 l 717 243 l 742 243 l 758 213 l 1340 213 l 1260 31 l 144 31 l 224 210 l 1053 672 l 1036 704 l 1056 714 z "},"{":{"ha":896,"x_min":75,"x_max":1283,"o":"m 836 714 l 1072 714 l 1151 893 l 599 893 l 496 819 l 161 69 l 182 31 l 768 31 l 849 213 l 651 213 l 635 243 l 626 243 l 836 714 m 122 93 l 465 864 l 576 943 l 1193 943 l 1083 694 l 847 694 l 654 263 l 890 263 l 779 11 l 163 11 l 122 93 m 885 631 l 1121 631 l 1244 907 l 1219 951 l 1225 965 l 586 965 l 443 864 l 100 93 l 151 -11 l 157 -11 l 182 -56 l 815 -56 l 942 226 l 917 271 l 921 282 l 729 282 l 885 631 m 1267 913 l 1283 882 l 1149 581 l 910 581 l 786 301 l 950 301 l 946 293 l 964 265 l 958 251 l 965 238 l 963 232 l 981 201 l 843 -106 l 182 -106 l 168 -75 l 163 -75 l 138 -31 l 132 -31 l 75 82 l 428 875 l 585 985 l 1254 985 l 1250 976 l 1267 946 l 1261 932 l 1268 918 l 1267 913 z "},"|":{"ha":654,"x_min":-12,"x_max":1079,"o":"m 103 -56 l 488 -56 l 949 979 l 564 979 l 103 -56 m 990 1029 l 499 -75 l 44 -75 l 536 1029 l 990 1029 m 51 -142 l 536 -142 l 1040 993 l 1017 1038 l 1021 1049 l 525 1049 l 15 -97 l 29 -97 l 51 -142 m -4 -117 l -12 -117 l 514 1068 l 1049 1068 l 1046 1060 l 1063 1029 l 1057 1018 l 1065 1004 l 1063 999 l 1079 968 l 564 -192 l 54 -192 l 36 -161 l 31 -161 l 24 -147 l 13 -147 l -4 -117 z "},"}":{"ha":896,"x_min":25,"x_max":1243,"o":"m 375 611 l 381 611 l 397 581 l 533 581 l 410 301 l 174 301 l 25 -31 l 33 -31 l 50 -61 l 61 -61 l 69 -75 l 75 -75 l 92 -106 l 739 -106 l 890 1 l 1243 792 l 1225 819 l 1226 825 l 1203 871 l 1204 875 l 1144 985 l 478 985 l 329 653 l 338 653 l 354 622 l 368 622 l 375 611 m 1181 864 l 1179 860 l 1204 817 l 861 46 l 717 -56 l 89 -56 l 67 -11 l 53 -11 l 183 282 l 419 282 l 575 631 l 394 631 l 371 672 l 357 672 l 488 965 l 1124 965 l 1181 864 m 86 11 l 700 11 l 815 93 l 1158 864 l 1114 943 l 500 943 l 390 694 l 624 694 l 431 263 l 197 263 l 86 11 m 458 213 l 664 675 l 647 706 l 651 714 l 449 714 l 528 893 l 1111 893 l 1133 853 l 800 104 l 697 31 l 144 31 l 225 213 l 458 213 z "},"~":{"ha":1044,"x_min":164,"x_max":1283,"o":"m 1283 583 l 1264 613 l 1276 622 l 921 622 l 867 572 l 865 588 l 854 606 l 850 622 l 447 622 l 164 349 l 179 349 l 196 318 l 225 318 l 233 306 l 238 306 l 256 275 l 556 275 l 604 322 l 608 318 l 614 318 l 622 306 l 626 306 l 644 275 l 1029 275 l 1283 518 l 1265 549 l 1269 553 l 1263 564 l 1283 583 m 532 325 l 253 325 l 228 368 l 208 368 l 454 604 l 829 604 l 832 589 l 829 589 l 853 544 l 851 533 l 928 604 l 1225 604 l 1214 594 l 1239 549 l 1006 325 l 642 325 l 617 368 l 607 368 l 603 392 l 532 325 m 979 390 l 1179 585 l 929 585 l 821 479 l 806 585 l 454 585 l 254 390 l 504 390 l 610 488 l 628 390 l 979 390 m 497 410 l 347 410 l 478 535 l 786 535 l 803 439 l 807 444 l 828 417 l 953 535 l 1103 535 l 972 410 l 658 410 l 646 483 l 632 506 l 632 504 l 629 531 l 497 410 z "},"":{"ha":299,"x_min":0,"x_max":0,"o":""},"€":{"ha":1596,"x_min":172,"x_max":1983,"o":"m 1071 714 l 1772 714 l 1851 893 l 828 893 l 725 819 l 607 556 l 378 556 l 368 532 l 567 532 l 563 524 l 579 493 l 529 382 l 300 382 l 292 361 l 490 361 l 486 353 l 503 322 l 392 72 l 411 31 l 1468 31 l 1549 213 l 886 213 l 869 243 l 861 243 l 914 361 l 1379 361 l 1388 382 l 961 382 l 944 413 l 936 413 l 990 532 l 1456 532 l 1465 556 l 1039 556 l 1022 586 l 1014 586 l 1071 714 m 350 606 l 579 606 l 694 864 l 807 943 l 1893 943 l 1783 694 l 1082 694 l 1042 606 l 1507 606 l 1465 513 l 1000 513 l 964 432 l 1429 432 l 1390 342 l 925 342 l 889 263 l 1590 263 l 1479 11 l 393 11 l 351 93 l 463 342 l 233 342 l 272 432 l 501 432 l 538 513 l 308 513 l 350 606 m 338 628 l 276 490 l 290 490 l 311 454 l 261 454 l 200 319 l 214 319 l 239 275 l 410 275 l 329 93 l 382 -11 l 386 -11 l 411 -56 l 1515 -56 l 1642 226 l 1617 271 l 1621 282 l 1426 282 l 1478 396 l 1453 446 l 1500 446 l 1556 569 l 1533 614 l 1540 631 l 1821 631 l 1944 907 l 1919 951 l 1925 965 l 817 965 l 672 864 l 567 628 l 338 628 m 326 647 l 556 647 l 657 875 l 817 985 l 1954 985 l 1950 976 l 1967 946 l 1961 932 l 1968 918 l 1967 913 l 1983 882 l 1849 581 l 1579 581 l 1578 576 l 1594 544 l 1528 396 l 1504 396 l 1517 371 l 1486 301 l 1650 301 l 1646 293 l 1664 265 l 1658 251 l 1665 238 l 1663 232 l 1681 201 l 1543 -106 l 414 -106 l 397 -75 l 392 -75 l 369 -31 l 364 -31 l 304 82 l 369 228 l 243 228 l 226 258 l 221 258 l 213 272 l 199 272 l 181 300 l 172 300 l 326 647 z "},"‚":{"ha":585,"x_min":-29,"x_max":697,"o":"m 463 44 l 567 278 l 251 278 l 86 -94 l 221 -94 l 463 44 m 26 -114 l 224 328 l 608 328 l 476 32 l 221 -114 l 26 -114 m 519 -22 l 658 292 l 633 333 l 639 347 l 213 347 l -3 -136 l 8 -136 l 35 -178 l 242 -178 l 519 -22 m 21 -197 l 15 -197 l 7 -183 l -4 -183 l -21 -153 l -29 -153 l 203 367 l 668 367 l 664 358 l 681 328 l 675 315 l 683 303 l 681 297 l 697 267 l 549 -68 l 264 -228 l 35 -228 l 21 -197 z "},"ƒ":{"ha":1606,"x_min":154,"x_max":1764,"o":"m 794 -103 l 838 -118 l 1047 -33 l 1086 -82 l 1161 -72 l 1285 17 q 1322 -3 1304 3 q 1371 -8 1339 -8 q 1451 28 1425 -8 l 1496 108 l 1563 94 q 1651 165 1632 122 l 1658 182 l 1660 200 l 1650 221 l 1688 221 l 1725 260 l 1744 264 q 1750 321 1760 303 l 1739 340 q 1735 358 1738 347 l 1725 372 q 1739 388 1732 379 q 1751 410 1746 396 l 1764 438 l 1747 468 l 1750 474 l 1742 486 l 1744 493 l 1728 524 l 1731 531 l 1631 557 l 1629 563 l 1632 567 l 1625 578 l 1626 581 l 1610 611 l 1613 617 l 1586 657 l 1421 657 l 1429 669 l 1410 700 l 1415 708 l 1304 718 l 1143 689 l 1142 690 l 1146 696 l 1103 754 l 886 671 l 828 724 q 735 682 778 704 q 643 619 692 660 l 575 649 l 557 649 q 485 616 521 649 q 417 524 449 583 l 311 535 l 256 428 l 263 400 l 179 392 l 154 286 l 163 283 l 179 256 l 190 253 l 192 251 l 181 246 q 169 214 169 224 q 178 160 157 172 l 193 138 l 197 131 q 210 118 199 124 l 222 97 q 254 81 231 81 l 261 78 l 258 71 l 265 68 l 283 40 l 296 38 l 304 25 l 308 25 l 326 -6 l 507 -22 l 515 -35 l 522 -39 l 536 -65 l 569 -89 l 765 -61 l 771 -72 l 778 -74 l 794 -103 m 1717 444 q 1704 426 1714 436 q 1682 406 1694 417 q 1693 379 1689 392 q 1693 376 1690 376 q 1694 374 1690 374 l 1713 343 q 1715 311 1719 325 l 1704 310 l 1667 271 l 1603 271 l 1624 221 l 1624 214 l 1617 200 q 1550 144 1603 167 l 1471 161 l 1418 67 q 1358 42 1397 42 q 1315 49 1331 42 q 1278 72 1299 56 l 1271 72 l 1138 -22 l 1081 -32 l 1042 17 l 826 -67 l 793 -54 l 768 -11 l 563 -39 l 538 -19 l 508 26 l 507 21 l 499 28 l 322 44 l 324 44 l 299 86 l 285 89 l 299 118 l 243 131 q 219 142 225 131 l 224 142 l 206 175 q 194 235 174 185 l 225 251 l 222 253 l 197 299 l 181 304 l 194 375 l 294 388 l 279 438 l 321 514 l 426 504 q 487 597 456 564 q 549 629 518 629 l 563 629 l 643 599 q 734 665 697 643 q 810 701 771 686 l 872 653 l 1085 729 l 1119 685 l 1115 678 l 1121 668 l 1297 699 l 1386 690 l 1379 676 l 1403 640 l 1567 640 l 1588 606 l 1585 600 l 1607 556 l 1601 543 l 1704 514 l 1700 504 l 1725 463 l 1717 444 m 1633 335 l 1676 379 q 1647 403 1674 389 q 1575 438 1621 417 l 1581 446 q 1672 493 1656 454 l 1676 501 l 1504 549 l 1507 554 q 1565 604 1543 557 l 1556 618 l 1322 618 l 1353 669 l 1290 676 l 1078 643 l 1078 653 l 1094 679 l 1072 703 l 863 625 l 797 674 q 762 658 779 667 q 725 637 744 649 q 683 609 706 625 q 635 571 661 593 l 542 607 l 539 607 q 438 482 493 607 l 331 493 l 304 443 l 329 374 l 213 357 l 206 318 l 296 275 l 214 226 q 226 197 200 197 l 368 167 l 331 139 l 315 107 l 557 89 l 526 44 l 549 28 l 806 63 l 782 8 l 806 3 l 1025 89 l 1067 36 l 1121 44 l 1258 139 l 1271 136 q 1305 113 1290 121 q 1339 106 1319 106 q 1382 126 1365 106 l 1440 231 l 1526 213 q 1571 246 1558 219 l 1572 250 l 1574 268 l 1547 335 l 1633 335 m 1511 347 q 1544 283 1536 311 q 1549 242 1553 254 q 1546 239 1546 240 q 1544 238 1546 239 q 1540 232 1544 233 l 1422 249 l 1357 124 l 1246 163 l 1100 57 l 1036 107 l 793 17 l 826 60 l 815 92 l 547 49 l 603 110 l 339 119 l 440 169 l 225 218 l 353 265 l 231 339 l 235 346 l 358 353 l 328 431 l 340 472 l 457 461 l 533 589 q 614 549 575 549 q 625 550 618 549 q 640 554 632 551 l 638 550 l 788 654 l 840 604 l 1051 682 l 1071 675 l 1054 624 l 1322 656 l 1279 596 l 1542 596 l 1440 542 l 1639 499 l 1638 499 l 1640 475 l 1626 475 l 1526 449 l 1644 379 l 1642 357 l 1511 347 m 1489 463 l 1492 468 l 1428 482 l 1404 521 l 1378 529 l 1278 529 l 1253 574 l 1239 574 l 1240 575 l 1063 556 l 1036 600 l 1029 600 l 856 533 l 806 589 l 654 486 q 631 485 651 485 q 557 506 592 485 l 519 442 l 561 447 l 554 433 l 565 411 q 704 450 617 439 l 697 436 l 708 417 q 733 434 724 428 q 750 444 743 440 l 778 444 q 832 415 810 444 l 851 460 l 910 356 l 957 450 l 1014 433 l 1010 425 l 1011 411 l 1032 443 l 1110 456 l 1101 440 l 1119 410 q 1133 422 1126 415 q 1156 440 1140 428 q 1176 453 1167 450 q 1199 456 1185 456 q 1236 408 1224 456 l 1263 469 l 1314 363 l 1361 456 l 1421 442 l 1414 428 l 1418 421 l 1435 456 l 1464 447 l 1469 451 l 1463 456 l 1489 463 m 854 61 l 1049 135 l 1113 83 l 1258 190 l 1350 157 l 1367 188 l 1353 211 l 1349 208 l 1350 208 q 1315 220 1331 210 q 1289 256 1299 231 l 1285 263 l 1263 211 l 1204 206 l 1203 207 l 1161 214 l 1140 249 q 1118 237 1131 246 q 1090 214 1106 228 l 1035 214 l 1032 218 l 963 203 l 958 210 l 956 201 q 874 254 906 201 l 853 206 l 793 196 l 774 221 q 745 207 758 213 q 721 201 732 201 q 714 200 717 201 l 713 200 q 690 199 708 199 q 639 219 656 199 l 628 238 l 613 196 q 609 195 610 196 q 607 194 608 194 q 601 193 604 193 q 581 189 588 192 q 578 188 579 189 q 576 188 578 188 l 576 186 l 558 186 q 535 189 546 186 q 518 203 525 192 l 521 203 l 501 236 l 489 211 l 440 199 l 439 196 l 501 179 l 486 171 l 506 135 l 647 131 l 636 115 l 656 88 l 831 113 l 850 74 l 847 74 l 854 61 m 1207 475 q 1174 471 1185 475 q 1147 456 1163 467 l 1143 453 l 1135 468 l 1140 478 l 1022 461 l 1018 456 l 951 476 l 913 403 l 868 483 l 1035 544 l 1043 536 l 1046 536 l 1065 506 l 1233 524 l 1250 524 l 1257 510 l 1261 510 l 1240 461 q 1226 472 1233 468 q 1207 475 1218 475 m 810 372 q 768 422 819 422 l 747 422 q 625 285 669 382 q 672 263 629 263 q 693 264 688 263 l 701 264 l 703 265 q 810 372 749 265 m 703 149 q 718 149 711 149 q 728 150 725 149 l 736 150 l 739 151 q 783 164 758 151 l 796 144 l 881 157 l 893 183 q 931 158 907 165 q 983 151 956 151 l 983 154 l 1035 167 l 1038 164 l 1114 164 q 1119 172 1118 171 q 1125 176 1121 174 l 1142 193 l 1144 196 l 1146 194 l 1164 165 l 1186 158 l 1122 113 l 1068 160 l 872 83 l 851 133 l 694 110 l 676 139 l 685 149 l 703 149 m 1118 313 q 1147 275 1144 313 l 1164 274 l 1211 382 q 1189 433 1217 433 q 1167 431 1169 433 q 1088 353 1122 392 q 1029 278 1053 314 l 1061 278 q 1118 313 1100 313 m 1326 274 l 1392 422 l 1369 426 l 1315 317 l 1264 422 l 1197 271 l 1222 272 l 1258 351 q 1324 272 1279 276 l 1326 274 m 917 267 l 983 415 l 964 419 l 911 314 l 854 415 l 786 263 l 813 265 l 847 343 q 915 265 878 269 l 917 267 m 771 349 q 756 320 763 329 q 736 299 750 311 q 686 288 708 288 q 675 326 658 288 l 681 340 q 754 390 722 390 q 778 368 769 390 l 775 363 q 775 358 774 360 l 771 349 m 639 399 q 649 390 643 399 l 650 393 l 651 390 l 671 426 q 568 395 608 417 q 513 338 528 374 l 508 326 q 506 314 506 321 q 511 257 496 278 l 518 265 l 519 265 l 514 256 q 538 250 519 250 q 550 251 546 250 l 556 251 l 556 253 q 572 257 557 254 l 581 276 q 549 275 575 275 q 526 307 514 275 q 549 343 535 326 q 579 375 563 360 q 639 399 618 399 m 408 294 l 465 394 l 378 404 l 369 388 l 408 294 m 849 496 l 829 451 q 788 464 808 464 l 750 464 l 742 458 l 743 458 q 738 456 735 456 l 735 456 l 729 463 l 736 474 q 729 471 732 471 q 725 469 728 471 l 814 529 l 849 496 m 997 278 l 1074 426 l 1043 422 l 958 271 l 997 278 m 449 272 l 525 419 l 501 418 l 415 265 l 449 272 m 1410 310 l 1476 422 l 1444 426 l 1388 313 l 1410 310 m 1525 257 q 1515 293 1522 274 q 1496 335 1507 313 l 1457 265 l 1525 257 m 1388 479 l 1403 474 l 1408 467 l 1411 464 l 1353 478 l 1319 411 l 1288 479 l 1388 479 m 1171 407 l 1168 343 l 1106 343 l 1171 407 m 1388 257 l 1367 265 l 1344 253 l 1356 235 l 1388 257 m 1518 369 l 1546 371 l 1547 374 l 1528 385 l 1518 369 m 679 150 l 643 151 l 647 165 q 660 156 651 158 q 679 150 668 153 m 406 289 l 383 288 l 381 282 l 397 275 l 406 289 m 1579 218 l 1581 221 l 1582 221 l 1583 225 l 1579 225 l 1579 224 l 1575 224 l 1579 218 m 413 349 l 419 349 l 415 343 l 413 349 z "},"„":{"ha":1072,"x_min":-29,"x_max":1185,"o":"m 471 44 l 575 278 l 254 278 l 89 -94 l 224 -94 l 471 44 m 950 44 l 1054 278 l 733 278 l 568 -94 l 706 -94 l 950 44 m 29 -114 l 226 328 l 617 328 l 485 32 l 224 -114 l 29 -114 m 508 -114 l 706 328 l 1096 328 l 964 32 l 706 -114 l 508 -114 m 526 -24 l 476 -136 l 490 -136 l 517 -178 l 726 -178 l 1007 -22 l 1146 292 l 1121 333 l 1126 347 l 692 347 l 667 292 l 642 333 l 647 347 l 213 347 l -3 -136 l 11 -136 l 38 -178 l 247 -178 l 526 -24 m 24 -197 l 18 -197 l 10 -183 l -4 -183 l -21 -153 l -29 -153 l 203 367 l 676 367 l 672 358 l 675 353 l 682 367 l 1156 367 l 1151 358 l 1168 328 l 1163 315 l 1171 303 l 1168 297 l 1185 267 l 1036 -68 l 749 -228 l 519 -228 l 503 -197 l 497 -197 l 489 -183 l 475 -183 l 458 -153 l 450 -153 l 465 -118 l 269 -228 l 40 -228 l 24 -197 z "},"…":{"ha":1601,"x_min":25,"x_max":1714,"o":"m 1181 364 l 704 364 l 689 332 l 674 356 l 678 364 l 201 364 l 25 -31 l 33 -31 l 50 -61 l 65 -61 l 74 -72 l 76 -72 l 96 -103 l 544 -103 l 563 -61 l 565 -61 l 574 -72 l 576 -72 l 596 -103 l 1047 -103 l 1065 -61 l 1071 -61 l 1079 -72 l 1082 -72 l 1101 -103 l 1550 -103 l 1714 264 l 1696 294 l 1699 300 l 1692 314 l 1697 328 l 1679 356 l 1683 364 l 1207 364 l 1192 332 l 1176 356 l 1181 364 m 669 289 l 517 -53 l 93 -53 l 65 -8 l 61 -11 l 53 -11 l 213 347 l 650 347 l 644 333 l 669 289 m 1675 289 l 1522 -53 l 1099 -53 l 1071 -8 l 1067 -11 l 1058 -11 l 1218 347 l 1656 347 l 1650 333 l 1675 289 m 1172 289 l 1019 -53 l 593 -53 l 565 -8 l 561 -11 l 556 -11 l 715 347 l 1153 347 l 1147 333 l 1172 289 m 982 11 l 1121 325 l 725 325 l 586 11 l 982 11 m 479 11 l 618 325 l 225 325 l 86 11 l 479 11 m 1485 11 l 1624 325 l 1231 325 l 1092 11 l 1485 11 m 753 275 l 1079 275 l 971 31 l 644 31 l 753 275 m 253 275 l 576 275 l 468 31 l 144 31 l 253 275 m 1258 275 l 1582 275 l 1474 31 l 1150 31 l 1258 275 z "},"†":{"ha":915,"x_min":153,"x_max":1208,"o":"m 269 31 l 663 31 l 910 588 l 1035 588 l 1078 683 l 989 683 l 972 714 l 967 714 l 1046 893 l 653 893 l 560 683 l 435 683 l 392 588 l 486 588 l 483 579 l 500 549 l 269 31 m 407 733 l 535 733 l 628 943 l 1085 943 l 992 733 l 1119 733 l 1046 568 l 918 568 l 671 11 l 214 11 l 461 568 l 333 568 l 407 733 m 394 756 l 301 546 l 315 546 l 338 501 l 410 501 l 181 -11 l 194 -11 l 217 -56 l 704 -56 l 953 501 l 1083 501 l 1171 697 l 1146 742 l 1151 756 l 1065 756 l 1133 907 l 1111 951 l 1117 965 l 615 965 l 522 756 l 394 756 m 383 775 l 511 775 l 606 985 l 1146 985 l 1142 976 l 1158 946 l 1151 929 l 1157 918 l 1156 914 l 1172 882 l 1124 775 l 1179 775 l 1176 767 l 1193 736 l 1188 722 l 1194 708 l 1192 703 l 1208 672 l 1111 451 l 981 451 l 732 -106 l 219 -106 l 203 -75 l 197 -75 l 190 -61 l 178 -61 l 161 -31 l 153 -31 l 368 451 l 340 451 l 322 482 l 317 482 l 310 496 l 299 496 l 282 526 l 274 526 l 383 775 z "},"‡":{"ha":915,"x_min":146,"x_max":1208,"o":"m 910 588 l 1035 588 l 1078 683 l 989 683 l 972 714 l 967 714 l 1046 893 l 653 893 l 560 683 l 435 683 l 392 588 l 486 588 l 483 579 l 500 549 l 431 394 l 306 394 l 264 299 l 358 299 l 354 290 l 372 263 l 269 31 l 663 31 l 782 299 l 907 299 l 949 394 l 860 394 l 843 425 l 838 425 l 910 588 m 407 733 l 535 733 l 628 943 l 1085 943 l 992 733 l 1119 733 l 1046 568 l 918 568 l 863 444 l 990 444 l 917 279 l 789 279 l 671 11 l 214 11 l 332 279 l 204 279 l 278 444 l 406 444 l 461 568 l 333 568 l 407 733 m 394 756 l 301 546 l 315 546 l 338 501 l 410 501 l 394 467 l 267 467 l 174 260 l 188 260 l 210 215 l 282 215 l 181 -11 l 194 -11 l 217 -56 l 704 -56 l 825 215 l 956 215 l 1042 408 l 1017 453 l 1024 467 l 938 467 l 953 501 l 1083 501 l 1171 697 l 1146 742 l 1151 756 l 1065 756 l 1133 907 l 1111 951 l 1117 965 l 615 965 l 522 756 l 394 756 m 383 775 l 511 775 l 606 985 l 1146 985 l 1142 976 l 1158 946 l 1151 929 l 1157 918 l 1156 914 l 1172 882 l 1124 775 l 1179 775 l 1176 767 l 1193 736 l 1188 722 l 1194 708 l 1192 703 l 1208 672 l 1111 451 l 1063 451 l 1064 447 l 1058 433 l 1065 419 l 1064 414 l 1081 383 l 983 165 l 853 165 l 732 -106 l 219 -106 l 203 -75 l 197 -75 l 190 -61 l 178 -61 l 161 -31 l 153 -31 l 240 165 l 213 165 l 196 196 l 190 196 l 182 210 l 171 210 l 154 240 l 146 240 l 256 486 l 315 486 l 310 496 l 299 496 l 282 526 l 274 526 l 383 775 z "},"ˆ":{"ha":882,"x_min":426,"x_max":1294,"o":"m 925 1131 l 935 1103 l 943 1088 l 958 1011 l 1168 1011 l 1147 1136 l 753 1136 l 621 1011 l 786 1011 l 925 1131 m 525 992 l 732 1186 l 1167 1186 l 1199 992 l 929 992 l 907 1093 l 792 992 l 525 992 m 1190 1189 l 1193 1189 l 1190 1208 l 731 1208 l 472 969 l 488 969 l 492 972 l 519 931 l 822 931 l 901 999 l 910 969 l 919 969 l 943 931 l 1253 931 l 1214 1150 l 1190 1189 m 1213 1228 l 1214 1207 l 1214 1208 l 1224 1192 l 1224 1181 l 1236 1164 l 1238 1147 l 1238 1149 l 1253 1128 l 1294 881 l 946 881 l 929 911 l 924 911 l 918 922 l 913 922 l 904 933 l 846 881 l 522 881 l 503 911 l 500 911 l 493 922 l 460 922 l 442 951 l 426 951 l 726 1228 l 1213 1228 z "},"‰":{"ha":2640,"x_min":283,"x_max":2778,"o":"m 513 -75 l 518 -75 l 535 -106 l 976 -106 l 1151 83 l 1111 -6 l 1147 -74 l 1153 -74 l 1178 -118 l 1183 -118 l 1200 -149 l 1801 -149 l 1872 -99 l 1885 -119 l 1890 -119 l 1904 -150 l 2506 -150 l 2596 -87 l 2778 321 l 2761 351 l 2763 357 l 2739 401 l 2740 407 l 2701 471 l 2097 471 l 2028 424 l 1997 472 l 1508 472 l 1893 883 l 1876 911 l 1881 915 l 1869 928 l 1888 949 l 1868 976 l 1878 988 l 1394 988 l 1197 774 l 1244 879 l 1226 907 l 1229 913 l 1204 957 l 1207 963 l 1167 1026 l 563 1026 l 467 961 l 283 549 l 319 481 l 325 481 l 350 436 l 356 436 l 372 406 l 851 406 l 451 -31 l 463 -31 l 479 -61 l 504 -61 l 513 -75 m 344 500 l 339 500 l 307 560 l 482 950 l 565 1007 l 1147 1007 l 1182 951 l 1179 946 l 1204 901 l 1085 635 l 1090 635 l 1396 968 l 1838 968 l 1826 953 l 1851 910 l 1426 453 l 1978 453 l 2013 397 l 2010 390 l 2100 451 l 2682 451 l 2717 396 l 2714 390 l 2739 346 l 2565 -43 l 2483 -100 l 1903 -100 l 1879 -56 l 1874 -56 l 1867 -39 l 1779 -99 l 1197 -99 l 1174 -54 l 1168 -54 l 1136 6 l 1246 253 l 1240 253 l 953 -56 l 532 -56 l 507 -11 l 488 -11 l 919 456 l 369 456 l 344 500 m 1790 946 l 1403 946 l 536 11 l 924 11 l 1790 946 m 1817 6 l 1990 397 l 1968 431 l 1383 431 l 1332 396 l 1158 6 l 1178 -32 l 1763 -32 l 1817 6 m 1138 985 l 556 985 l 504 950 l 329 560 l 349 522 l 931 522 l 985 560 l 1160 951 l 1138 985 m 2672 429 l 2090 429 l 2038 394 l 1864 4 l 1883 -33 l 2465 -33 l 2519 4 l 2694 396 l 2672 429 m 618 31 l 1424 896 l 1722 896 l 917 31 l 618 31 m 1406 381 l 1964 381 l 1801 17 l 1760 -12 l 1200 -12 l 1363 351 l 1406 381 m 2113 379 l 2668 379 l 2506 15 l 2464 -14 l 1907 -14 l 2068 350 l 2113 379 m 578 935 l 1133 935 l 971 571 l 929 542 l 372 542 l 533 906 l 578 935 m 699 857 l 610 658 l 618 658 l 635 628 l 810 628 l 894 818 l 878 849 l 882 857 l 699 857 m 1528 300 l 1440 104 l 1449 104 l 1467 74 l 1642 74 l 1726 264 l 1708 294 l 1711 300 l 1528 300 m 2232 299 l 2144 103 l 2153 103 l 2169 72 l 2342 72 l 2426 263 l 2410 293 l 2413 299 l 2232 299 m 708 838 l 853 838 l 782 678 l 638 678 l 708 838 m 1540 283 l 1685 283 l 1614 124 l 1469 124 l 1540 283 m 2243 282 l 2385 282 l 2314 122 l 2172 122 l 2243 282 m 769 697 l 801 771 l 746 771 l 714 697 l 769 697 m 1600 144 l 1632 217 l 1576 217 l 1544 144 l 1600 144 m 2301 143 l 2333 215 l 2281 215 l 2249 143 l 2301 143 z "},"Š":{"ha":1393,"x_min":25,"x_max":1783,"o":"m 1140 1186 l 924 1186 l 944 1053 l 1344 1053 l 1488 1186 l 1317 1186 l 1185 1067 l 1168 1097 l 1163 1093 l 1140 1186 m 1156 1236 l 1178 1131 l 1293 1236 l 1565 1236 l 1353 1036 l 915 1036 l 886 1236 l 1156 1236 m 225 213 l 144 31 l 1194 31 l 1297 104 l 1461 472 l 1439 513 l 788 513 l 771 543 l 763 543 l 840 717 l 1571 717 l 1651 899 l 604 899 l 497 822 l 335 458 l 357 417 l 1014 417 l 1010 408 l 1026 378 l 953 213 l 225 213 m 851 697 l 790 563 l 1442 563 l 1486 483 l 1313 93 l 1197 11 l 86 11 l 197 263 l 925 263 l 985 397 l 336 397 l 294 479 l 467 867 l 582 949 l 1693 949 l 1582 697 l 851 697 m 925 971 l 592 971 l 444 867 l 272 479 l 326 375 l 332 375 l 356 333 l 938 333 l 915 285 l 185 285 l 53 -11 l 67 -11 l 92 -56 l 1214 -56 l 1358 46 l 1531 433 l 1507 479 l 1508 483 l 1451 585 l 867 585 l 888 631 l 1618 631 l 1744 913 l 1719 957 l 1725 971 l 1385 971 l 1628 1200 l 1601 1244 l 1615 1258 l 1293 1258 l 1206 1179 l 1204 1194 l 1179 1238 l 1182 1238 l 1178 1258 l 854 1258 l 894 1014 l 904 1014 l 925 971 m 589 990 l 881 990 l 879 994 l 872 994 l 826 1278 l 1200 1278 l 1201 1260 l 1215 1239 l 1218 1222 l 1221 1217 l 1289 1278 l 1665 1278 l 1653 1267 l 1672 1236 l 1650 1215 l 1658 1204 l 1654 1200 l 1672 1169 l 1478 990 l 1753 990 l 1750 982 l 1767 951 l 1761 938 l 1768 924 l 1765 918 l 1783 888 l 1646 581 l 1485 581 l 1533 494 l 1531 490 l 1554 444 l 1553 439 l 1569 408 l 1388 1 l 1236 -106 l 94 -106 l 78 -75 l 72 -75 l 64 -61 l 50 -61 l 33 -31 l 25 -31 l 175 304 l 347 304 l 342 314 l 336 314 l 313 356 l 307 356 l 247 468 l 429 878 l 589 990 z "},"‹":{"ha":389,"x_min":154,"x_max":738,"o":"m 374 489 l 358 507 l 514 588 l 589 754 l 425 675 l 251 283 l 344 206 l 439 418 l 386 468 l 374 489 m 646 844 l 524 572 l 394 506 l 464 438 l 344 168 l 207 289 l 399 721 l 646 844 m 676 865 l 686 885 l 383 735 l 179 278 l 193 264 l 194 268 l 213 225 l 372 88 l 510 396 l 488 440 l 492 450 l 469 471 l 564 517 l 699 821 l 676 865 m 369 749 l 722 924 l 715 908 l 732 878 l 717 843 l 724 832 l 721 828 l 738 796 l 593 471 l 525 438 l 532 426 l 528 418 l 533 407 l 532 403 l 549 371 l 394 24 l 215 179 l 204 199 l 194 208 l 185 225 l 178 232 l 168 249 l 154 264 l 369 749 z "},"Œ":{"ha":2133,"x_min":75,"x_max":2521,"o":"m 794 301 l 976 301 l 1100 581 l 918 581 l 794 301 m 1142 631 l 986 282 l 735 282 l 890 631 l 1142 631 m 660 263 l 1000 263 l 1193 694 l 853 694 l 660 263 m 640 243 l 632 243 l 842 714 l 1221 714 l 1217 706 l 1233 675 l 1028 213 l 657 213 l 640 243 m 1647 714 l 2310 714 l 2389 893 l 601 893 l 496 819 l 163 72 l 185 31 l 2006 31 l 2086 213 l 1463 213 l 1446 243 l 1438 243 l 1526 442 l 2188 442 l 2231 540 l 1608 540 l 1592 571 l 1583 571 l 1647 714 m 122 93 l 465 864 l 579 943 l 2431 943 l 2321 694 l 1658 694 l 1611 590 l 2272 590 l 2197 422 l 1536 422 l 1465 263 l 2128 263 l 2017 11 l 165 11 l 122 93 m 1575 358 l 2236 358 l 2324 554 l 2299 599 l 2304 613 l 1688 613 l 1696 631 l 2358 631 l 2482 907 l 2457 951 l 2463 965 l 589 965 l 443 864 l 100 93 l 154 -11 l 160 -11 l 185 -56 l 2053 -56 l 2179 226 l 2154 271 l 2158 282 l 1540 282 l 1575 358 m 2344 560 l 2363 529 l 2264 308 l 1603 308 l 1600 301 l 2188 301 l 2183 293 l 2201 265 l 2196 251 l 2203 238 l 2200 232 l 2218 201 l 2081 -106 l 188 -106 l 171 -75 l 165 -75 l 140 -31 l 135 -31 l 75 82 l 428 875 l 588 985 l 2492 985 l 2488 976 l 2504 946 l 2499 932 l 2506 918 l 2504 913 l 2521 882 l 2386 581 l 2340 581 l 2340 579 l 2347 565 l 2344 560 z "},"Ž":{"ha":1388,"x_min":25,"x_max":1778,"o":"m 1138 1186 l 921 1186 l 942 1053 l 1342 1053 l 1485 1186 l 1314 1186 l 1182 1067 l 1165 1097 l 1160 1093 l 1138 1186 m 1153 1236 l 1175 1131 l 1290 1236 l 1563 1236 l 1350 1036 l 913 1036 l 883 1236 l 1153 1236 m 1036 707 l 1053 675 l 224 210 l 144 31 l 1260 31 l 1340 213 l 758 213 l 742 243 l 717 243 l 1564 714 l 1646 899 l 531 899 l 450 717 l 1056 717 l 1036 707 m 194 256 l 983 697 l 392 697 l 503 949 l 1688 949 l 1578 701 l 788 263 l 1382 263 l 1271 11 l 86 11 l 194 256 m 922 971 l 490 971 l 358 675 l 372 675 l 397 631 l 829 631 l 176 265 l 53 -11 l 67 -11 l 92 -56 l 1307 -56 l 1433 226 l 1408 271 l 1414 285 l 965 285 l 1619 647 l 1739 913 l 1714 957 l 1719 971 l 1382 971 l 1625 1200 l 1599 1244 l 1613 1258 l 1290 1258 l 1203 1179 l 1201 1194 l 1176 1238 l 1179 1238 l 1175 1258 l 851 1258 l 892 1014 l 901 1014 l 922 971 m 479 990 l 878 990 l 876 994 l 869 994 l 824 1278 l 1197 1278 l 1199 1260 l 1213 1239 l 1215 1222 l 1218 1217 l 1286 1278 l 1663 1278 l 1650 1267 l 1669 1236 l 1647 1215 l 1656 1204 l 1651 1200 l 1669 1169 l 1475 990 l 1747 990 l 1744 982 l 1761 951 l 1756 938 l 1763 924 l 1760 918 l 1778 888 l 1650 601 l 1111 304 l 1443 304 l 1439 296 l 1456 265 l 1450 251 l 1457 238 l 1454 232 l 1472 201 l 1335 -106 l 94 -106 l 78 -75 l 72 -75 l 64 -61 l 50 -61 l 33 -31 l 25 -31 l 163 278 l 701 581 l 400 581 l 383 611 l 378 611 l 369 625 l 356 625 l 339 656 l 331 656 l 479 990 z "},"‘":{"ha":585,"x_min":239,"x_max":968,"o":"m 458 742 l 356 511 l 671 511 l 836 883 l 707 883 l 458 742 m 878 933 l 682 492 l 297 492 l 428 786 l 686 933 l 878 933 m 413 794 l 267 469 l 278 469 l 306 431 l 721 431 l 929 897 l 904 942 l 910 956 l 692 956 l 413 794 m 399 807 l 690 975 l 939 975 l 935 967 l 951 936 l 946 922 l 953 908 l 950 903 l 968 872 l 749 381 l 306 381 l 289 411 l 286 411 l 278 422 l 265 422 l 247 450 l 239 450 l 399 807 z "},"’":{"ha":585,"x_min":238,"x_max":967,"o":"m 732 649 l 836 882 l 521 882 l 354 510 l 489 510 l 732 649 m 296 490 l 493 932 l 878 932 l 746 636 l 490 490 l 296 490 m 306 429 l 513 429 l 789 585 l 928 896 l 903 940 l 910 954 l 483 954 l 267 469 l 276 469 l 306 429 m 944 921 l 953 907 l 950 901 l 967 871 l 819 539 l 535 379 l 307 379 l 288 410 l 285 410 l 276 422 l 265 422 l 247 450 l 239 450 l 247 467 l 238 483 l 254 483 l 472 974 l 938 974 l 933 965 l 951 935 l 944 921 z "},"“":{"ha":926,"x_min":239,"x_max":1310,"o":"m 860 742 l 757 511 l 1013 511 l 1178 883 l 1108 883 l 860 742 m 461 742 l 358 511 l 614 511 l 779 883 l 710 883 l 461 742 m 821 933 l 625 492 l 300 492 l 431 786 l 689 933 l 821 933 m 1219 933 l 1024 492 l 699 492 l 829 786 l 1088 933 l 1219 933 m 413 794 l 267 469 l 281 469 l 306 431 l 664 431 l 681 469 l 707 431 l 1063 431 l 1271 897 l 1246 942 l 1251 956 l 1093 956 l 831 804 l 872 897 l 847 942 l 853 956 l 694 956 l 413 794 m 399 807 l 693 975 l 882 975 l 878 967 l 894 936 l 889 922 l 896 908 l 893 903 l 911 872 l 908 868 l 1094 975 l 1281 975 l 1276 967 l 1293 936 l 1288 922 l 1294 908 l 1292 903 l 1310 872 l 1090 381 l 710 381 l 699 397 l 692 381 l 308 381 l 292 411 l 286 411 l 279 422 l 265 422 l 247 450 l 239 450 l 399 807 z "},"”":{"ha":926,"x_min":239,"x_max":1308,"o":"m 524 882 l 357 510 l 429 510 l 675 649 l 779 882 l 524 882 m 1074 649 l 1178 882 l 922 882 l 756 510 l 828 510 l 1074 649 m 697 490 l 894 932 l 1219 932 l 1088 636 l 829 490 l 697 490 m 299 490 l 496 932 l 821 932 l 689 636 l 431 490 l 299 490 m 711 571 l 665 469 l 679 469 l 707 429 l 853 429 l 1131 585 l 1269 896 l 1244 940 l 1251 954 l 882 954 l 863 911 l 846 940 l 853 954 l 483 954 l 267 469 l 281 469 l 306 429 l 453 429 l 711 571 m 1286 921 l 1294 907 l 1292 901 l 1308 871 l 1161 539 l 874 379 l 710 379 l 690 410 l 686 410 l 678 422 l 664 422 l 646 450 l 638 450 l 649 474 l 475 379 l 308 379 l 290 410 l 285 410 l 278 422 l 265 422 l 247 450 l 239 450 l 472 974 l 1279 974 l 1275 965 l 1293 935 l 1286 921 z "},"•":{"ha":1514,"x_min":75,"x_max":1863,"o":"m 163 -75 l 168 -75 l 185 -106 l 1357 -106 l 1508 1 l 1863 794 l 1844 822 l 1846 828 l 1822 872 l 1824 878 l 1763 985 l 588 985 l 428 875 l 75 82 l 135 -31 l 140 -31 l 163 -75 m 100 93 l 443 864 l 589 965 l 1742 965 l 1800 867 l 1797 861 l 1822 818 l 1479 46 l 1335 -56 l 182 -56 l 160 -11 l 154 -11 l 100 93 m 1433 93 l 1778 867 l 1731 946 l 1726 943 l 579 943 l 465 864 l 122 93 l 165 11 l 1318 11 l 1433 93 m 601 893 l 1731 893 l 1753 856 l 1418 104 l 1315 31 l 185 31 l 163 72 l 496 819 l 601 893 z "},"–":{"ha":800,"x_min":203,"x_max":1019,"o":"m 318 422 l 846 422 l 888 515 l 360 515 l 318 422 m 928 563 l 857 403 l 260 403 l 331 563 l 928 563 m 954 571 l 960 583 l 318 583 l 231 386 l 244 386 l 267 343 l 897 343 l 981 529 l 954 571 m 240 336 l 228 336 l 211 367 l 203 367 l 307 603 l 988 603 l 985 594 l 1001 564 l 996 551 l 1004 540 l 1001 535 l 1019 504 l 925 293 l 269 293 l 253 324 l 247 324 l 240 336 z "},"—":{"ha":1021,"x_min":203,"x_max":1240,"o":"m 318 422 l 1067 422 l 1108 515 l 360 515 l 318 422 m 1149 563 l 1078 403 l 260 403 l 331 563 l 1149 563 m 1175 571 l 1181 583 l 318 583 l 231 386 l 244 386 l 269 343 l 1118 343 l 1201 529 l 1175 571 m 307 603 l 1208 603 l 1206 594 l 1222 564 l 1217 551 l 1225 540 l 1222 535 l 1240 504 l 1146 293 l 272 293 l 254 324 l 250 324 l 242 336 l 228 336 l 211 367 l 203 367 l 307 603 z "},"˜":{"ha":989,"x_min":426,"x_max":1631,"o":"m 1097 1136 l 756 1136 l 621 1011 l 788 1011 l 926 1135 l 933 1103 l 943 1088 l 958 1011 l 1307 1011 l 1442 1136 l 1274 1136 l 1144 1022 l 1126 1054 l 1119 1049 l 1097 1136 m 907 1093 l 794 992 l 525 992 l 732 1186 l 1115 1186 l 1138 1086 l 1250 1186 l 1522 1186 l 1313 992 l 929 992 l 907 1093 m 918 972 l 946 931 l 1342 931 l 1586 1153 l 1558 1194 l 1572 1208 l 1250 1208 l 1163 1129 l 1164 1149 l 1139 1188 l 1142 1188 l 1138 1208 l 731 1208 l 472 969 l 488 969 l 492 972 l 519 931 l 822 931 l 901 999 l 910 969 l 914 969 l 918 972 m 919 922 l 913 922 l 904 933 l 846 881 l 522 881 l 503 911 l 500 911 l 493 922 l 460 922 l 442 951 l 426 951 l 726 1228 l 1161 1228 l 1164 1210 l 1175 1189 l 1178 1175 l 1181 1169 l 1247 1228 l 1622 1228 l 1610 1217 l 1629 1186 l 1608 1167 l 1617 1157 l 1613 1153 l 1631 1124 l 1365 881 l 949 881 l 929 911 l 926 911 l 919 922 z "},"™":{"ha":632,"x_min":425,"x_max":1021,"o":"m 481 731 l 564 917 l 486 917 l 499 946 l 682 946 l 669 917 l 593 917 l 510 731 l 481 731 m 732 943 q 744 944 742 943 q 759 921 751 940 q 767 882 767 901 l 764 865 l 763 856 l 756 782 q 781 816 769 800 q 808 856 793 832 q 811 858 811 857 q 813 863 813 860 q 817 868 814 865 q 874 930 851 914 q 924 946 897 946 l 931 946 l 835 731 l 815 731 l 878 871 l 875 892 l 756 744 q 750 738 751 738 q 749 735 750 736 q 749 735 749 735 l 746 735 q 736 731 742 731 l 731 731 q 724 732 725 731 q 725 744 724 733 l 732 885 l 711 869 l 649 731 l 631 731 l 725 943 l 732 943 m 785 911 l 788 911 q 772 951 782 935 q 753 968 761 968 q 740 963 747 968 l 738 963 l 731 960 q 724 957 726 958 q 710 949 721 956 l 710 957 l 714 967 l 489 967 l 457 894 l 471 894 l 493 853 l 515 853 l 453 711 l 465 711 l 489 667 l 546 667 l 628 853 l 663 853 l 600 711 l 614 711 l 636 667 l 685 667 l 707 718 q 713 712 710 713 q 718 711 715 711 l 738 675 q 742 667 740 668 q 747 667 744 667 l 758 667 q 771 668 768 667 q 781 679 774 669 q 782 681 781 681 q 783 683 783 682 l 786 689 l 790 689 l 801 703 l 824 667 l 874 667 l 982 911 l 957 954 l 963 967 l 933 967 q 874 950 903 967 q 803 882 844 933 l 800 888 q 796 896 796 888 l 794 896 l 785 911 m 763 988 q 788 967 772 988 q 811 917 803 947 q 877 972 847 957 q 942 986 907 986 l 990 986 l 986 978 l 1004 947 l 999 935 l 1007 922 l 1004 917 l 1021 886 l 903 619 l 828 619 l 813 640 l 811 640 q 797 622 801 625 q 772 619 792 619 l 761 619 q 750 621 757 619 q 738 631 743 622 l 728 649 l 726 649 l 714 619 l 640 619 l 621 647 l 615 647 l 608 661 l 597 661 l 594 665 l 575 619 l 493 619 l 474 647 l 468 647 l 461 661 l 447 661 l 433 692 l 425 692 l 485 826 l 479 833 l 474 833 l 468 844 l 454 844 l 436 875 l 428 875 l 478 986 l 742 986 l 740 982 q 763 988 754 988 z "},"š":{"ha":1393,"x_min":25,"x_max":1783,"o":"m 1140 1186 l 924 1186 l 944 1053 l 1344 1053 l 1488 1186 l 1317 1186 l 1185 1067 l 1168 1097 l 1163 1093 l 1140 1186 m 1156 1236 l 1178 1131 l 1293 1236 l 1565 1236 l 1353 1036 l 915 1036 l 886 1236 l 1156 1236 m 225 213 l 144 31 l 1194 31 l 1297 104 l 1461 472 l 1439 513 l 788 513 l 771 543 l 763 543 l 840 717 l 1571 717 l 1651 899 l 604 899 l 497 822 l 335 458 l 357 417 l 1014 417 l 1010 408 l 1026 378 l 953 213 l 225 213 m 851 697 l 790 563 l 1442 563 l 1486 483 l 1313 93 l 1197 11 l 86 11 l 197 263 l 925 263 l 985 397 l 336 397 l 294 479 l 467 867 l 582 949 l 1693 949 l 1582 697 l 851 697 m 925 971 l 592 971 l 444 867 l 272 479 l 326 375 l 332 375 l 356 333 l 938 333 l 915 285 l 185 285 l 53 -11 l 67 -11 l 92 -56 l 1214 -56 l 1358 46 l 1531 433 l 1507 479 l 1508 483 l 1451 585 l 867 585 l 888 631 l 1618 631 l 1744 913 l 1719 957 l 1725 971 l 1385 971 l 1628 1200 l 1601 1244 l 1615 1258 l 1293 1258 l 1206 1179 l 1204 1194 l 1179 1238 l 1182 1238 l 1178 1258 l 854 1258 l 894 1014 l 904 1014 l 925 971 m 589 990 l 881 990 l 879 994 l 872 994 l 826 1278 l 1200 1278 l 1201 1260 l 1215 1239 l 1218 1222 l 1221 1217 l 1289 1278 l 1665 1278 l 1653 1267 l 1672 1236 l 1650 1215 l 1658 1204 l 1654 1200 l 1672 1169 l 1478 990 l 1753 990 l 1750 982 l 1767 951 l 1761 938 l 1768 924 l 1765 918 l 1783 888 l 1646 581 l 1485 581 l 1533 494 l 1531 490 l 1554 444 l 1553 439 l 1569 408 l 1388 1 l 1236 -106 l 94 -106 l 78 -75 l 72 -75 l 64 -61 l 50 -61 l 33 -31 l 25 -31 l 175 304 l 347 304 l 342 314 l 336 314 l 313 356 l 307 356 l 247 468 l 429 878 l 589 990 z "},"›":{"ha":389,"x_min":75,"x_max":678,"o":"m 644 749 l 447 924 l 281 550 l 293 536 l 306 517 l 310 510 l 313 501 l 242 463 l 75 89 l 86 93 l 104 65 l 126 74 l 158 35 l 468 189 l 678 661 l 660 689 l 663 694 l 656 706 l 658 711 l 642 742 l 644 749 m 614 725 l 638 683 l 436 232 l 149 90 l 125 129 l 110 122 l 256 450 l 351 501 l 340 506 l 322 551 l 319 547 l 306 563 l 450 885 l 619 735 l 614 725 m 153 168 l 399 289 l 590 721 l 454 844 l 332 572 l 401 506 l 272 438 l 153 168 m 443 506 l 378 567 l 471 778 l 564 699 l 388 303 l 225 224 l 300 392 l 453 471 l 436 501 l 443 506 z "},"œ":{"ha":2133,"x_min":75,"x_max":2521,"o":"m 794 301 l 976 301 l 1100 581 l 918 581 l 794 301 m 1142 631 l 986 282 l 735 282 l 890 631 l 1142 631 m 660 263 l 1000 263 l 1193 694 l 853 694 l 660 263 m 640 243 l 632 243 l 842 714 l 1221 714 l 1217 706 l 1233 675 l 1028 213 l 657 213 l 640 243 m 1647 714 l 2310 714 l 2389 893 l 601 893 l 496 819 l 163 72 l 185 31 l 2006 31 l 2086 213 l 1463 213 l 1446 243 l 1438 243 l 1526 442 l 2188 442 l 2231 540 l 1608 540 l 1592 571 l 1583 571 l 1647 714 m 122 93 l 465 864 l 579 943 l 2431 943 l 2321 694 l 1658 694 l 1611 590 l 2272 590 l 2197 422 l 1536 422 l 1465 263 l 2128 263 l 2017 11 l 165 11 l 122 93 m 1575 358 l 2236 358 l 2324 554 l 2299 599 l 2304 613 l 1688 613 l 1696 631 l 2358 631 l 2482 907 l 2457 951 l 2463 965 l 589 965 l 443 864 l 100 93 l 154 -11 l 160 -11 l 185 -56 l 2053 -56 l 2179 226 l 2154 271 l 2158 282 l 1540 282 l 1575 358 m 2344 560 l 2363 529 l 2264 308 l 1603 308 l 1600 301 l 2188 301 l 2183 293 l 2201 265 l 2196 251 l 2203 238 l 2200 232 l 2218 201 l 2081 -106 l 188 -106 l 171 -75 l 165 -75 l 140 -31 l 135 -31 l 75 82 l 428 875 l 588 985 l 2492 985 l 2488 976 l 2504 946 l 2499 932 l 2506 918 l 2504 913 l 2521 882 l 2386 581 l 2340 581 l 2340 579 l 2347 565 l 2344 560 z "},"ž":{"ha":1388,"x_min":25,"x_max":1778,"o":"m 1138 1186 l 921 1186 l 942 1053 l 1342 1053 l 1485 1186 l 1314 1186 l 1182 1067 l 1165 1097 l 1160 1093 l 1138 1186 m 1153 1236 l 1175 1131 l 1290 1236 l 1563 1236 l 1350 1036 l 913 1036 l 883 1236 l 1153 1236 m 1036 707 l 1053 675 l 224 210 l 144 31 l 1260 31 l 1340 213 l 758 213 l 742 243 l 717 243 l 1564 714 l 1646 899 l 531 899 l 450 717 l 1056 717 l 1036 707 m 194 256 l 983 697 l 392 697 l 503 949 l 1688 949 l 1578 701 l 788 263 l 1382 263 l 1271 11 l 86 11 l 194 256 m 922 971 l 490 971 l 358 675 l 372 675 l 397 631 l 829 631 l 176 265 l 53 -11 l 67 -11 l 92 -56 l 1307 -56 l 1433 226 l 1408 271 l 1414 285 l 965 285 l 1619 647 l 1739 913 l 1714 957 l 1719 971 l 1382 971 l 1625 1200 l 1599 1244 l 1613 1258 l 1290 1258 l 1203 1179 l 1201 1194 l 1176 1238 l 1179 1238 l 1175 1258 l 851 1258 l 892 1014 l 901 1014 l 922 971 m 479 990 l 878 990 l 876 994 l 869 994 l 824 1278 l 1197 1278 l 1199 1260 l 1213 1239 l 1215 1222 l 1218 1217 l 1286 1278 l 1663 1278 l 1650 1267 l 1669 1236 l 1647 1215 l 1656 1204 l 1651 1200 l 1669 1169 l 1475 990 l 1747 990 l 1744 982 l 1761 951 l 1756 938 l 1763 924 l 1760 918 l 1778 888 l 1650 601 l 1111 304 l 1443 304 l 1439 296 l 1456 265 l 1450 251 l 1457 238 l 1454 232 l 1472 201 l 1335 -106 l 94 -106 l 78 -75 l 72 -75 l 64 -61 l 50 -61 l 33 -31 l 25 -31 l 163 278 l 701 581 l 400 581 l 383 611 l 378 611 l 369 625 l 356 625 l 339 656 l 331 656 l 479 990 z "},"Ÿ":{"ha":1514,"x_min":26,"x_max":1904,"o":"m 1324 1053 l 1529 1053 l 1589 1186 l 1383 1186 l 1324 1053 m 908 1053 l 1114 1053 l 1174 1186 l 968 1186 l 908 1053 m 1215 1236 l 1126 1036 l 851 1036 l 940 1236 l 1215 1236 m 1631 1236 l 1542 1036 l 1267 1036 l 1356 1236 l 1631 1236 m 1036 919 l 1035 918 l 1053 888 l 944 646 l 1175 646 l 1297 919 l 1276 919 l 1260 950 l 1254 950 l 1246 964 l 1232 964 l 1221 985 l 1192 919 l 1036 919 m 1131 410 l 1149 379 l 1074 213 l 226 213 l 146 31 l 1315 31 l 1418 104 l 1772 899 l 1379 899 l 1226 554 l 807 554 l 789 585 l 781 585 l 921 899 l 531 899 l 335 460 l 357 418 l 1135 418 l 1131 410 m 199 263 l 1046 263 l 1107 399 l 338 399 l 294 481 l 503 949 l 963 949 l 810 604 l 1199 604 l 1351 949 l 1814 949 l 1433 93 l 1318 11 l 88 11 l 199 263 m 1242 1244 l 1247 1258 l 928 1258 l 819 1014 l 833 1014 l 857 971 l 490 971 l 272 481 l 328 376 l 333 376 l 356 335 l 1056 335 l 1033 285 l 186 285 l 54 -11 l 68 -11 l 93 -56 l 1335 -56 l 1479 46 l 1865 913 l 1840 957 l 1846 971 l 1576 971 l 1679 1200 l 1656 1244 l 1661 1258 l 1343 1258 l 1235 1014 l 1249 1014 l 1274 969 l 1339 969 l 1186 626 l 886 626 l 1014 913 l 989 957 l 994 969 l 1164 969 l 1267 1200 l 1242 1244 m 1276 1278 l 1272 1269 l 1289 1239 l 1283 1225 l 1290 1211 l 1288 1206 l 1294 1193 l 1333 1278 l 1689 1278 l 1685 1269 l 1701 1239 l 1696 1225 l 1703 1211 l 1700 1206 l 1718 1175 l 1635 990 l 1874 990 l 1871 982 l 1888 951 l 1882 938 l 1889 924 l 1886 918 l 1904 888 l 1508 1 l 1357 -106 l 96 -106 l 79 -75 l 74 -75 l 65 -61 l 51 -61 l 35 -31 l 26 -31 l 176 304 l 349 304 l 342 315 l 336 315 l 313 357 l 307 357 l 247 469 l 479 990 l 804 990 l 803 994 l 794 994 l 921 1278 l 1276 1278 z "},"¡":{"ha":654,"x_min":25,"x_max":1042,"o":"m 446 714 l 831 714 l 910 893 l 525 893 l 446 714 m 951 943 l 842 694 l 388 694 l 497 943 l 951 943 m 142 31 l 526 31 l 767 569 l 382 569 l 142 31 m 808 619 l 538 11 l 83 11 l 354 619 l 808 619 m 978 951 l 983 965 l 488 965 l 357 672 l 371 672 l 389 642 l 344 642 l 53 -11 l 67 -11 l 89 -56 l 574 -56 l 858 583 l 832 631 l 879 631 l 1003 907 l 978 951 m 1013 985 l 1008 976 l 1025 946 l 1019 932 l 1026 918 l 1025 913 l 1042 882 l 907 581 l 885 581 l 897 558 l 601 -106 l 92 -106 l 75 -75 l 69 -75 l 61 -61 l 50 -61 l 33 -31 l 25 -31 l 478 985 l 1013 985 z "},"¢":{"ha":1357,"x_min":111,"x_max":1711,"o":"m 828 383 l 864 383 l 917 501 l 881 501 l 828 383 m 958 551 l 875 364 l 769 364 l 853 551 l 958 551 m 693 342 l 888 342 l 1010 618 l 815 618 l 693 342 m 672 322 l 664 322 l 804 638 l 1038 638 l 1035 629 l 1051 599 l 914 292 l 689 292 l 672 322 m 799 31 l 894 31 l 931 113 l 1265 113 l 1344 292 l 1049 292 l 1032 322 l 1024 322 l 1164 638 l 1499 638 l 1579 818 l 1283 818 l 1267 847 l 1258 847 l 1278 893 l 1182 893 l 1149 818 l 567 818 l 461 743 l 199 151 l 219 113 l 804 113 l 800 104 l 818 74 l 799 31 m 1175 618 l 1053 342 l 1388 342 l 1276 93 l 942 93 l 906 11 l 740 11 l 776 93 l 200 93 l 157 172 l 431 788 l 544 867 l 1121 867 l 1154 943 l 1319 943 l 1286 867 l 1621 867 l 1510 618 l 1175 618 m 1346 951 l 1351 965 l 1142 965 l 1108 889 l 556 889 l 408 788 l 135 172 l 192 71 l 196 71 l 218 26 l 724 26 l 707 -11 l 721 -11 l 746 -56 l 942 -56 l 978 26 l 1313 26 l 1438 306 l 1413 350 l 1419 364 l 1129 364 l 1213 551 l 1547 551 l 1671 831 l 1646 875 l 1653 889 l 1363 889 l 1371 907 l 1346 951 m 553 908 l 1097 908 l 1132 985 l 1381 985 l 1376 976 l 1393 946 l 1388 932 l 1393 918 l 1392 913 l 1392 908 l 1681 908 l 1678 900 l 1694 869 l 1688 856 l 1696 842 l 1693 836 l 1711 808 l 1575 501 l 1238 501 l 1185 383 l 1447 383 l 1443 375 l 1460 344 l 1454 331 l 1463 317 l 1460 311 l 1476 281 l 1340 -24 l 1003 -24 l 967 -106 l 749 -106 l 732 -75 l 726 -75 l 718 -61 l 704 -61 l 688 -31 l 679 -31 l 682 -24 l 221 -24 l 204 7 l 199 7 l 175 51 l 171 51 l 111 161 l 394 799 l 553 908 z "},"£":{"ha":1486,"x_min":25,"x_max":1571,"o":"m 997 714 l 1282 714 l 1361 893 l 763 893 l 649 811 l 540 567 l 553 543 l 550 543 l 564 513 l 358 513 l 315 414 l 499 414 l 485 404 l 501 372 l 433 328 l 382 213 l 225 213 l 144 31 l 1358 31 l 1439 213 l 813 213 l 796 243 l 788 243 l 813 299 l 975 414 l 1328 414 l 1371 513 l 1054 513 l 1038 543 l 1032 543 l 972 658 l 997 714 m 331 563 l 513 563 l 500 590 l 617 853 l 743 943 l 1403 943 l 1293 694 l 1008 694 l 997 669 l 1051 563 l 1413 563 l 1338 394 l 976 394 l 826 288 l 815 263 l 1481 263 l 1369 11 l 86 11 l 197 263 l 354 263 l 403 372 l 438 394 l 256 394 l 331 563 m 318 585 l 225 375 l 239 375 l 264 331 l 363 331 l 340 282 l 183 282 l 53 -11 l 67 -11 l 92 -56 l 1406 -56 l 1532 226 l 1507 271 l 1511 282 l 929 282 l 997 331 l 1374 331 l 1461 526 l 1439 571 l 1444 585 l 1063 585 l 1040 631 l 1331 631 l 1454 907 l 1429 951 l 1435 965 l 751 965 l 596 854 l 475 585 l 318 585 m 308 604 l 465 604 l 581 865 l 750 985 l 1464 985 l 1460 976 l 1476 946 l 1471 932 l 1478 918 l 1476 913 l 1490 882 l 1367 604 l 1474 604 l 1469 596 l 1486 565 l 1479 549 l 1485 538 l 1483 533 l 1500 501 l 1411 301 l 1540 301 l 1536 293 l 1554 265 l 1549 251 l 1556 238 l 1553 232 l 1571 201 l 1433 -106 l 94 -106 l 78 -75 l 72 -75 l 64 -61 l 50 -61 l 33 -31 l 25 -31 l 174 301 l 256 301 l 250 311 l 244 311 l 236 325 l 222 325 l 206 356 l 197 356 l 308 604 z "},"¤":{"ha":1514,"x_min":26,"x_max":1901,"o":"m 1021 985 l 478 985 l 332 658 l 382 556 l 244 458 l 26 -31 l 35 -31 l 51 -61 l 65 -61 l 74 -75 l 79 -75 l 96 -106 l 610 -106 l 735 174 l 965 174 l 874 -31 l 882 -31 l 899 -61 l 913 -61 l 921 -75 l 926 -75 l 943 -106 l 1460 -106 l 1672 372 l 1656 403 l 1658 408 l 1633 453 l 1636 458 l 1624 478 l 1767 581 l 1901 882 l 1885 913 l 1886 918 l 1879 932 l 1885 946 l 1868 976 l 1872 985 l 1326 985 l 1242 794 l 1011 794 l 1050 882 l 1033 913 l 1035 918 l 1028 932 l 1033 946 l 1017 976 l 1021 985 m 986 951 l 1011 907 l 951 775 l 1251 775 l 1336 965 l 1843 965 l 1838 951 l 1863 907 l 1736 625 l 1576 510 l 1611 447 l 1610 442 l 1633 397 l 1432 -56 l 940 -56 l 915 -11 l 901 -11 l 1007 224 l 707 224 l 582 -56 l 93 -56 l 68 -11 l 54 -11 l 258 447 l 413 556 l 357 669 l 488 965 l 992 965 l 986 951 m 960 943 l 500 943 l 379 671 l 435 557 l 281 447 l 88 11 l 546 11 l 668 288 l 1057 288 l 935 11 l 1396 11 l 1589 447 l 1532 557 l 1690 671 l 1811 943 l 1349 943 l 1264 753 l 875 753 l 960 943 m 847 733 l 856 733 l 872 703 l 1292 703 l 1376 893 l 1769 893 l 1676 682 l 1501 557 l 1565 436 l 1385 31 l 993 31 l 1100 271 l 1082 299 l 1085 307 l 657 307 l 535 31 l 146 31 l 311 403 l 478 522 l 463 556 l 465 557 l 418 647 l 528 893 l 918 893 l 847 733 m 921 622 l 832 421 l 840 421 l 857 390 l 1032 390 l 1118 583 l 1101 614 l 1104 622 l 921 622 m 932 603 l 1076 603 l 1004 440 l 860 440 l 932 603 m 992 463 l 1025 536 l 969 536 l 936 463 l 992 463 z "},"¥":{"ha":1514,"x_min":261,"x_max":1904,"o":"m 610 194 l 628 164 l 560 13 l 421 13 l 376 -86 l 485 -86 l 482 -94 l 499 -125 l 479 -168 l 872 -168 l 908 -86 l 1047 -86 l 1092 13 l 992 13 l 975 43 l 967 43 l 1038 203 l 1176 203 l 1221 301 l 1121 301 l 1103 329 l 1094 329 l 1111 368 l 1701 739 l 1772 899 l 1379 899 l 1301 725 l 1132 607 l 951 607 l 932 638 l 928 638 l 858 758 l 921 899 l 531 899 l 447 713 l 688 369 l 686 364 l 703 333 l 689 301 l 550 301 l 506 203 l 614 203 l 610 194 m 394 63 l 532 63 l 586 183 l 449 183 l 522 349 l 660 349 l 664 358 l 404 728 l 503 949 l 963 949 l 883 769 l 949 657 l 1110 657 l 1272 769 l 1351 949 l 1814 949 l 1715 728 l 1125 357 l 1122 349 l 1258 349 l 1185 183 l 1049 183 l 994 63 l 1131 63 l 1056 -106 l 919 -106 l 883 -187 l 421 -187 l 457 -106 l 319 -106 l 394 63 m 383 85 l 289 -128 l 303 -128 l 326 -169 l 407 -169 l 389 -210 l 403 -210 l 425 -254 l 921 -254 l 958 -169 l 1094 -169 l 1181 26 l 1157 71 l 1163 85 l 1071 85 l 1086 119 l 1222 119 l 1310 315 l 1283 357 l 1290 371 l 1274 371 l 1758 674 l 1865 913 l 1840 957 l 1844 968 l 1338 968 l 1249 768 l 1119 679 l 964 679 l 960 676 l 931 726 l 1014 913 l 989 957 l 993 968 l 489 968 l 379 721 l 408 676 l 410 676 l 411 671 l 619 371 l 511 371 l 418 161 l 426 161 l 431 164 l 454 119 l 535 119 l 519 85 l 383 85 m 372 104 l 431 104 l 428 111 l 415 111 l 397 142 l 389 142 l 500 390 l 571 390 l 389 657 l 356 710 l 479 988 l 1022 988 l 1018 979 l 1036 951 l 1031 938 l 1038 924 l 1035 918 l 1053 888 l 972 708 l 978 699 l 1117 699 l 1235 779 l 1328 988 l 1874 988 l 1869 979 l 1888 951 l 1882 938 l 1889 924 l 1886 918 l 1904 888 l 1789 629 l 1328 342 l 1325 338 l 1333 324 l 1332 321 l 1349 290 l 1250 69 l 1201 69 l 1204 65 l 1197 51 l 1206 38 l 1203 32 l 1219 1 l 1122 -219 l 986 -219 l 947 -304 l 426 -304 l 410 -274 l 404 -274 l 397 -260 l 386 -260 l 369 -229 l 361 -229 l 365 -219 l 329 -219 l 308 -189 l 306 -189 l 299 -178 l 286 -178 l 269 -147 l 261 -147 l 372 104 z "},"¦":{"ha":654,"x_min":-12,"x_max":1079,"o":"m 1049 1068 l 514 1068 l 258 493 l 267 493 l 283 463 l 294 463 l 296 461 l 244 461 l -12 -117 l -4 -117 l 13 -147 l 24 -147 l 31 -161 l 36 -161 l 54 -192 l 564 -192 l 808 358 l 792 389 l 793 394 l 786 408 l 790 418 l 835 418 l 1079 968 l 1063 999 l 1065 1004 l 1057 1018 l 1063 1029 l 1046 1060 l 1049 1068 m 769 383 l 536 -142 l 51 -142 l 29 -97 l 15 -97 l 256 442 l 751 442 l 744 428 l 769 383 m 1017 1038 l 1040 993 l 807 468 l 322 468 l 300 513 l 286 513 l 525 1049 l 1021 1049 l 1017 1038 m 499 -75 l 718 419 l 264 419 l 44 -75 l 499 -75 m 769 535 l 990 1029 l 536 1029 l 315 535 l 769 535 m 292 369 l 676 369 l 488 -56 l 103 -56 l 292 369 m 564 979 l 949 979 l 760 554 l 375 554 l 564 979 z "},"§":{"ha":1514,"x_min":26,"x_max":1901,"o":"m 74 -75 l 79 -75 l 96 -106 l 610 -106 l 735 174 l 1194 174 l 1767 581 l 1901 882 l 1885 913 l 1886 918 l 1879 932 l 1885 946 l 1868 976 l 1872 985 l 1326 985 l 1242 794 l 783 794 l 246 463 l 26 -31 l 35 -31 l 51 -61 l 65 -61 l 74 -75 m 785 775 l 1251 775 l 1336 965 l 1843 965 l 1838 951 l 1863 907 l 1736 625 l 1175 224 l 707 224 l 582 -56 l 93 -56 l 68 -11 l 54 -11 l 261 451 l 785 775 m 1690 671 l 1811 943 l 1349 943 l 1264 753 l 782 753 l 279 444 l 88 11 l 546 11 l 668 288 l 1154 288 l 1690 671 m 801 703 l 1292 703 l 1376 893 l 1769 893 l 1676 682 l 1151 307 l 657 307 l 535 31 l 146 31 l 310 400 l 801 703 m 921 622 l 832 421 l 840 421 l 857 390 l 1032 390 l 1118 583 l 1101 614 l 1104 622 l 921 622 m 932 603 l 1076 603 l 1004 440 l 860 440 l 932 603 m 992 463 l 1025 536 l 969 536 l 936 463 l 992 463 z "},"¨":{"ha":882,"x_min":463,"x_max":1379,"o":"m 581 1011 l 781 1011 l 836 1136 l 636 1136 l 581 1011 m 988 1011 l 1190 1011 l 1246 1136 l 1043 1136 l 988 1011 m 878 1186 l 792 992 l 522 992 l 608 1186 l 878 1186 m 1288 1186 l 1201 992 l 929 992 l 1015 1186 l 1288 1186 m 1314 1194 l 1319 1208 l 1006 1208 l 900 969 l 914 969 l 938 931 l 1240 931 l 1340 1153 l 1314 1194 m 904 1194 l 910 1208 l 596 1208 l 490 969 l 504 969 l 528 931 l 831 931 l 931 1153 l 904 1194 m 1349 1228 l 1344 1219 l 1361 1189 l 1356 1176 l 1364 1164 l 1361 1158 l 1379 1128 l 1268 881 l 940 881 l 924 911 l 918 911 l 913 922 l 899 922 l 886 943 l 858 881 l 531 881 l 514 911 l 508 911 l 503 922 l 489 922 l 471 951 l 463 951 l 586 1228 l 939 1228 l 935 1219 l 951 1189 l 946 1176 l 954 1164 l 951 1158 l 958 1146 l 996 1228 l 1349 1228 z "},"©":{"ha":494,"x_min":374,"x_max":832,"o":"m 672 997 l 669 997 q 661 996 664 997 q 657 994 657 996 l 651 994 l 649 993 q 629 989 635 993 l 615 986 l 614 986 q 601 983 607 986 l 603 983 q 601 982 601 983 q 600 982 601 982 l 597 982 l 572 976 q 565 974 569 975 q 561 974 561 974 q 396 807 444 917 q 379 704 374 757 q 391 677 382 692 q 418 636 400 663 l 421 633 q 425 627 424 631 q 429 621 426 624 l 432 617 q 432 615 431 615 q 435 614 432 614 l 439 604 q 439 603 440 604 q 444 601 440 601 q 451 588 449 590 l 460 576 q 468 572 467 572 q 474 569 469 571 q 510 555 492 561 q 553 549 529 549 l 571 549 q 591 551 581 549 q 625 563 601 554 l 626 563 q 638 565 632 564 q 647 569 644 567 l 656 574 l 656 575 q 669 581 661 575 q 708 601 693 592 q 747 639 724 611 q 811 726 792 683 q 828 776 824 754 q 825 822 832 799 l 818 832 q 815 844 818 842 q 811 853 813 847 l 811 857 l 811 858 l 801 875 q 801 876 800 875 l 794 897 l 790 904 q 756 972 776 944 q 672 997 725 997 m 663 978 q 733 956 706 978 q 752 931 746 942 q 763 904 758 919 l 760 904 l 772 882 q 772 879 769 879 l 772 878 l 774 878 q 783 842 783 858 l 788 842 q 790 801 794 821 q 776 761 785 781 q 715 678 760 722 q 683 649 699 658 q 643 628 667 639 l 639 625 l 639 628 l 633 624 l 622 618 q 614 614 617 615 q 611 613 611 613 q 578 599 588 603 q 557 596 568 596 l 539 596 q 467 615 497 596 l 468 617 q 463 619 463 619 q 460 621 460 619 l 461 621 l 456 631 q 450 636 456 632 l 451 636 q 443 649 447 640 l 433 669 l 431 664 q 415 692 419 679 q 400 728 410 704 l 399 725 q 415 807 396 767 q 571 958 456 899 q 582 960 576 960 q 594 963 588 961 l 611 967 q 614 967 613 967 q 617 968 615 968 q 629 971 625 968 l 633 971 l 636 972 l 639 972 q 649 975 640 972 l 651 975 l 653 976 l 658 976 l 660 978 l 663 978 m 713 936 q 654 956 685 956 q 643 953 647 953 q 636 951 639 953 q 634 951 635 951 q 632 950 633 950 q 622 948 626 949 q 610 946 617 947 q 597 943 608 946 l 579 938 q 570 935 576 936 q 561 932 564 933 q 488 879 519 911 q 438 807 456 847 q 426 772 429 789 q 424 738 424 754 l 419 738 q 431 711 426 722 q 444 689 436 700 q 447 685 444 688 q 449 683 449 683 l 447 683 q 451 678 449 681 q 454 674 453 676 l 456 678 q 521 660 485 660 l 533 660 q 558 664 543 660 q 610 683 572 668 l 619 690 l 621 690 l 629 694 l 629 696 q 635 697 632 696 q 651 708 642 701 q 676 735 661 715 q 712 774 697 757 q 733 807 726 792 q 740 885 747 839 l 739 883 q 734 913 739 900 q 715 936 729 925 l 713 936 m 710 832 l 721 840 l 724 844 q 719 828 721 836 q 714 813 718 819 l 713 807 q 669 747 700 779 q 601 696 638 715 q 593 694 597 694 q 588 693 590 694 q 575 692 582 692 q 568 690 572 692 q 553 688 557 688 q 549 687 550 688 q 546 686 547 686 q 543 685 544 686 q 540 685 542 685 q 532 682 538 685 l 533 686 l 522 686 q 513 689 518 686 q 499 692 506 690 q 481 696 492 693 l 471 697 q 447 753 447 719 q 458 807 444 776 q 503 872 472 840 l 501 871 q 644 936 571 936 l 650 936 q 707 908 686 936 q 724 844 728 881 q 718 847 724 847 l 714 842 l 710 832 m 550 724 q 639 776 601 724 l 621 781 q 590 753 607 761 q 558 744 574 744 q 529 807 501 744 q 617 874 557 874 q 649 842 646 874 l 665 844 q 624 890 668 890 q 507 807 543 890 q 550 724 469 724 m 608 806 q 575 763 593 796 q 613 803 593 775 l 608 806 m 700 838 q 705 849 704 847 q 706 851 706 850 l 704 853 q 704 856 706 856 q 706 857 704 856 l 694 864 q 694 868 694 868 q 690 872 696 872 l 683 858 l 688 861 l 692 861 l 689 858 l 700 838 m 640 810 l 633 810 l 631 804 l 635 800 l 640 810 z "},"ª":{"ha":1514,"x_min":75,"x_max":1861,"o":"m 378 611 l 381 611 l 389 597 l 267 513 l 75 81 l 138 -31 l 142 -31 l 165 -75 l 171 -75 l 188 -106 l 1357 -106 l 1508 1 l 1861 792 l 1843 819 l 1844 825 l 1821 871 l 1822 875 l 1763 985 l 478 985 l 329 653 l 338 653 l 354 622 l 369 622 l 378 611 m 1799 864 l 1797 860 l 1822 817 l 1479 46 l 1335 -56 l 185 -56 l 161 -11 l 157 -11 l 99 92 l 282 501 l 431 604 l 1176 604 l 1188 631 l 397 631 l 369 675 l 365 672 l 357 672 l 488 965 l 1742 965 l 1799 864 m 1776 864 l 1732 943 l 500 943 l 390 694 l 1239 694 l 1189 582 l 421 582 l 304 501 l 121 92 l 169 8 l 174 11 l 1318 11 l 1433 93 l 1776 864 m 443 532 l 1217 532 l 1279 675 l 1263 706 l 1267 714 l 449 714 l 528 893 l 1729 893 l 1751 853 l 1418 104 l 1315 31 l 188 31 l 163 72 l 333 457 l 443 532 m 629 243 l 638 243 l 654 213 l 1074 213 l 1154 394 l 1138 425 l 1142 433 l 714 433 l 629 243 m 725 414 l 1114 414 l 1046 263 l 657 263 l 725 414 m 1032 282 l 1063 350 l 763 350 l 732 282 l 1032 282 z "},"«":{"ha":686,"x_min":157,"x_max":1035,"o":"m 478 471 l 574 515 l 521 396 l 496 440 l 500 450 l 478 471 m 379 483 l 361 506 l 519 588 l 596 757 l 428 675 l 254 283 l 350 206 l 444 417 l 389 468 l 379 483 m 668 483 l 647 506 l 806 588 l 882 757 l 714 675 l 540 283 l 636 206 l 731 417 l 678 468 l 668 483 m 654 844 l 532 572 l 397 506 l 472 438 l 353 168 l 207 289 l 399 721 l 654 844 m 940 844 l 818 572 l 686 506 l 758 438 l 639 168 l 493 289 l 685 721 l 940 844 m 685 865 l 694 886 l 386 735 l 182 278 l 194 264 l 196 268 l 218 225 l 383 88 l 468 276 l 481 264 l 482 268 l 504 225 l 669 88 l 807 396 l 782 440 l 786 450 l 764 471 l 861 517 l 996 821 l 971 865 l 981 886 l 672 736 l 710 821 l 685 865 m 372 749 l 731 924 l 724 908 l 740 878 l 726 846 l 735 832 l 732 826 l 749 796 l 747 792 l 1017 924 l 1010 908 l 1026 878 l 1013 846 l 1021 832 l 1018 826 l 1035 796 l 890 471 l 819 438 l 826 426 l 824 421 l 831 407 l 829 401 l 846 371 l 692 24 l 507 179 l 496 199 l 486 207 l 406 24 l 221 179 l 207 200 l 200 208 l 192 224 l 181 232 l 169 250 l 157 265 l 372 749 z "},"¬":{"ha":949,"x_min":207,"x_max":1175,"o":"m 872 431 l 889 400 l 788 172 l 883 172 l 1044 532 l 368 532 l 325 436 l 875 436 l 872 431 m 732 153 l 850 419 l 267 419 l 340 582 l 1086 582 l 894 153 l 732 153 m 1110 588 l 1117 601 l 326 601 l 235 397 l 249 397 l 271 353 l 799 353 l 701 133 l 715 133 l 736 89 l 932 89 l 1136 546 l 1110 588 m 315 621 l 1144 621 l 1140 613 l 1158 582 l 1153 569 l 1161 557 l 1158 551 l 1175 521 l 960 39 l 739 39 l 722 69 l 717 69 l 713 83 l 699 83 l 682 114 l 674 114 l 757 303 l 274 303 l 257 333 l 251 333 l 243 347 l 232 347 l 215 378 l 207 378 l 315 621 z "},"­":{"ha":556,"x_min":203,"x_max":775,"o":"m 315 422 l 601 422 l 643 515 l 357 515 l 315 422 m 683 563 l 613 403 l 257 403 l 328 563 l 683 563 m 710 571 l 715 583 l 318 583 l 231 386 l 242 386 l 267 343 l 653 343 l 736 529 l 710 571 m 239 336 l 228 336 l 211 367 l 203 367 l 307 603 l 743 603 l 740 594 l 757 564 l 751 551 l 760 540 l 757 535 l 775 504 l 681 293 l 267 293 l 251 324 l 247 324 l 239 336 z "},"®":{"ha":494,"x_min":368,"x_max":831,"o":"m 672 997 q 463 922 610 997 l 488 922 q 483 919 485 919 q 481 917 482 918 q 471 908 474 910 l 456 893 q 422 854 433 871 q 396 807 410 838 q 375 713 368 744 q 385 680 378 694 q 406 650 392 665 q 410 644 404 646 l 408 644 l 417 632 q 417 631 415 631 q 436 606 418 617 l 444 593 q 453 582 447 588 q 465 572 458 576 l 474 564 q 553 549 493 549 l 575 549 q 597 552 586 549 q 633 565 607 556 l 646 569 q 692 592 669 581 q 732 624 714 604 q 783 679 767 656 q 811 726 800 703 q 826 776 822 754 q 824 821 831 797 l 815 836 q 812 844 813 839 q 808 856 811 849 l 807 856 l 808 858 l 806 864 q 798 885 801 875 q 790 904 794 894 l 783 914 q 782 918 782 917 q 781 922 782 919 q 764 956 774 940 l 765 957 l 765 960 q 756 964 764 961 l 756 965 q 755 966 754 965 q 754 967 756 967 q 753 968 753 967 l 753 969 q 672 997 717 997 m 792 857 l 790 856 l 788 856 l 790 858 l 792 857 z "},"¯":{"ha":964,"x_min":351,"x_max":1335,"o":"m 471 764 l 1163 764 l 1201 851 l 510 851 l 471 764 m 1243 901 l 1174 744 l 413 744 l 482 901 l 1243 901 m 1269 910 l 1275 924 l 469 924 l 381 722 l 394 722 l 418 683 l 1213 683 l 1294 868 l 1269 910 m 458 943 l 1303 943 l 1300 935 l 1317 904 l 1311 892 l 1319 879 l 1317 874 l 1335 846 l 1240 633 l 421 633 l 404 664 l 399 664 l 392 675 l 378 675 l 360 703 l 351 703 l 458 943 z "},"°":{"ha":461,"x_min":460,"x_max":958,"o":"m 931 1228 l 583 1228 l 460 951 l 468 951 l 486 922 l 501 922 l 508 911 l 510 911 l 528 881 l 847 881 l 958 1128 l 940 1158 l 943 1164 l 938 1175 l 943 1189 l 926 1219 l 931 1228 m 919 1153 l 819 931 l 525 931 l 500 972 l 496 969 l 488 969 l 593 1208 l 901 1208 l 896 1194 l 919 1153 m 783 992 l 869 1186 l 606 1186 l 519 992 l 783 992 m 631 1136 l 828 1136 l 772 1011 l 575 1011 l 631 1136 m 640 1014 l 751 1014 l 789 1097 l 771 1126 l 774 1133 l 654 1133 l 615 1044 l 624 1044 l 640 1014 m 667 1117 l 747 1117 l 724 1064 l 643 1064 l 667 1117 z "},"±":{"ha":949,"x_min":25,"x_max":1210,"o":"m 144 31 l 821 31 l 864 126 l 188 126 l 144 31 m 532 251 l 628 251 l 743 511 l 1035 511 l 1078 607 l 825 607 l 807 638 l 799 638 l 900 864 l 804 864 l 690 607 l 401 607 l 358 511 l 617 511 l 613 503 l 629 472 l 532 251 m 906 176 l 832 11 l 86 11 l 160 176 l 906 176 m 472 232 l 589 492 l 300 492 l 374 657 l 663 657 l 776 914 l 942 914 l 828 657 l 1119 657 l 1046 492 l 754 492 l 638 232 l 472 232 m 931 185 l 938 199 l 690 199 l 790 425 l 1082 425 l 1171 624 l 1144 665 l 1151 679 l 904 679 l 992 878 l 968 922 l 974 936 l 764 936 l 650 679 l 361 679 l 267 469 l 281 469 l 303 425 l 536 425 l 440 210 l 454 210 l 461 199 l 147 199 l 53 -11 l 67 -11 l 89 -56 l 868 -56 l 956 140 l 931 185 m 1008 903 l 1017 889 l 1014 883 l 1031 853 l 963 699 l 1179 699 l 1175 690 l 1192 660 l 1186 647 l 1194 635 l 1193 629 l 1210 599 l 1110 375 l 818 375 l 749 218 l 965 218 l 961 210 l 978 179 l 972 165 l 981 151 l 978 146 l 994 115 l 896 -106 l 92 -106 l 75 -75 l 69 -75 l 61 -61 l 50 -61 l 33 -31 l 25 -31 l 136 218 l 425 218 l 494 375 l 306 375 l 289 406 l 283 406 l 275 419 l 264 419 l 247 450 l 239 450 l 350 699 l 639 699 l 753 956 l 1001 956 l 999 947 l 1015 917 l 1008 903 z "},"²":{"ha":786,"x_min":269,"x_max":1183,"o":"m 958 768 l 999 794 l 1075 968 l 561 968 l 525 886 l 826 886 l 822 878 l 840 847 l 808 776 l 504 776 l 464 747 l 388 578 l 901 578 l 939 661 l 643 661 l 626 692 l 618 692 l 651 768 l 958 768 m 664 751 l 646 711 l 981 711 l 913 558 l 329 558 l 432 789 l 482 826 l 781 826 l 799 867 l 467 867 l 533 1018 l 1081 1018 l 1100 981 l 1013 783 l 963 751 l 664 751 m 1090 1038 l 521 1038 l 435 844 l 449 844 l 458 824 l 410 789 l 297 536 l 311 536 l 333 492 l 950 492 l 1031 675 l 1013 707 l 1061 742 l 1144 931 l 1121 976 l 1122 981 l 1090 1038 m 1147 992 l 1146 988 l 1169 942 l 1167 936 l 1183 906 l 1092 697 l 1056 672 l 1069 650 l 978 444 l 336 444 l 318 472 l 313 472 l 306 486 l 294 486 l 278 517 l 269 517 l 394 800 l 418 817 l 414 825 l 406 825 l 510 1057 l 1110 1057 l 1147 992 z "},"³":{"ha":789,"x_min":269,"x_max":1185,"o":"m 793 692 l 782 692 l 799 661 l 425 661 l 388 578 l 872 578 l 919 611 l 971 726 l 933 783 l 1025 850 l 1076 964 l 1074 968 l 561 968 l 525 886 l 879 886 l 860 876 l 878 844 l 754 776 l 476 776 l 472 768 l 717 768 l 793 692 m 397 711 l 736 711 l 699 751 l 415 751 l 449 826 l 732 826 l 806 867 l 467 867 l 533 1018 l 1079 1018 l 1101 975 l 1043 846 l 1044 843 l 964 783 l 996 739 l 935 601 l 876 558 l 329 558 l 397 711 m 1015 732 l 1019 742 l 1017 746 l 1086 792 l 1146 926 l 1122 972 l 1124 976 l 1090 1038 l 521 1038 l 297 536 l 311 536 l 333 492 l 896 492 l 979 553 l 1040 689 l 1015 732 m 278 517 l 269 517 l 510 1057 l 1110 1057 l 1149 988 l 1146 983 l 1171 938 l 1168 932 l 1185 901 l 1117 750 l 1060 710 l 1064 700 l 1063 694 l 1079 664 l 1010 508 l 918 444 l 336 444 l 318 472 l 313 472 l 306 486 l 294 486 l 278 517 z "},"´":{"ha":458,"x_min":433,"x_max":1142,"o":"m 610 1011 l 782 1011 l 940 1136 l 740 1136 l 610 1011 m 1031 1186 l 785 992 l 519 992 l 718 1186 l 1031 1186 m 519 931 l 810 931 l 1097 1156 l 1069 1196 l 1083 1208 l 714 1208 l 474 969 l 496 969 l 519 931 m 1138 1228 l 1124 1218 l 1142 1186 l 1119 1168 l 1128 1157 l 1124 1154 l 1142 1124 l 832 881 l 522 881 l 506 911 l 500 911 l 494 922 l 465 922 l 447 951 l 433 951 l 715 1228 l 1138 1228 z "},"µ":{"ha":1514,"x_min":-49,"x_max":1904,"o":"m 1038 924 l 1031 938 l 1035 949 l 1018 979 l 1022 988 l 479 988 l -49 -196 l -40 -196 l -24 -226 l -10 -226 l -1 -240 l 4 -240 l 21 -271 l 536 -271 l 610 -106 l 1357 -106 l 1508 1 l 1904 888 l 1886 918 l 1889 924 l 1882 938 l 1886 949 l 1869 979 l 1874 988 l 1328 988 l 1024 304 l 793 304 l 1053 888 l 1035 918 l 1038 924 m 1033 285 l 1338 968 l 1844 968 l 1839 954 l 1865 913 l 1479 46 l 1335 -56 l 582 -56 l 508 -221 l 18 -221 l -7 -176 l -21 -176 l 489 968 l 993 968 l 988 954 l 1014 913 l 733 285 l 1033 285 m 961 946 l 501 946 l 13 -154 l 472 -154 l 546 11 l 1318 11 l 1433 93 l 1813 946 l 1350 946 l 1046 263 l 657 263 l 961 946 m 629 243 l 638 243 l 654 213 l 1074 213 l 1379 899 l 1772 899 l 1418 104 l 1315 31 l 535 31 l 461 -135 l 71 -135 l 531 899 l 921 899 l 629 243 z "},"¶":{"ha":1467,"x_min":115,"x_max":1857,"o":"m 479 461 l 496 431 l 235 -157 l 626 -157 l 907 474 l 1113 474 l 1108 465 l 1125 435 l 863 -157 l 1256 -157 l 1725 899 l 692 899 l 483 793 l 385 572 l 482 467 l 479 461 m 803 -176 l 1085 454 l 918 454 l 636 -176 l 175 -176 l 457 454 l 340 582 l 454 839 l 671 949 l 1767 949 l 1265 -176 l 803 -176 m 426 436 l 143 -199 l 157 -199 l 182 -243 l 674 -243 l 954 388 l 1032 388 l 771 -199 l 785 -199 l 810 -243 l 1303 -243 l 1818 913 l 1793 957 l 1797 968 l 672 968 l 438 851 l 314 575 l 329 556 l 331 560 l 356 517 l 426 436 m 154 -249 l 140 -249 l 124 -218 l 115 -218 l 399 419 l 357 468 l 349 483 l 333 500 l 322 519 l 314 529 l 306 542 l 289 563 l 424 865 l 671 988 l 1826 988 l 1822 979 l 1840 951 l 1835 938 l 1842 924 l 1839 918 l 1857 888 l 1331 -293 l 813 -293 l 796 -262 l 790 -262 l 782 -249 l 768 -249 l 751 -218 l 743 -218 l 990 338 l 982 338 l 701 -293 l 185 -293 l 168 -262 l 163 -262 l 154 -249 z "},"·":{"ha":585,"x_min":172,"x_max":842,"o":"m 811 690 l 346 690 l 172 299 l 181 299 l 197 268 l 208 268 l 215 254 l 221 254 l 236 224 l 679 224 l 842 590 l 825 621 l 828 626 l 819 639 l 825 651 l 808 682 l 811 690 m 803 615 l 651 274 l 236 274 l 211 318 l 200 318 l 357 671 l 783 671 l 778 657 l 803 615 m 614 340 l 753 651 l 368 651 l 229 340 l 614 340 m 396 601 l 711 601 l 601 357 l 286 357 l 396 601 z "},"¸":{"ha":360,"x_min":-368,"x_max":329,"o":"m -207 -104 l -249 -197 l 131 -197 l 199 -44 l 106 -44 l 79 -104 l -207 -104 m -236 -57 l 50 -57 l 78 6 l 240 6 l 142 -217 l -307 -217 l -236 -57 m 265 14 l 272 28 l 68 28 l 39 -36 l -250 -36 l -340 -239 l -326 -239 l -301 -279 l 181 -279 l 290 -31 l 265 14 m -260 -17 l 29 -17 l 57 47 l 300 47 l 296 39 l 314 8 l 307 -6 l 315 -19 l 313 -25 l 329 -56 l 208 -328 l -299 -328 l -315 -297 l -321 -297 l -328 -286 l -342 -286 l -360 -258 l -368 -258 l -260 -17 z "},"¹":{"ha":550,"x_min":369,"x_max":971,"o":"m 589 879 l 606 849 l 485 578 l 665 578 l 839 968 l 557 968 l 522 888 l 593 888 l 589 879 m 426 558 l 564 868 l 464 868 l 531 1018 l 881 1018 l 676 558 l 426 558 m 397 536 l 410 536 l 433 492 l 714 492 l 932 982 l 907 1025 l 913 1038 l 521 1038 l 435 846 l 446 846 l 471 801 l 515 801 l 397 536 m 406 486 l 394 486 l 378 517 l 369 517 l 475 754 l 472 754 l 457 782 l 451 782 l 443 796 l 432 796 l 415 826 l 407 826 l 510 1057 l 940 1057 l 936 1049 l 953 1018 l 947 1006 l 956 993 l 954 988 l 971 957 l 742 444 l 436 444 l 418 472 l 413 472 l 406 486 z "},"º":{"ha":847,"x_min":299,"x_max":1246,"o":"m 363 472 l 368 472 l 386 444 l 976 444 l 1067 504 l 1246 907 l 1229 938 l 1231 943 l 1207 988 l 1208 993 l 1169 1057 l 574 1057 l 481 992 l 299 585 l 333 517 l 339 517 l 363 472 m 324 596 l 494 981 l 576 1038 l 1150 1038 l 1185 982 l 1182 976 l 1207 932 l 1036 549 l 954 492 l 383 492 l 358 536 l 353 536 l 324 596 m 990 596 l 1163 982 l 1139 1021 l 1135 1018 l 567 1018 l 517 981 l 346 596 l 363 558 l 936 558 l 990 596 m 589 968 l 1136 968 l 976 607 l 933 578 l 388 578 l 547 936 l 589 968 m 707 888 l 619 692 l 628 692 l 644 661 l 817 661 l 900 849 l 883 879 l 888 888 l 707 888 m 717 868 l 858 868 l 789 711 l 647 711 l 717 868 m 779 733 l 810 801 l 754 801 l 724 733 l 779 733 z "},"»":{"ha":686,"x_min":78,"x_max":975,"o":"m 653 749 l 450 924 l 283 550 l 301 529 l 308 517 l 314 508 l 318 501 l 244 463 l 78 89 l 89 93 l 107 65 l 128 72 l 136 67 l 160 35 l 390 146 l 364 89 l 375 93 l 393 65 l 414 72 l 422 67 l 446 35 l 765 189 l 975 661 l 957 689 l 960 694 l 951 707 l 953 711 l 936 742 l 939 749 l 736 924 l 653 736 l 650 742 l 653 749 m 622 725 l 649 683 l 739 886 l 914 735 l 908 725 l 935 683 l 733 232 l 438 90 l 414 129 l 399 122 l 447 231 l 151 90 l 128 129 l 113 122 l 258 450 l 354 501 l 347 504 l 322 551 l 319 547 l 308 563 l 453 886 l 628 735 l 622 725 m 153 168 l 407 289 l 599 721 l 454 844 l 332 572 l 406 506 l 272 438 l 153 168 m 439 168 l 693 289 l 885 721 l 740 844 l 618 572 l 694 506 l 558 438 l 439 168 m 738 506 l 667 567 l 761 781 l 856 699 l 679 303 l 513 222 l 589 392 l 744 471 l 725 500 l 738 506 m 451 506 l 381 567 l 475 781 l 569 699 l 393 303 l 226 222 l 303 392 l 458 471 l 439 500 l 451 506 m 546 451 l 640 501 l 633 504 l 608 551 l 606 547 l 596 564 l 546 451 z "},"¼":{"ha":1603,"x_min":165,"x_max":1763,"o":"m 583 850 l 601 819 l 478 543 l 661 543 l 836 936 l 547 936 l 513 858 l 588 858 l 583 850 m 1210 200 l 1201 200 l 1282 381 l 1099 381 l 1000 160 l 1314 160 l 1311 151 l 1328 121 l 1268 -12 l 1456 -12 l 1631 381 l 1443 381 l 1349 169 l 1226 169 l 1210 200 m 419 524 l 560 839 l 454 839 l 519 986 l 878 986 l 672 524 l 419 524 m 1229 219 l 1321 219 l 1415 431 l 1672 431 l 1467 -32 l 1210 -32 l 1286 140 l 942 140 l 1071 431 l 1324 431 l 1229 219 m 628 31 l 1433 896 l 1138 896 l 332 31 l 628 31 m 1117 946 l 1501 946 l 635 11 l 250 11 l 1117 946 m 1350 439 l 1356 453 l 1139 453 l 1563 910 l 1538 953 l 1549 968 l 1110 968 l 783 613 l 778 613 l 929 953 l 904 994 l 910 1008 l 507 1008 l 422 817 l 436 817 l 461 772 l 508 772 l 388 501 l 401 501 l 422 457 l 635 457 l 201 -11 l 221 -11 l 246 -56 l 667 -56 l 974 274 l 979 274 l 910 119 l 924 119 l 949 75 l 1235 75 l 1178 -54 l 1192 -54 l 1215 -99 l 1503 -99 l 1724 397 l 1699 439 l 1704 453 l 1403 453 l 1376 392 l 1350 439 m 1585 911 l 1601 883 l 1221 472 l 1381 472 l 1378 464 l 1383 453 l 1392 472 l 1732 472 l 1729 464 l 1746 433 l 1740 421 l 1749 408 l 1746 403 l 1763 372 l 1531 -149 l 1218 -149 l 1201 -118 l 1196 -118 l 1189 -104 l 1175 -104 l 1157 -74 l 1149 -74 l 1193 25 l 951 25 l 935 56 l 929 56 l 921 69 l 907 69 l 890 100 l 882 100 l 883 104 l 690 -106 l 249 -106 l 232 -75 l 226 -75 l 218 -61 l 193 -61 l 176 -31 l 165 -31 l 568 407 l 425 407 l 408 438 l 403 438 l 396 451 l 385 451 l 367 482 l 358 482 l 467 722 l 464 722 l 446 753 l 440 753 l 433 767 l 419 767 l 403 797 l 394 797 l 496 1028 l 938 1028 l 935 1019 l 951 989 l 946 976 l 954 964 l 951 958 l 968 928 l 890 751 l 1108 988 l 1589 988 l 1579 976 l 1596 949 l 1582 929 l 1589 915 l 1585 911 z "},"½":{"ha":1593,"x_min":158,"x_max":1731,"o":"m 583 850 l 601 819 l 478 543 l 661 543 l 836 936 l 547 936 l 513 858 l 588 858 l 583 850 m 419 524 l 560 839 l 454 839 l 519 986 l 878 986 l 672 524 l 419 524 m 1504 182 l 1546 211 l 1621 382 l 1099 382 l 1063 300 l 1367 300 l 1364 293 l 1382 264 l 1350 193 l 1046 193 l 1001 161 l 924 -11 l 1446 -11 l 1485 75 l 1186 75 l 1169 106 l 1161 106 l 1194 182 l 1504 182 m 1206 163 l 1189 125 l 1526 125 l 1457 -31 l 865 -31 l 971 206 l 1024 243 l 1322 243 l 1340 283 l 1006 283 l 1071 432 l 1626 432 l 1647 397 l 1560 200 l 1507 163 l 1206 163 m 621 31 l 1426 896 l 1131 896 l 325 31 l 621 31 m 1110 946 l 1494 946 l 628 11 l 243 11 l 1110 946 m 1638 454 l 1135 454 l 1556 910 l 1531 953 l 1542 968 l 1103 968 l 790 626 l 785 626 l 929 953 l 904 994 l 910 1008 l 507 1008 l 422 817 l 436 817 l 461 772 l 508 772 l 388 501 l 401 501 l 422 457 l 626 457 l 194 -11 l 214 -11 l 239 -56 l 660 -56 l 979 288 l 985 288 l 974 261 l 988 261 l 997 240 l 949 206 l 833 -53 l 847 -53 l 872 -97 l 1494 -97 l 1576 89 l 1558 121 l 1606 153 l 1692 347 l 1668 393 l 1669 397 l 1638 454 m 1694 408 l 1693 404 l 1717 358 l 1714 353 l 1731 322 l 1636 108 l 1603 86 l 1615 64 l 1522 -147 l 875 -147 l 858 -117 l 853 -117 l 844 -103 l 831 -103 l 814 -72 l 806 -72 l 890 118 l 683 -106 l 242 -106 l 225 -75 l 219 -75 l 211 -61 l 186 -61 l 169 -31 l 158 -31 l 561 407 l 425 407 l 408 438 l 403 438 l 396 451 l 385 451 l 367 482 l 358 482 l 467 722 l 464 722 l 446 753 l 440 753 l 433 767 l 419 767 l 403 797 l 394 797 l 496 1028 l 938 1028 l 935 1019 l 951 989 l 946 976 l 954 964 l 951 958 l 968 928 l 896 765 l 1101 988 l 1582 988 l 1572 976 l 1589 949 l 1575 929 l 1582 915 l 1578 911 l 1594 883 l 1217 474 l 1657 474 l 1694 408 z "},"¾":{"ha":1831,"x_min":253,"x_max":1990,"o":"m 1435 200 l 1428 200 l 1508 381 l 1324 381 l 1225 160 l 1542 160 l 1539 151 l 1556 121 l 1496 -12 l 1683 -12 l 1858 381 l 1671 381 l 1576 169 l 1451 169 l 1435 200 m 788 660 l 774 660 l 792 629 l 411 629 l 372 543 l 867 543 l 913 578 l 964 693 l 932 754 l 1021 821 l 1072 935 l 1071 936 l 547 936 l 513 857 l 872 857 l 853 847 l 869 815 l 747 747 l 464 747 l 458 736 l 708 736 l 788 660 m 1454 219 l 1549 219 l 1643 431 l 1900 431 l 1694 -32 l 1438 -32 l 1514 140 l 1167 140 l 1296 431 l 1549 431 l 1454 219 m 383 679 l 729 679 l 689 717 l 400 717 l 436 797 l 725 797 l 799 838 l 453 838 l 519 986 l 1076 986 l 1096 946 l 1036 811 l 963 754 l 989 704 l 928 568 l 871 524 l 314 524 l 383 679 m 856 31 l 1661 896 l 1365 896 l 557 31 l 856 31 m 1344 946 l 1729 946 l 863 11 l 475 11 l 1344 946 m 1575 439 l 1581 453 l 1365 453 l 1788 910 l 1763 953 l 1774 968 l 1338 968 l 1029 635 l 1024 635 l 1035 657 l 1008 697 l 1013 707 l 1008 711 l 1081 763 l 1142 897 l 1117 943 l 1119 947 l 1088 1008 l 507 1008 l 282 501 l 296 501 l 319 457 l 860 457 l 429 -11 l 446 -11 l 471 -56 l 894 -56 l 1199 274 l 1204 274 l 1135 119 l 1149 119 l 1174 75 l 1463 75 l 1406 -54 l 1419 -54 l 1443 -99 l 1731 -99 l 1951 397 l 1926 439 l 1932 453 l 1631 453 l 1604 392 l 1575 439 m 1813 911 l 1829 883 l 1447 472 l 1608 472 l 1606 464 l 1611 453 l 1619 472 l 1960 472 l 1957 464 l 1974 433 l 1968 421 l 1976 408 l 1974 403 l 1990 372 l 1758 -149 l 1446 -149 l 1429 -118 l 1424 -118 l 1417 -104 l 1403 -104 l 1385 -74 l 1376 -74 l 1421 25 l 1176 25 l 1160 56 l 1154 56 l 1146 69 l 1132 69 l 1115 100 l 1107 100 l 918 -106 l 474 -106 l 457 -75 l 451 -75 l 443 -61 l 418 -61 l 404 -31 l 393 -31 l 792 407 l 322 407 l 306 438 l 300 438 l 293 451 l 279 451 l 261 482 l 253 482 l 496 1028 l 1107 1028 l 1143 958 l 1142 954 l 1165 908 l 1163 903 l 1181 875 l 1136 772 l 1336 988 l 1814 988 l 1804 976 l 1824 949 l 1806 928 l 1817 915 l 1813 911 z "},"¿":{"ha":1393,"x_min":75,"x_max":1663,"o":"m 1090 985 l 919 601 l 417 601 l 257 489 l 75 82 l 135 -31 l 140 -31 l 163 -75 l 168 -75 l 185 -106 l 1340 -106 l 1478 201 l 1460 232 l 1463 238 l 1456 251 l 1461 265 l 1443 293 l 1447 301 l 1325 301 l 1439 382 l 1518 558 l 1506 581 l 1528 581 l 1663 882 l 1646 913 l 1647 918 l 1640 932 l 1646 946 l 1629 976 l 1633 985 l 1090 985 m 1624 907 l 1500 631 l 1453 631 l 1479 583 l 1410 426 l 1268 328 l 753 328 l 732 282 l 1418 282 l 1414 271 l 1439 226 l 1313 -56 l 182 -56 l 160 -11 l 154 -11 l 100 93 l 271 478 l 419 582 l 931 582 l 957 642 l 1004 642 l 982 675 l 978 672 l 969 672 l 1100 965 l 1604 965 l 1599 951 l 1624 907 m 293 478 l 122 93 l 165 11 l 1276 11 l 1388 263 l 657 263 l 715 392 l 1251 392 l 1368 476 l 1367 479 l 1429 619 l 969 619 l 942 560 l 408 560 l 293 478 m 654 213 l 1346 213 l 1265 31 l 185 31 l 163 72 l 324 433 l 431 510 l 969 510 l 997 569 l 1388 569 l 1349 483 l 1247 411 l 704 411 l 629 243 l 638 243 l 654 213 m 1463 694 l 1572 943 l 1113 943 l 1003 694 l 1463 694 m 1140 893 l 1531 893 l 1451 714 l 1061 714 l 1140 893 z "},"À":{"ha":1514,"x_min":25,"x_max":1864,"o":"m 906 558 l 1136 558 l 1146 581 l 915 581 l 906 558 m 1188 631 l 1147 539 l 847 539 l 888 631 l 1188 631 m 1138 1053 l 1357 1053 l 1343 1186 l 1086 1186 l 1138 1053 m 1360 1236 l 1385 1036 l 1119 1036 l 1040 1236 l 1360 1236 m 771 517 l 1160 517 l 1240 697 l 851 697 l 771 517 m 1264 708 l 1281 678 l 1188 467 l 768 467 l 750 497 l 742 497 l 840 717 l 1268 717 l 1264 708 m 1114 371 l 1110 363 l 1128 335 l 993 31 l 1386 31 l 1754 858 l 1732 899 l 604 899 l 497 824 l 144 31 l 535 31 l 686 371 l 1114 371 m 935 11 l 1086 351 l 697 351 l 546 11 l 86 11 l 467 868 l 582 949 l 1735 949 l 1779 869 l 1397 11 l 935 11 m 1133 971 l 592 971 l 444 868 l 53 -11 l 67 -11 l 92 -56 l 582 -56 l 735 288 l 1035 288 l 901 -11 l 915 -11 l 940 -56 l 1433 -56 l 1825 822 l 1799 864 l 1801 869 l 1744 971 l 1436 971 l 1411 1194 l 1385 1242 l 1388 1242 l 1385 1258 l 1007 1258 l 1101 1014 l 1110 1014 l 1133 971 m 589 990 l 1089 990 l 1088 994 l 1082 994 l 975 1278 l 1408 1278 l 1411 1258 l 1422 1239 l 1425 1224 l 1431 1214 l 1432 1200 l 1432 1201 l 1446 1178 l 1463 990 l 1764 990 l 1825 881 l 1822 875 l 1849 833 l 1846 828 l 1864 797 l 1461 -106 l 943 -106 l 926 -75 l 921 -75 l 913 -61 l 899 -61 l 882 -31 l 874 -31 l 993 238 l 763 238 l 610 -106 l 94 -106 l 78 -75 l 72 -75 l 64 -61 l 50 -61 l 33 -31 l 25 -31 l 431 879 l 589 990 z "},"Á":{"ha":1514,"x_min":25,"x_max":1864,"o":"m 906 558 l 1136 558 l 1146 581 l 915 581 l 906 558 m 1090 1053 l 1271 1053 l 1438 1186 l 1226 1186 l 1090 1053 m 1188 631 l 1147 539 l 847 539 l 888 631 l 1188 631 m 1529 1236 l 1275 1036 l 1004 1036 l 1210 1236 l 1529 1236 m 771 517 l 1160 517 l 1240 697 l 851 697 l 771 517 m 1264 708 l 1281 678 l 1188 467 l 768 467 l 750 497 l 742 497 l 840 717 l 1268 717 l 1264 708 m 1114 371 l 1110 363 l 1128 335 l 993 31 l 1386 31 l 1754 858 l 1732 899 l 604 899 l 497 824 l 144 31 l 535 31 l 686 371 l 1114 371 m 935 11 l 1086 351 l 697 351 l 546 11 l 86 11 l 467 868 l 582 949 l 1735 949 l 1779 869 l 1397 11 l 935 11 m 1744 971 l 1301 971 l 1596 1203 l 1568 1246 l 1582 1258 l 1204 1258 l 958 1014 l 981 1014 l 1001 971 l 592 971 l 444 868 l 53 -11 l 67 -11 l 92 -56 l 582 -56 l 735 288 l 1035 288 l 901 -11 l 915 -11 l 940 -56 l 1433 -56 l 1825 822 l 1799 864 l 1801 869 l 1744 971 m 1636 1278 l 1622 1268 l 1640 1236 l 1618 1215 l 1625 1204 l 1621 1201 l 1636 1169 l 1408 990 l 1764 990 l 1825 881 l 1822 875 l 1849 833 l 1846 828 l 1864 797 l 1461 -106 l 943 -106 l 926 -75 l 921 -75 l 913 -61 l 899 -61 l 882 -31 l 874 -31 l 993 238 l 763 238 l 610 -106 l 94 -106 l 78 -75 l 72 -75 l 64 -61 l 50 -61 l 33 -31 l 25 -31 l 431 879 l 589 990 l 933 990 l 932 994 l 918 994 l 1206 1278 l 1636 1278 z "},"Â":{"ha":1514,"x_min":25,"x_max":1864,"o":"m 1244 1014 l 1254 1014 l 1278 971 l 1157 971 l 1235 1040 l 1244 1014 m 906 558 l 1136 558 l 1146 581 l 915 581 l 906 558 m 1188 631 l 1147 539 l 847 539 l 888 631 l 1188 631 m 1263 1182 l 1267 1150 l 1267 1151 l 1278 1133 l 1292 1053 l 1508 1053 l 1485 1186 l 1090 1186 l 949 1053 l 1118 1053 l 1263 1182 m 771 517 l 1160 517 l 1240 697 l 851 697 l 771 517 m 854 1036 l 1067 1236 l 1504 1236 l 1539 1036 l 1264 1036 l 1243 1139 l 1126 1036 l 854 1036 m 1264 708 l 1281 678 l 1188 467 l 768 467 l 750 497 l 742 497 l 840 717 l 1268 717 l 1264 708 m 1114 371 l 1110 363 l 1128 335 l 993 31 l 1386 31 l 1754 858 l 1732 899 l 604 899 l 497 824 l 144 31 l 535 31 l 686 371 l 1114 371 m 935 11 l 1086 351 l 697 351 l 546 11 l 86 11 l 467 868 l 582 949 l 1735 949 l 1779 869 l 1397 11 l 935 11 m 1528 1239 l 1531 1239 l 1528 1258 l 1065 1258 l 804 1014 l 822 1014 l 846 971 l 592 971 l 444 868 l 53 -11 l 67 -11 l 92 -56 l 582 -56 l 735 288 l 1035 288 l 901 -11 l 915 -11 l 940 -56 l 1433 -56 l 1825 822 l 1799 864 l 1801 869 l 1744 971 l 1586 971 l 1553 1197 l 1528 1239 m 1549 1278 l 1550 1261 l 1551 1263 l 1565 1239 l 1568 1222 l 1576 1208 l 1579 1192 l 1590 1174 l 1617 990 l 1764 990 l 1825 881 l 1822 875 l 1849 833 l 1846 828 l 1864 797 l 1461 -106 l 943 -106 l 926 -75 l 921 -75 l 913 -61 l 899 -61 l 882 -31 l 874 -31 l 993 238 l 763 238 l 610 -106 l 94 -106 l 78 -75 l 72 -75 l 64 -61 l 50 -61 l 33 -31 l 25 -31 l 431 879 l 589 990 l 775 990 l 774 994 l 758 994 l 1061 1278 l 1549 1278 z "},"Ã":{"ha":1514,"x_min":25,"x_max":1864,"o":"m 921 -75 l 926 -75 l 943 -106 l 1461 -106 l 1864 797 l 1846 828 l 1849 833 l 1822 875 l 1825 881 l 1764 990 l 1656 990 l 1849 1169 l 1831 1200 l 1835 1204 l 1825 1215 l 1844 1239 l 1825 1267 l 1835 1278 l 1465 1278 l 1400 1217 l 1399 1219 l 1394 1239 l 1381 1260 l 1379 1278 l 943 1278 l 640 994 l 656 994 l 657 990 l 589 990 l 431 879 l 25 -31 l 33 -31 l 50 -61 l 64 -61 l 72 -75 l 78 -75 l 94 -106 l 610 -106 l 763 238 l 993 238 l 874 -31 l 882 -31 l 899 -61 l 913 -61 l 921 -75 m 735 288 l 582 -56 l 92 -56 l 67 -11 l 53 -11 l 444 868 l 592 971 l 731 971 l 707 1014 l 686 1014 l 947 1258 l 1357 1258 l 1361 1238 l 1358 1238 l 1383 1194 l 1385 1179 l 1469 1258 l 1794 1258 l 1782 1242 l 1804 1201 l 1561 971 l 1744 971 l 1801 869 l 1799 864 l 1825 822 l 1433 -56 l 940 -56 l 915 -11 l 901 -11 l 1035 288 l 735 288 m 1397 11 l 1779 869 l 1735 949 l 582 949 l 467 868 l 86 11 l 546 11 l 697 351 l 1086 351 l 935 11 l 1397 11 m 1114 371 l 686 371 l 535 31 l 144 31 l 497 824 l 604 899 l 1732 899 l 1754 858 l 1386 31 l 993 31 l 1128 335 l 1110 363 l 1114 371 m 1532 1036 l 1744 1236 l 1469 1236 l 1357 1131 l 1335 1236 l 949 1236 l 739 1036 l 1008 1036 l 1125 1139 l 1146 1036 l 1532 1036 m 742 497 l 750 497 l 768 467 l 1188 467 l 1281 678 l 1264 708 l 1268 717 l 840 717 l 742 497 m 851 697 l 1240 697 l 1160 517 l 771 517 l 851 697 m 1000 1053 l 833 1053 l 972 1186 l 1319 1186 l 1342 1093 l 1347 1097 l 1364 1067 l 1493 1186 l 1664 1186 l 1524 1053 l 1174 1053 l 1160 1133 l 1149 1151 l 1149 1150 l 1144 1182 l 1000 1053 m 1147 539 l 1188 631 l 888 631 l 847 539 l 1147 539 m 915 581 l 1146 581 l 1136 558 l 906 558 l 915 581 m 1039 971 l 1160 971 l 1136 1014 l 1126 1014 l 1117 1040 l 1039 971 z "},"Ä":{"ha":1514,"x_min":25,"x_max":1864,"o":"m 906 558 l 1136 558 l 1146 581 l 915 581 l 906 558 m 1324 1053 l 1529 1053 l 1589 1186 l 1383 1186 l 1324 1053 m 908 1053 l 1114 1053 l 1174 1186 l 968 1186 l 908 1053 m 1188 631 l 1147 539 l 847 539 l 888 631 l 1188 631 m 1215 1236 l 1126 1036 l 851 1036 l 940 1236 l 1215 1236 m 1631 1236 l 1542 1036 l 1267 1036 l 1356 1236 l 1631 1236 m 771 517 l 1160 517 l 1240 697 l 851 697 l 771 517 m 1264 708 l 1281 678 l 1188 467 l 768 467 l 750 497 l 742 497 l 840 717 l 1268 717 l 1264 708 m 1114 371 l 1110 363 l 1128 335 l 993 31 l 1386 31 l 1754 858 l 1732 899 l 604 899 l 497 824 l 144 31 l 535 31 l 686 371 l 1114 371 m 935 11 l 1086 351 l 697 351 l 546 11 l 86 11 l 467 868 l 582 949 l 1735 949 l 1779 869 l 1397 11 l 935 11 m 1656 1244 l 1661 1258 l 1343 1258 l 1235 1014 l 1249 1014 l 1272 971 l 1164 971 l 1267 1200 l 1242 1244 l 1247 1258 l 928 1258 l 819 1014 l 833 1014 l 857 971 l 592 971 l 444 868 l 53 -11 l 67 -11 l 92 -56 l 582 -56 l 735 288 l 1035 288 l 901 -11 l 915 -11 l 940 -56 l 1433 -56 l 1825 822 l 1799 864 l 1801 869 l 1744 971 l 1576 971 l 1679 1200 l 1656 1244 m 1689 1278 l 1685 1269 l 1701 1239 l 1696 1225 l 1703 1211 l 1700 1206 l 1718 1175 l 1635 990 l 1764 990 l 1825 881 l 1822 875 l 1849 833 l 1846 828 l 1864 797 l 1461 -106 l 943 -106 l 926 -75 l 921 -75 l 913 -61 l 899 -61 l 882 -31 l 874 -31 l 993 238 l 763 238 l 610 -106 l 94 -106 l 78 -75 l 72 -75 l 64 -61 l 50 -61 l 33 -31 l 25 -31 l 431 879 l 589 990 l 804 990 l 803 994 l 794 994 l 921 1278 l 1276 1278 l 1272 1269 l 1289 1239 l 1283 1225 l 1290 1211 l 1288 1206 l 1294 1193 l 1333 1278 l 1689 1278 z "},"Å":{"ha":1514,"x_min":25,"x_max":1864,"o":"m 1483 1278 l 1125 1278 l 999 994 l 1007 994 l 1008 990 l 589 990 l 431 879 l 25 -31 l 33 -31 l 50 -61 l 64 -61 l 72 -75 l 78 -75 l 94 -106 l 610 -106 l 763 238 l 993 238 l 874 -31 l 882 -31 l 899 -61 l 913 -61 l 921 -75 l 926 -75 l 943 -106 l 1461 -106 l 1864 797 l 1846 828 l 1849 833 l 1822 875 l 1825 881 l 1764 990 l 1429 990 l 1513 1175 l 1494 1206 l 1497 1211 l 1490 1225 l 1496 1239 l 1479 1269 l 1483 1278 m 1474 1200 l 1371 971 l 1744 971 l 1801 869 l 1799 864 l 1825 822 l 1433 -56 l 940 -56 l 915 -11 l 901 -11 l 1035 288 l 735 288 l 582 -56 l 92 -56 l 67 -11 l 53 -11 l 444 868 l 592 971 l 1064 971 l 1040 1014 l 1026 1014 l 1135 1258 l 1454 1258 l 1449 1244 l 1474 1200 m 1397 11 l 1779 869 l 1735 949 l 582 949 l 467 868 l 86 11 l 546 11 l 697 351 l 1086 351 l 935 11 l 1397 11 m 1114 371 l 686 371 l 535 31 l 144 31 l 497 824 l 604 899 l 1732 899 l 1754 858 l 1386 31 l 993 31 l 1128 335 l 1110 363 l 1114 371 m 742 497 l 750 497 l 768 467 l 1188 467 l 1281 678 l 1264 708 l 1268 717 l 840 717 l 742 497 m 851 697 l 1240 697 l 1160 517 l 771 517 l 851 697 m 1336 1036 l 1425 1236 l 1147 1236 l 1058 1036 l 1336 1036 m 1175 1186 l 1383 1186 l 1324 1053 l 1115 1053 l 1175 1186 m 1147 539 l 1188 631 l 888 631 l 847 539 l 1147 539 m 1185 1058 l 1299 1058 l 1336 1142 l 1319 1172 l 1322 1181 l 1200 1181 l 1160 1089 l 1168 1089 l 1185 1058 m 915 581 l 1146 581 l 1136 558 l 906 558 l 915 581 m 1211 1161 l 1294 1161 l 1271 1108 l 1188 1108 l 1211 1161 z "},"Æ":{"ha":2257,"x_min":25,"x_max":2644,"o":"m 908 558 l 1139 558 l 1149 581 l 918 581 l 908 558 m 1190 631 l 1150 539 l 850 539 l 890 631 l 1190 631 m 776 517 l 1163 517 l 1242 694 l 856 694 l 776 517 m 1265 706 l 1282 675 l 1190 467 l 771 467 l 756 497 l 747 497 l 844 714 l 1269 714 l 1265 706 m 1117 371 l 1113 363 l 1129 332 l 996 31 l 2129 31 l 2210 213 l 1511 213 l 1494 243 l 1486 243 l 1575 442 l 2311 442 l 2354 540 l 1657 540 l 1640 571 l 1632 571 l 1696 714 l 2433 714 l 2513 893 l 601 893 l 496 821 l 144 31 l 540 31 l 692 371 l 1117 371 m 938 11 l 1089 351 l 703 351 l 551 11 l 86 11 l 465 865 l 579 943 l 2554 943 l 2444 694 l 1707 694 l 1660 590 l 2396 590 l 2321 422 l 1585 422 l 1514 263 l 2251 263 l 2140 11 l 938 11 m 904 -11 l 918 -11 l 943 -56 l 2176 -56 l 2303 226 l 2278 271 l 2282 282 l 1589 282 l 1624 358 l 2360 358 l 2447 554 l 2422 599 l 2428 613 l 1736 613 l 1744 631 l 2482 631 l 2606 907 l 2581 951 l 2586 965 l 589 965 l 443 865 l 53 -11 l 67 -11 l 92 -56 l 585 -56 l 736 285 l 1036 285 l 904 -11 m 915 -61 l 901 -61 l 885 -31 l 876 -31 l 996 238 l 765 238 l 613 -106 l 94 -106 l 78 -75 l 72 -75 l 64 -61 l 50 -61 l 33 -31 l 25 -31 l 429 876 l 588 985 l 2615 985 l 2611 976 l 2628 946 l 2622 932 l 2629 918 l 2628 913 l 2644 882 l 2510 581 l 2464 581 l 2464 579 l 2471 565 l 2468 560 l 2486 529 l 2388 308 l 1651 308 l 1649 301 l 2311 301 l 2307 293 l 2325 265 l 2319 251 l 2326 238 l 2324 232 l 2342 201 l 2204 -106 l 946 -106 l 929 -75 l 924 -75 l 915 -61 z "},"Ç":{"ha":1390,"x_min":75,"x_max":1781,"o":"m 497 822 l 163 72 l 185 31 l 789 31 l 785 22 l 801 -8 l 757 -110 l 463 -110 l 419 -206 l 810 -206 l 915 31 l 1263 31 l 1343 213 l 654 213 l 638 243 l 629 243 l 840 717 l 1568 717 l 1649 899 l 604 899 l 497 822 m 926 11 l 821 -225 l 361 -225 l 435 -60 l 729 -60 l 761 11 l 165 11 l 122 93 l 467 867 l 582 949 l 1690 949 l 1579 697 l 851 697 l 657 263 l 1385 263 l 1274 11 l 926 11 m 888 631 l 1615 631 l 1742 913 l 1717 957 l 1722 971 l 592 971 l 444 867 l 100 93 l 154 -11 l 160 -11 l 182 -56 l 414 -56 l 329 -247 l 343 -247 l 365 -292 l 858 -292 l 963 -56 l 1310 -56 l 1436 226 l 1411 271 l 1417 285 l 733 285 l 888 631 m 1763 918 l 1781 888 l 1643 581 l 915 581 l 793 304 l 1446 304 l 1442 296 l 1458 265 l 1453 251 l 1460 238 l 1457 232 l 1475 201 l 1338 -106 l 988 -106 l 883 -339 l 368 -339 l 350 -311 l 344 -311 l 338 -297 l 326 -297 l 310 -267 l 301 -267 l 372 -106 l 185 -106 l 168 -75 l 163 -75 l 140 -31 l 135 -31 l 75 82 l 429 878 l 589 990 l 1750 990 l 1747 982 l 1764 951 l 1758 938 l 1765 924 l 1763 918 z "},"È":{"ha":1397,"x_min":25,"x_max":1788,"o":"m 1299 1053 l 1285 1186 l 1028 1186 l 1079 1053 l 1299 1053 m 1301 1236 l 1326 1036 l 1061 1036 l 982 1236 l 1301 1236 m 718 444 l 1451 444 l 1494 540 l 800 540 l 783 571 l 775 571 l 840 717 l 1575 717 l 1656 899 l 531 899 l 144 31 l 1269 31 l 1350 213 l 654 213 l 638 243 l 629 243 l 718 444 m 851 697 l 803 590 l 1536 590 l 1463 425 l 729 425 l 657 263 l 1392 263 l 1281 11 l 86 11 l 503 949 l 1697 949 l 1586 697 l 851 697 m 1075 971 l 490 971 l 53 -11 l 67 -11 l 92 -56 l 1317 -56 l 1443 226 l 1418 271 l 1424 285 l 733 285 l 767 358 l 1500 358 l 1588 554 l 1563 599 l 1568 613 l 879 613 l 888 631 l 1622 631 l 1749 913 l 1724 957 l 1729 971 l 1378 971 l 1350 1194 l 1326 1242 l 1329 1242 l 1326 1258 l 949 1258 l 1043 1014 l 1051 1014 l 1075 971 m 479 990 l 1031 990 l 1029 994 l 1024 994 l 917 1278 l 1349 1278 l 1350 1260 l 1364 1239 l 1367 1218 l 1369 1214 l 1371 1203 l 1371 1204 l 1385 1178 l 1404 990 l 1757 990 l 1754 982 l 1771 951 l 1765 938 l 1772 924 l 1769 918 l 1788 888 l 1650 581 l 1604 581 l 1604 579 l 1611 565 l 1608 560 l 1626 529 l 1529 311 l 796 311 l 793 304 l 1453 304 l 1449 296 l 1465 265 l 1460 251 l 1467 238 l 1464 232 l 1482 201 l 1344 -106 l 94 -106 l 78 -75 l 72 -75 l 64 -61 l 50 -61 l 33 -31 l 25 -31 l 479 990 z "},"É":{"ha":1397,"x_min":25,"x_max":1788,"o":"m 1213 1053 l 1379 1186 l 1168 1186 l 1032 1053 l 1213 1053 m 1471 1236 l 1217 1036 l 946 1036 l 1151 1236 l 1471 1236 m 718 444 l 1451 444 l 1494 540 l 800 540 l 783 571 l 775 571 l 840 717 l 1575 717 l 1656 899 l 531 899 l 144 31 l 1269 31 l 1350 213 l 654 213 l 638 243 l 629 243 l 718 444 m 851 697 l 803 590 l 1536 590 l 1463 425 l 729 425 l 657 263 l 1392 263 l 1281 11 l 86 11 l 503 949 l 1697 949 l 1586 697 l 851 697 m 1724 957 l 1729 971 l 1240 971 l 1538 1203 l 1510 1246 l 1524 1258 l 1146 1258 l 900 1014 l 922 1014 l 943 971 l 490 971 l 53 -11 l 67 -11 l 92 -56 l 1317 -56 l 1443 226 l 1418 271 l 1424 285 l 733 285 l 767 358 l 1500 358 l 1588 554 l 1563 599 l 1568 613 l 879 613 l 888 631 l 1622 631 l 1749 913 l 1724 957 m 1578 1278 l 1564 1268 l 1579 1236 l 1557 1215 l 1564 1204 l 1560 1201 l 1578 1169 l 1347 990 l 1757 990 l 1754 982 l 1771 951 l 1765 938 l 1772 924 l 1769 918 l 1788 888 l 1650 581 l 1604 581 l 1604 579 l 1611 565 l 1608 560 l 1626 529 l 1529 311 l 796 311 l 793 304 l 1453 304 l 1449 296 l 1465 265 l 1460 251 l 1467 238 l 1464 232 l 1482 201 l 1344 -106 l 94 -106 l 78 -75 l 72 -75 l 64 -61 l 50 -61 l 33 -31 l 25 -31 l 479 990 l 875 990 l 874 994 l 860 994 l 1147 1278 l 1578 1278 z "},"Ê":{"ha":1397,"x_min":25,"x_max":1788,"o":"m 1219 971 l 1099 971 l 1176 1039 l 1186 1014 l 1196 1014 l 1219 971 m 1204 1182 l 1208 1150 l 1208 1151 l 1219 1133 l 1233 1053 l 1450 1053 l 1426 1186 l 1032 1186 l 890 1053 l 1060 1053 l 1204 1182 m 797 1036 l 1008 1236 l 1446 1236 l 1478 1036 l 1206 1036 l 1185 1139 l 1068 1036 l 797 1036 m 718 444 l 1451 444 l 1494 540 l 800 540 l 783 571 l 775 571 l 840 717 l 1575 717 l 1656 899 l 531 899 l 144 31 l 1269 31 l 1350 213 l 654 213 l 638 243 l 629 243 l 718 444 m 851 697 l 803 590 l 1536 590 l 1463 425 l 729 425 l 657 263 l 1392 263 l 1281 11 l 86 11 l 503 949 l 1697 949 l 1586 697 l 851 697 m 1469 1239 l 1472 1239 l 1469 1258 l 1007 1258 l 746 1014 l 767 1014 l 788 971 l 490 971 l 53 -11 l 67 -11 l 92 -56 l 1317 -56 l 1443 226 l 1418 271 l 1424 285 l 733 285 l 767 358 l 1500 358 l 1588 554 l 1563 599 l 1568 613 l 879 613 l 888 631 l 1622 631 l 1749 913 l 1724 957 l 1729 971 l 1528 971 l 1494 1197 l 1469 1239 m 1490 1278 l 1492 1261 l 1493 1263 l 1507 1239 l 1510 1222 l 1518 1208 l 1521 1192 l 1532 1174 l 1558 990 l 1757 990 l 1754 982 l 1771 951 l 1765 938 l 1772 924 l 1769 918 l 1788 888 l 1650 581 l 1604 581 l 1604 579 l 1611 565 l 1608 560 l 1626 529 l 1529 311 l 796 311 l 793 304 l 1453 304 l 1449 296 l 1465 265 l 1460 251 l 1467 238 l 1464 232 l 1482 201 l 1344 -106 l 94 -106 l 78 -75 l 72 -75 l 64 -61 l 50 -61 l 33 -31 l 25 -31 l 479 990 l 717 990 l 715 994 l 700 994 l 1003 1278 l 1490 1278 z "},"Ë":{"ha":1397,"x_min":25,"x_max":1788,"o":"m 1265 1053 l 1471 1053 l 1531 1186 l 1325 1186 l 1265 1053 m 850 1053 l 1056 1053 l 1115 1186 l 910 1186 l 850 1053 m 1569 1236 l 1481 1036 l 1208 1036 l 1297 1236 l 1569 1236 m 1157 1236 l 1068 1036 l 796 1036 l 885 1236 l 1157 1236 m 718 444 l 1451 444 l 1494 540 l 800 540 l 783 571 l 775 571 l 840 717 l 1575 717 l 1656 899 l 531 899 l 144 31 l 1269 31 l 1350 213 l 654 213 l 638 243 l 629 243 l 718 444 m 851 697 l 803 590 l 1536 590 l 1463 425 l 729 425 l 657 263 l 1392 263 l 1281 11 l 86 11 l 503 949 l 1697 949 l 1586 697 l 851 697 m 1596 1244 l 1601 1258 l 1285 1258 l 1176 1014 l 1190 1014 l 1214 971 l 1106 971 l 1208 1200 l 1183 1244 l 1189 1258 l 872 1258 l 764 1014 l 778 1014 l 799 971 l 490 971 l 53 -11 l 67 -11 l 92 -56 l 1317 -56 l 1443 226 l 1418 271 l 1424 285 l 733 285 l 767 358 l 1500 358 l 1588 554 l 1563 599 l 1568 613 l 879 613 l 888 631 l 1622 631 l 1749 913 l 1724 957 l 1729 971 l 1518 971 l 1621 1200 l 1596 1244 m 1631 1278 l 1626 1269 l 1643 1239 l 1638 1225 l 1644 1211 l 1642 1206 l 1660 1175 l 1576 990 l 1757 990 l 1754 982 l 1771 951 l 1765 938 l 1772 924 l 1769 918 l 1788 888 l 1650 581 l 1604 581 l 1604 579 l 1611 565 l 1608 560 l 1626 529 l 1529 311 l 796 311 l 793 304 l 1453 304 l 1449 296 l 1465 265 l 1460 251 l 1467 238 l 1464 232 l 1482 201 l 1344 -106 l 94 -106 l 78 -75 l 72 -75 l 64 -61 l 50 -61 l 33 -31 l 25 -31 l 479 990 l 746 990 l 744 994 l 736 994 l 863 1278 l 1218 1278 l 1214 1269 l 1231 1239 l 1225 1225 l 1232 1211 l 1229 1206 l 1236 1193 l 1275 1278 l 1631 1278 z "},"Ì":{"ha":1121,"x_min":25,"x_max":1511,"o":"m 782 1278 l 886 994 l 892 994 l 893 990 l 479 990 l 331 656 l 339 656 l 356 625 l 369 625 l 378 611 l 383 611 l 400 581 l 528 581 l 406 304 l 175 304 l 25 -31 l 33 -31 l 50 -61 l 64 -61 l 72 -75 l 78 -75 l 94 -106 l 1068 -106 l 1206 201 l 1188 232 l 1190 238 l 1183 251 l 1189 265 l 1172 296 l 1176 304 l 1021 304 l 1143 581 l 1374 581 l 1511 888 l 1493 918 l 1496 924 l 1489 938 l 1494 951 l 1478 982 l 1481 990 l 1264 990 l 1247 1178 l 1233 1201 l 1233 1200 l 1232 1214 l 1225 1225 l 1222 1221 l 1225 1221 l 1225 1225 l 1225 1242 l 1211 1267 l 1213 1278 l 782 1278 m 1190 1233 l 1213 1194 l 1239 971 l 1453 971 l 1447 957 l 1472 913 l 1346 631 l 1115 631 l 961 285 l 1147 285 l 1142 271 l 1167 226 l 1040 -56 l 92 -56 l 67 -11 l 53 -11 l 185 285 l 413 285 l 567 631 l 397 631 l 372 675 l 358 675 l 490 971 l 938 971 l 914 1014 l 906 1014 l 814 1258 l 1189 1258 l 1190 1233 m 197 263 l 86 11 l 1004 11 l 1115 263 l 888 263 l 1082 697 l 1310 697 l 1421 949 l 503 949 l 392 697 l 619 697 l 425 263 l 197 263 m 860 243 l 868 243 l 885 213 l 1074 213 l 993 31 l 144 31 l 225 213 l 453 213 l 660 678 l 643 708 l 647 717 l 450 717 l 531 899 l 1379 899 l 1299 717 l 1071 717 l 860 243 m 1189 1036 l 1164 1236 l 844 1236 l 924 1036 l 1189 1036 m 890 1186 l 1147 1186 l 1161 1053 l 942 1053 l 890 1186 z "},"Í":{"ha":1121,"x_min":25,"x_max":1511,"o":"m 1074 1053 l 1240 1186 l 1031 1186 l 896 1053 l 1074 1053 m 1332 1236 l 1078 1036 l 810 1036 l 1013 1236 l 1332 1236 m 1071 717 l 1299 717 l 1379 899 l 531 899 l 450 717 l 647 717 l 643 708 l 660 678 l 453 213 l 225 213 l 144 31 l 993 31 l 1074 213 l 885 213 l 868 243 l 860 243 l 1071 717 m 1082 697 l 888 263 l 1115 263 l 1004 11 l 86 11 l 197 263 l 425 263 l 619 697 l 392 697 l 503 949 l 1421 949 l 1310 697 l 1082 697 m 1447 957 l 1453 971 l 1101 971 l 1396 1203 l 1368 1246 l 1382 1258 l 1007 1258 l 761 1014 l 783 1014 l 807 971 l 490 971 l 358 675 l 372 675 l 397 631 l 567 631 l 413 285 l 185 285 l 53 -11 l 67 -11 l 92 -56 l 1040 -56 l 1167 226 l 1142 271 l 1147 285 l 961 285 l 1115 631 l 1346 631 l 1472 913 l 1447 957 m 1436 1278 l 1422 1268 l 1440 1236 l 1418 1215 l 1425 1204 l 1421 1201 l 1439 1169 l 1208 990 l 1481 990 l 1478 982 l 1494 951 l 1489 938 l 1496 924 l 1493 918 l 1511 888 l 1374 581 l 1143 581 l 1021 304 l 1176 304 l 1172 296 l 1189 265 l 1183 251 l 1190 238 l 1188 232 l 1206 201 l 1068 -106 l 94 -106 l 78 -75 l 72 -75 l 64 -61 l 50 -61 l 33 -31 l 25 -31 l 175 304 l 406 304 l 528 581 l 400 581 l 383 611 l 378 611 l 369 625 l 356 625 l 339 656 l 331 656 l 479 990 l 736 990 l 735 994 l 721 994 l 1008 1278 l 1436 1278 z "},"Î":{"ha":1121,"x_min":25,"x_max":1511,"o":"m 1049 1014 l 1058 1014 l 1079 971 l 961 971 l 1039 1040 l 1049 1014 m 1067 1182 l 1071 1150 l 1071 1151 l 1082 1133 l 1096 1053 l 1310 1053 l 1289 1186 l 894 1186 l 753 1053 l 922 1053 l 1067 1182 m 661 1036 l 871 1236 l 1308 1236 l 1340 1036 l 1068 1036 l 1047 1139 l 931 1036 l 661 1036 m 1071 717 l 1299 717 l 1379 899 l 531 899 l 450 717 l 647 717 l 643 708 l 660 678 l 453 213 l 225 213 l 144 31 l 993 31 l 1074 213 l 885 213 l 868 243 l 860 243 l 1071 717 m 1082 697 l 888 263 l 1115 263 l 1004 11 l 86 11 l 197 263 l 425 263 l 619 697 l 392 697 l 503 949 l 1421 949 l 1310 697 l 1082 697 m 1332 1239 l 1335 1239 l 1332 1258 l 869 1258 l 608 1014 l 629 1014 l 653 971 l 490 971 l 358 675 l 372 675 l 397 631 l 567 631 l 413 285 l 185 285 l 53 -11 l 67 -11 l 92 -56 l 1040 -56 l 1167 226 l 1142 271 l 1147 285 l 961 285 l 1115 631 l 1346 631 l 1472 913 l 1447 957 l 1453 971 l 1388 971 l 1354 1197 l 1332 1239 m 1353 1278 l 1354 1261 l 1356 1263 l 1367 1239 l 1369 1222 l 1376 1211 l 1378 1194 l 1378 1196 l 1392 1174 l 1418 990 l 1481 990 l 1478 982 l 1494 951 l 1489 938 l 1496 924 l 1493 918 l 1511 888 l 1374 581 l 1143 581 l 1021 304 l 1176 304 l 1172 296 l 1189 265 l 1183 251 l 1190 238 l 1188 232 l 1206 201 l 1068 -106 l 94 -106 l 78 -75 l 72 -75 l 64 -61 l 50 -61 l 33 -31 l 25 -31 l 175 304 l 406 304 l 528 581 l 400 581 l 383 611 l 378 611 l 369 625 l 356 625 l 339 656 l 331 656 l 479 990 l 579 990 l 578 994 l 563 994 l 865 1278 l 1353 1278 z "},"Ï":{"ha":1121,"x_min":25,"x_max":1519,"o":"m 1128 1053 l 1331 1053 l 1390 1186 l 1188 1186 l 1128 1053 m 715 1053 l 918 1053 l 978 1186 l 775 1186 l 715 1053 m 1432 1236 l 1343 1036 l 1071 1036 l 1160 1236 l 1432 1236 m 1019 1236 l 931 1036 l 658 1036 l 747 1236 l 1019 1236 m 1071 717 l 1299 717 l 1379 899 l 531 899 l 450 717 l 647 717 l 643 708 l 660 678 l 453 213 l 225 213 l 144 31 l 993 31 l 1074 213 l 885 213 l 868 243 l 860 243 l 1071 717 m 1082 697 l 888 263 l 1115 263 l 1004 11 l 86 11 l 197 263 l 425 263 l 619 697 l 392 697 l 503 949 l 1421 949 l 1310 697 l 1082 697 m 1456 1244 l 1461 1258 l 1147 1258 l 1039 1014 l 1053 1014 l 1075 971 l 968 971 l 1071 1200 l 1046 1244 l 1051 1258 l 735 1258 l 626 1014 l 640 1014 l 664 971 l 490 971 l 358 675 l 372 675 l 397 631 l 567 631 l 413 285 l 185 285 l 53 -11 l 67 -11 l 92 -56 l 1040 -56 l 1167 226 l 1142 271 l 1147 285 l 961 285 l 1115 631 l 1346 631 l 1472 913 l 1447 957 l 1453 971 l 1378 971 l 1481 1200 l 1456 1244 m 1490 1278 l 1486 1269 l 1503 1239 l 1497 1225 l 1504 1211 l 1501 1206 l 1519 1175 l 1436 990 l 1481 990 l 1478 982 l 1494 951 l 1489 938 l 1496 924 l 1493 918 l 1511 888 l 1374 581 l 1143 581 l 1021 304 l 1176 304 l 1172 296 l 1189 265 l 1183 251 l 1190 238 l 1188 232 l 1206 201 l 1068 -106 l 94 -106 l 78 -75 l 72 -75 l 64 -61 l 50 -61 l 33 -31 l 25 -31 l 175 304 l 406 304 l 528 581 l 400 581 l 383 611 l 378 611 l 369 625 l 356 625 l 339 656 l 331 656 l 479 990 l 608 990 l 607 994 l 599 994 l 725 1278 l 1081 1278 l 1076 1269 l 1093 1239 l 1088 1225 l 1094 1211 l 1092 1206 l 1099 1193 l 1138 1278 l 1490 1278 z "},"Ð":{"ha":1660,"x_min":168,"x_max":2008,"o":"m 1167 560 l 1185 529 l 1086 308 l 940 308 l 938 301 l 1168 301 l 1292 581 l 1163 581 l 1163 579 l 1169 565 l 1167 560 m 913 358 l 1058 358 l 1146 554 l 1121 599 l 1126 613 l 1025 613 l 1033 631 l 1333 631 l 1178 282 l 878 282 l 913 358 m 874 422 l 803 263 l 1192 263 l 1385 694 l 996 694 l 949 590 l 1094 590 l 1019 422 l 874 422 m 864 442 l 1010 442 l 1053 540 l 946 540 l 929 571 l 921 571 l 985 714 l 1413 714 l 1408 706 l 1425 675 l 1219 213 l 800 213 l 783 243 l 775 243 l 864 442 m 436 433 l 453 403 l 288 31 l 1461 31 l 1564 104 l 1899 856 l 1876 893 l 671 893 l 514 540 l 371 540 l 328 442 l 440 442 l 436 433 m 343 590 l 486 590 l 643 943 l 1878 943 l 1924 867 l 1579 93 l 1464 11 l 229 11 l 411 422 l 268 422 l 343 590 m 331 613 l 236 400 l 244 400 l 249 403 l 276 358 l 361 358 l 196 -11 l 210 -11 l 235 -56 l 1481 -56 l 1625 46 l 1968 818 l 1943 861 l 1946 867 l 1888 965 l 631 965 l 474 613 l 331 613 m 249 350 l 233 350 l 217 381 l 208 381 l 321 632 l 464 632 l 621 985 l 1908 985 l 1969 878 l 1968 872 l 1992 828 l 1990 822 l 2008 794 l 1654 1 l 1503 -106 l 238 -106 l 221 -75 l 215 -75 l 207 -61 l 193 -61 l 176 -31 l 168 -31 l 319 308 l 279 308 l 260 339 l 257 339 l 249 350 z "},"Ñ":{"ha":1514,"x_min":25,"x_max":1904,"o":"m 1133 964 l 1128 964 l 1121 975 l 1061 919 l 932 919 l 1192 682 l 1297 919 l 1164 919 l 1147 950 l 1142 950 l 1133 964 m 1319 1186 l 972 1186 l 833 1053 l 1000 1053 l 1144 1182 l 1149 1150 l 1149 1151 l 1160 1133 l 1174 1053 l 1524 1053 l 1664 1186 l 1493 1186 l 1364 1067 l 1347 1097 l 1342 1093 l 1319 1186 m 1161 969 l 1339 969 l 1194 644 l 838 969 l 1038 969 l 1118 1042 l 1126 1014 l 1136 1014 l 1161 969 m 1125 1139 l 1008 1036 l 739 1036 l 949 1236 l 1335 1236 l 1357 1131 l 1469 1236 l 1744 1236 l 1532 1036 l 1146 1036 l 1125 1139 m 1051 232 l 1069 201 l 993 31 l 1386 31 l 1772 899 l 1379 899 l 1218 538 l 822 899 l 531 899 l 144 31 l 535 31 l 754 524 l 1054 238 l 1051 232 m 819 949 l 1197 601 l 1351 949 l 1814 949 l 1397 11 l 935 11 l 1029 225 l 756 485 l 546 11 l 86 11 l 503 949 l 819 949 m 92 -56 l 582 -56 l 788 404 l 997 203 l 901 -11 l 915 -11 l 940 -56 l 1433 -56 l 1865 913 l 1840 957 l 1846 971 l 1561 971 l 1804 1201 l 1782 1242 l 1794 1258 l 1469 1258 l 1385 1179 l 1383 1194 l 1358 1238 l 1361 1238 l 1357 1258 l 947 1258 l 686 1014 l 707 1014 l 731 971 l 490 971 l 53 -11 l 67 -11 l 92 -56 m 1882 938 l 1889 924 l 1886 918 l 1904 888 l 1461 -106 l 943 -106 l 926 -75 l 921 -75 l 913 -61 l 899 -61 l 882 -31 l 874 -31 l 969 183 l 808 339 l 610 -106 l 94 -106 l 78 -75 l 72 -75 l 64 -61 l 50 -61 l 33 -31 l 25 -31 l 479 990 l 657 990 l 656 994 l 640 994 l 943 1278 l 1379 1278 l 1381 1260 l 1394 1239 l 1399 1219 l 1400 1217 l 1465 1278 l 1835 1278 l 1825 1267 l 1844 1239 l 1825 1215 l 1835 1204 l 1831 1200 l 1849 1169 l 1656 990 l 1874 990 l 1871 982 l 1888 951 l 1882 938 z "},"Ò":{"ha":1514,"x_min":75,"x_max":1864,"o":"m 1343 1186 l 1086 1186 l 1138 1053 l 1357 1053 l 1343 1186 m 1360 1236 l 1385 1036 l 1119 1036 l 1040 1236 l 1360 1236 m 793 304 l 1024 304 l 1146 581 l 915 581 l 793 304 m 1188 631 l 1033 285 l 733 285 l 888 631 l 1188 631 m 657 263 l 1046 263 l 1240 697 l 851 697 l 657 263 m 638 243 l 629 243 l 840 717 l 1268 717 l 1264 708 l 1281 678 l 1074 213 l 654 213 l 638 243 m 497 822 l 163 72 l 185 31 l 1315 31 l 1418 104 l 1754 858 l 1732 899 l 604 899 l 497 822 m 122 93 l 467 867 l 582 949 l 1735 949 l 1779 869 l 1433 93 l 1318 11 l 165 11 l 122 93 m 1385 1242 l 1388 1242 l 1385 1258 l 1007 1258 l 1101 1014 l 1110 1014 l 1133 971 l 592 971 l 444 867 l 100 93 l 154 -11 l 160 -11 l 182 -56 l 1335 -56 l 1479 46 l 1825 822 l 1799 864 l 1801 869 l 1744 971 l 1436 971 l 1411 1194 l 1385 1242 m 589 990 l 1089 990 l 1088 994 l 1082 994 l 975 1278 l 1408 1278 l 1411 1258 l 1422 1239 l 1425 1224 l 1431 1214 l 1432 1200 l 1432 1201 l 1446 1178 l 1463 990 l 1764 990 l 1825 881 l 1822 875 l 1849 833 l 1846 828 l 1864 797 l 1508 1 l 1357 -106 l 185 -106 l 168 -75 l 163 -75 l 140 -31 l 135 -31 l 75 82 l 429 878 l 589 990 z "},"Ó":{"ha":1514,"x_min":75,"x_max":1864,"o":"m 1271 1053 l 1438 1186 l 1226 1186 l 1090 1053 l 1271 1053 m 1529 1236 l 1275 1036 l 1004 1036 l 1210 1236 l 1529 1236 m 793 304 l 1024 304 l 1146 581 l 915 581 l 793 304 m 1188 631 l 1033 285 l 733 285 l 888 631 l 1188 631 m 657 263 l 1046 263 l 1240 697 l 851 697 l 657 263 m 638 243 l 629 243 l 840 717 l 1268 717 l 1264 708 l 1281 678 l 1074 213 l 654 213 l 638 243 m 497 822 l 163 72 l 185 31 l 1315 31 l 1418 104 l 1754 858 l 1732 899 l 604 899 l 497 822 m 122 93 l 467 867 l 582 949 l 1735 949 l 1779 869 l 1433 93 l 1318 11 l 165 11 l 122 93 m 1744 971 l 1301 971 l 1596 1203 l 1568 1246 l 1582 1258 l 1204 1258 l 958 1014 l 981 1014 l 1001 971 l 592 971 l 444 867 l 100 93 l 154 -11 l 160 -11 l 182 -56 l 1335 -56 l 1479 46 l 1825 822 l 1799 864 l 1801 869 l 1744 971 m 1636 1278 l 1622 1268 l 1640 1236 l 1618 1215 l 1625 1204 l 1621 1201 l 1636 1169 l 1408 990 l 1764 990 l 1825 881 l 1822 875 l 1849 833 l 1846 828 l 1864 797 l 1508 1 l 1357 -106 l 185 -106 l 168 -75 l 163 -75 l 140 -31 l 135 -31 l 75 82 l 429 878 l 589 990 l 933 990 l 932 994 l 918 994 l 1206 1278 l 1636 1278 z "},"Ô":{"ha":1514,"x_min":75,"x_max":1864,"o":"m 1278 971 l 1157 971 l 1235 1040 l 1244 1014 l 1254 1014 l 1278 971 m 1263 1182 l 1267 1150 l 1267 1151 l 1278 1133 l 1292 1053 l 1508 1053 l 1485 1186 l 1090 1186 l 949 1053 l 1118 1053 l 1263 1182 m 793 304 l 1024 304 l 1146 581 l 915 581 l 793 304 m 1188 631 l 1033 285 l 733 285 l 888 631 l 1188 631 m 854 1036 l 1067 1236 l 1504 1236 l 1539 1036 l 1264 1036 l 1243 1139 l 1126 1036 l 854 1036 m 657 263 l 1046 263 l 1240 697 l 851 697 l 657 263 m 638 243 l 629 243 l 840 717 l 1268 717 l 1264 708 l 1281 678 l 1074 213 l 654 213 l 638 243 m 497 822 l 163 72 l 185 31 l 1315 31 l 1418 104 l 1754 858 l 1732 899 l 604 899 l 497 822 m 122 93 l 467 867 l 582 949 l 1735 949 l 1779 869 l 1433 93 l 1318 11 l 165 11 l 122 93 m 1528 1239 l 1531 1239 l 1528 1258 l 1065 1258 l 804 1014 l 822 1014 l 846 971 l 592 971 l 444 867 l 100 93 l 154 -11 l 160 -11 l 182 -56 l 1335 -56 l 1479 46 l 1825 822 l 1799 864 l 1801 869 l 1744 971 l 1586 971 l 1553 1197 l 1528 1239 m 1549 1278 l 1550 1261 l 1551 1263 l 1565 1239 l 1568 1222 l 1576 1208 l 1579 1192 l 1590 1174 l 1617 990 l 1764 990 l 1825 881 l 1822 875 l 1849 833 l 1846 828 l 1864 797 l 1508 1 l 1357 -106 l 185 -106 l 168 -75 l 163 -75 l 140 -31 l 135 -31 l 75 82 l 429 878 l 589 990 l 775 990 l 774 994 l 758 994 l 1061 1278 l 1549 1278 z "},"Õ":{"ha":1514,"x_min":75,"x_max":1864,"o":"m 1160 971 l 1039 971 l 1117 1040 l 1126 1014 l 1136 1014 l 1160 971 m 793 304 l 1024 304 l 1146 581 l 915 581 l 793 304 m 1319 1186 l 972 1186 l 833 1053 l 1000 1053 l 1144 1182 l 1149 1150 l 1149 1151 l 1160 1133 l 1174 1053 l 1524 1053 l 1664 1186 l 1493 1186 l 1364 1067 l 1347 1097 l 1342 1093 l 1319 1186 m 1188 631 l 1033 285 l 733 285 l 888 631 l 1188 631 m 1125 1139 l 1008 1036 l 739 1036 l 949 1236 l 1335 1236 l 1357 1131 l 1469 1236 l 1744 1236 l 1532 1036 l 1146 1036 l 1125 1139 m 657 263 l 1046 263 l 1240 697 l 851 697 l 657 263 m 638 243 l 629 243 l 840 717 l 1268 717 l 1264 708 l 1281 678 l 1074 213 l 654 213 l 638 243 m 497 822 l 163 72 l 185 31 l 1315 31 l 1418 104 l 1754 858 l 1732 899 l 604 899 l 497 822 m 122 93 l 467 867 l 582 949 l 1735 949 l 1779 869 l 1433 93 l 1318 11 l 165 11 l 122 93 m 1479 46 l 1825 822 l 1799 864 l 1801 869 l 1744 971 l 1561 971 l 1804 1201 l 1782 1242 l 1794 1258 l 1469 1258 l 1385 1179 l 1383 1194 l 1358 1238 l 1361 1238 l 1357 1258 l 947 1258 l 686 1014 l 707 1014 l 731 971 l 592 971 l 444 867 l 100 93 l 154 -11 l 160 -11 l 182 -56 l 1335 -56 l 1479 46 m 1656 990 l 1764 990 l 1825 881 l 1822 875 l 1849 833 l 1846 828 l 1864 797 l 1508 1 l 1357 -106 l 185 -106 l 168 -75 l 163 -75 l 140 -31 l 135 -31 l 75 82 l 429 878 l 589 990 l 657 990 l 656 994 l 640 994 l 943 1278 l 1379 1278 l 1381 1260 l 1394 1239 l 1399 1219 l 1400 1217 l 1465 1278 l 1835 1278 l 1825 1267 l 1844 1239 l 1824 1217 l 1835 1204 l 1831 1200 l 1849 1169 l 1656 990 z "},"Ö":{"ha":1514,"x_min":75,"x_max":1864,"o":"m 1324 1053 l 1529 1053 l 1589 1186 l 1383 1186 l 1324 1053 m 908 1053 l 1114 1053 l 1174 1186 l 968 1186 l 908 1053 m 1631 1236 l 1542 1036 l 1267 1036 l 1356 1236 l 1631 1236 m 1215 1236 l 1126 1036 l 851 1036 l 940 1236 l 1215 1236 m 793 304 l 1024 304 l 1146 581 l 915 581 l 793 304 m 1188 631 l 1033 285 l 733 285 l 888 631 l 1188 631 m 657 263 l 1046 263 l 1240 697 l 851 697 l 657 263 m 638 243 l 629 243 l 840 717 l 1268 717 l 1264 708 l 1281 678 l 1074 213 l 654 213 l 638 243 m 497 822 l 163 72 l 185 31 l 1315 31 l 1418 104 l 1754 858 l 1732 899 l 604 899 l 497 822 m 122 93 l 467 867 l 582 949 l 1735 949 l 1779 869 l 1433 93 l 1318 11 l 165 11 l 122 93 m 1656 1244 l 1661 1258 l 1343 1258 l 1235 1014 l 1249 1014 l 1272 971 l 1164 971 l 1267 1200 l 1242 1244 l 1247 1258 l 928 1258 l 819 1014 l 833 1014 l 857 971 l 592 971 l 444 867 l 100 93 l 154 -11 l 160 -11 l 182 -56 l 1335 -56 l 1479 46 l 1825 822 l 1799 864 l 1801 869 l 1744 971 l 1576 971 l 1679 1200 l 1656 1244 m 1689 1278 l 1685 1269 l 1701 1239 l 1696 1225 l 1703 1211 l 1700 1206 l 1718 1175 l 1635 990 l 1764 990 l 1825 881 l 1822 875 l 1849 833 l 1846 828 l 1864 797 l 1508 1 l 1357 -106 l 185 -106 l 168 -75 l 163 -75 l 140 -31 l 135 -31 l 75 82 l 429 878 l 589 990 l 804 990 l 803 994 l 794 994 l 921 1278 l 1276 1278 l 1272 1269 l 1289 1239 l 1283 1225 l 1290 1211 l 1288 1206 l 1294 1193 l 1333 1278 l 1689 1278 z "},"×":{"ha":742,"x_min":181,"x_max":1001,"o":"m 967 656 l 872 828 l 647 672 l 563 828 l 317 654 l 401 503 l 181 349 l 272 179 l 275 179 l 303 135 l 307 138 l 325 106 l 539 253 l 582 179 l 585 179 l 610 135 l 614 138 l 632 106 l 865 264 l 847 296 l 851 299 l 825 344 l 829 347 l 786 425 l 1001 572 l 985 604 l 989 607 l 963 653 l 967 656 m 317 165 l 290 208 l 286 206 l 211 349 l 431 503 l 347 654 l 550 797 l 635 642 l 860 797 l 936 656 l 932 653 l 958 607 l 739 457 l 799 347 l 794 344 l 821 299 l 624 165 l 600 208 l 596 206 l 535 315 l 317 165 m 296 228 l 519 383 l 606 228 l 776 347 l 693 503 l 914 656 l 849 775 l 625 619 l 539 775 l 369 654 l 453 503 l 233 349 l 296 228 m 483 503 l 417 622 l 543 713 l 611 589 l 615 592 l 632 560 l 853 713 l 883 656 l 663 503 l 746 347 l 619 258 l 533 414 l 310 258 l 282 317 l 497 468 l 479 500 l 483 503 z "},"Ø":{"ha":1514,"x_min":75,"x_max":1863,"o":"m 861 563 l 857 563 l 888 631 l 929 631 l 861 563 m 1056 347 l 1061 347 l 1032 282 l 989 282 l 1056 347 m 872 263 l 1046 263 l 1178 557 l 1171 560 l 872 263 m 717 396 l 719 394 l 1024 694 l 850 694 l 717 396 m 1204 575 l 1201 567 l 1218 536 l 1074 213 l 863 213 l 846 243 l 832 243 l 1175 582 l 1204 575 m 699 376 l 700 376 l 689 378 l 839 714 l 1067 714 l 1057 704 l 1074 675 l 739 343 l 714 347 l 699 376 m 496 819 l 163 72 l 185 31 l 1315 31 l 1418 104 l 1753 856 l 1731 893 l 601 893 l 496 819 m 579 943 l 1726 943 l 1731 946 l 1778 867 l 1436 99 l 1438 96 l 1318 11 l 165 11 l 122 93 l 465 864 l 579 943 m 154 -11 l 160 -11 l 182 -56 l 1335 -56 l 1479 46 l 1822 818 l 1797 861 l 1800 867 l 1742 965 l 589 965 l 443 864 l 100 93 l 154 -11 m 140 -31 l 135 -31 l 75 82 l 428 875 l 588 985 l 1763 985 l 1824 878 l 1822 872 l 1846 828 l 1844 822 l 1863 794 l 1508 1 l 1357 -106 l 185 -106 l 168 -75 l 163 -75 l 140 -31 z "},"Ù":{"ha":1514,"x_min":75,"x_max":1904,"o":"m 1343 1186 l 1086 1186 l 1138 1053 l 1357 1053 l 1343 1186 m 1360 1236 l 1385 1036 l 1119 1036 l 1040 1236 l 1360 1236 m 638 243 l 629 243 l 921 899 l 531 899 l 163 72 l 185 31 l 1315 31 l 1418 104 l 1772 899 l 1379 899 l 1074 213 l 654 213 l 638 243 m 122 93 l 503 949 l 963 949 l 657 263 l 1046 263 l 1351 949 l 1814 949 l 1433 93 l 1318 11 l 165 11 l 122 93 m 1385 1242 l 1388 1242 l 1385 1258 l 1007 1258 l 1101 1014 l 1110 1014 l 1135 969 l 1339 969 l 1033 285 l 733 285 l 1014 913 l 989 957 l 994 971 l 490 971 l 100 93 l 154 -11 l 160 -11 l 182 -56 l 1335 -56 l 1479 46 l 1865 913 l 1840 957 l 1846 971 l 1436 971 l 1411 1194 l 1385 1242 m 1107 964 l 1104 964 l 1088 994 l 1082 994 l 975 1278 l 1408 1278 l 1411 1258 l 1422 1239 l 1425 1224 l 1431 1214 l 1432 1200 l 1432 1201 l 1446 1178 l 1463 990 l 1874 990 l 1871 982 l 1888 951 l 1882 938 l 1889 924 l 1886 918 l 1904 888 l 1508 1 l 1357 -106 l 185 -106 l 168 -75 l 163 -75 l 140 -31 l 135 -31 l 75 82 l 479 990 l 1022 990 l 1019 982 l 1036 951 l 1031 938 l 1038 924 l 1035 918 l 1053 888 l 793 304 l 1024 304 l 1297 919 l 1138 919 l 1121 950 l 1115 950 l 1107 964 z "},"Ú":{"ha":1514,"x_min":75,"x_max":1904,"o":"m 1271 1053 l 1438 1186 l 1226 1186 l 1090 1053 l 1271 1053 m 1529 1236 l 1275 1036 l 1004 1036 l 1210 1236 l 1529 1236 m 1596 1203 l 1568 1246 l 1582 1258 l 1204 1258 l 958 1014 l 981 1014 l 1000 975 l 1003 969 l 1301 969 l 1596 1203 m 793 304 l 1024 304 l 1297 919 l 1036 919 l 1035 918 l 1053 888 l 793 304 m 638 243 l 629 243 l 921 899 l 531 899 l 163 72 l 185 31 l 1315 31 l 1418 104 l 1772 899 l 1379 899 l 1074 213 l 654 213 l 638 243 m 122 93 l 503 949 l 963 949 l 657 263 l 1046 263 l 1351 949 l 1814 949 l 1436 99 l 1438 96 l 1318 11 l 165 11 l 122 93 m 989 957 l 994 971 l 490 971 l 100 93 l 154 -11 l 160 -11 l 182 -56 l 1335 -56 l 1479 46 l 1865 913 l 1840 957 l 1846 971 l 1339 971 l 1033 285 l 733 285 l 1014 913 l 989 957 m 1636 1278 l 1622 1268 l 1640 1236 l 1618 1215 l 1625 1204 l 1621 1201 l 1636 1169 l 1408 990 l 1874 990 l 1871 982 l 1888 951 l 1882 938 l 1889 924 l 1886 918 l 1904 888 l 1508 1 l 1357 -106 l 185 -106 l 168 -75 l 163 -75 l 140 -31 l 135 -31 l 75 82 l 479 990 l 933 990 l 932 994 l 918 994 l 1206 1278 l 1636 1278 z "},"Û":{"ha":1514,"x_min":75,"x_max":1904,"o":"m 1263 1182 l 1267 1150 l 1267 1151 l 1278 1133 l 1292 1053 l 1508 1053 l 1485 1186 l 1090 1186 l 949 1053 l 1118 1053 l 1263 1182 m 854 1036 l 1067 1236 l 1504 1236 l 1539 1036 l 1264 1036 l 1243 1139 l 1126 1036 l 854 1036 m 1265 950 l 1260 950 l 1251 964 l 1246 964 l 1239 975 l 1179 919 l 1036 919 l 1035 918 l 1053 888 l 793 304 l 1024 304 l 1297 919 l 1282 919 l 1265 950 m 989 957 l 994 969 l 1156 969 l 1236 1042 l 1244 1014 l 1254 1014 l 1279 969 l 1339 969 l 1033 285 l 733 285 l 1014 913 l 989 957 m 638 243 l 629 243 l 921 899 l 531 899 l 163 72 l 185 31 l 1315 31 l 1418 104 l 1772 899 l 1379 899 l 1074 213 l 654 213 l 638 243 m 122 93 l 503 949 l 963 949 l 657 263 l 1046 263 l 1351 949 l 1814 949 l 1433 93 l 1318 11 l 165 11 l 122 93 m 1528 1239 l 1531 1239 l 1528 1258 l 1065 1258 l 804 1014 l 822 1014 l 846 971 l 490 971 l 100 93 l 154 -11 l 160 -11 l 182 -56 l 1335 -56 l 1479 46 l 1865 913 l 1840 957 l 1846 971 l 1586 971 l 1553 1197 l 1528 1239 m 1549 1278 l 1550 1261 l 1551 1263 l 1565 1239 l 1568 1222 l 1576 1208 l 1579 1192 l 1590 1174 l 1617 990 l 1874 990 l 1871 982 l 1888 951 l 1882 938 l 1889 924 l 1886 918 l 1904 888 l 1508 1 l 1357 -106 l 185 -106 l 168 -75 l 163 -75 l 140 -31 l 135 -31 l 75 82 l 479 990 l 775 990 l 774 994 l 758 994 l 1061 1278 l 1549 1278 z "},"Ü":{"ha":1514,"x_min":75,"x_max":1904,"o":"m 1324 1053 l 1529 1053 l 1589 1186 l 1383 1186 l 1324 1053 m 908 1053 l 1114 1053 l 1174 1186 l 968 1186 l 908 1053 m 1215 1236 l 1126 1036 l 851 1036 l 940 1236 l 1215 1236 m 1631 1236 l 1542 1036 l 1267 1036 l 1356 1236 l 1631 1236 m 1260 950 l 1254 950 l 1246 964 l 1232 964 l 1221 985 l 1192 919 l 1036 919 l 1035 918 l 1053 888 l 793 304 l 1024 304 l 1297 919 l 1276 919 l 1260 950 m 638 243 l 629 243 l 921 899 l 531 899 l 163 72 l 185 31 l 1315 31 l 1418 104 l 1772 899 l 1379 899 l 1074 213 l 654 213 l 638 243 m 122 93 l 503 949 l 963 949 l 657 263 l 1046 263 l 1351 949 l 1814 949 l 1436 99 l 1438 96 l 1318 11 l 165 11 l 122 93 m 1242 1244 l 1247 1258 l 928 1258 l 819 1014 l 833 1014 l 857 971 l 490 971 l 100 93 l 154 -11 l 160 -11 l 182 -56 l 1335 -56 l 1479 46 l 1865 913 l 1840 957 l 1846 971 l 1576 971 l 1679 1200 l 1656 1244 l 1661 1258 l 1343 1258 l 1235 1014 l 1249 1014 l 1274 969 l 1339 969 l 1033 285 l 733 285 l 1014 913 l 989 957 l 994 969 l 1164 969 l 1267 1200 l 1242 1244 m 1276 1278 l 1272 1269 l 1289 1239 l 1283 1225 l 1290 1211 l 1288 1206 l 1294 1193 l 1333 1278 l 1689 1278 l 1685 1269 l 1701 1239 l 1696 1225 l 1703 1211 l 1700 1206 l 1718 1175 l 1635 990 l 1874 990 l 1871 982 l 1888 951 l 1882 938 l 1889 924 l 1886 918 l 1904 888 l 1508 1 l 1357 -106 l 185 -106 l 168 -75 l 163 -75 l 140 -31 l 135 -31 l 75 82 l 479 990 l 804 990 l 803 994 l 794 994 l 921 1278 l 1276 1278 z "},"Ý":{"ha":1514,"x_min":26,"x_max":1904,"o":"m 1090 1053 l 1271 1053 l 1438 1186 l 1226 1186 l 1090 1053 m 1529 1236 l 1275 1036 l 1004 1036 l 1210 1236 l 1529 1236 m 944 646 l 1175 646 l 1297 919 l 1036 919 l 1035 918 l 1053 888 l 944 646 m 1003 969 l 1301 969 l 1596 1203 l 1568 1246 l 1582 1258 l 1204 1258 l 958 1014 l 981 1014 l 1000 975 l 1003 969 m 1131 410 l 1149 379 l 1074 213 l 226 213 l 146 31 l 1315 31 l 1418 104 l 1772 899 l 1379 899 l 1226 554 l 807 554 l 789 585 l 781 585 l 921 899 l 531 899 l 335 460 l 357 418 l 1135 418 l 1131 410 m 199 263 l 1046 263 l 1107 399 l 338 399 l 294 481 l 503 949 l 963 949 l 810 604 l 1199 604 l 1351 949 l 1814 949 l 1433 93 l 1318 11 l 88 11 l 199 263 m 989 957 l 994 971 l 490 971 l 272 481 l 328 376 l 333 376 l 356 335 l 1056 335 l 1033 285 l 186 285 l 54 -11 l 68 -11 l 93 -56 l 1335 -56 l 1479 46 l 1865 913 l 1840 957 l 1846 971 l 1339 971 l 1186 626 l 886 626 l 1014 913 l 989 957 m 1636 1278 l 1622 1268 l 1640 1236 l 1618 1215 l 1625 1204 l 1621 1201 l 1636 1169 l 1408 990 l 1874 990 l 1871 982 l 1888 951 l 1882 938 l 1889 924 l 1886 918 l 1904 888 l 1508 1 l 1357 -106 l 96 -106 l 79 -75 l 74 -75 l 65 -61 l 51 -61 l 35 -31 l 26 -31 l 176 304 l 349 304 l 342 315 l 336 315 l 313 357 l 307 357 l 247 469 l 479 990 l 933 990 l 932 994 l 918 994 l 1206 1278 l 1636 1278 z "},"Þ":{"ha":1494,"x_min":25,"x_max":1761,"o":"m 831 389 l 968 389 l 994 408 l 839 408 l 831 389 m 771 369 l 811 458 l 1094 458 l 969 369 l 771 369 m 1114 457 l 1144 525 l 774 525 l 694 347 l 963 347 l 1114 457 m 1169 536 l 1186 506 l 1144 413 l 985 297 l 692 297 l 675 328 l 667 328 l 764 544 l 1174 544 l 1169 536 m 867 757 l 858 757 l 918 893 l 528 893 l 144 31 l 535 31 l 611 201 l 1344 201 l 1488 303 l 1651 672 l 1625 726 l 883 726 l 867 757 m 1676 683 l 1503 293 l 1347 182 l 621 182 l 546 11 l 86 11 l 500 943 l 960 943 l 886 776 l 1632 776 l 1676 683 m 986 951 l 992 965 l 488 965 l 53 -11 l 67 -11 l 92 -56 l 582 -56 l 660 118 l 1368 118 l 1549 247 l 1722 638 l 1699 682 l 1699 685 l 1643 799 l 963 799 l 1011 907 l 986 951 m 64 -61 l 50 -61 l 33 -31 l 25 -31 l 478 985 l 1021 985 l 1017 976 l 1033 946 l 1028 932 l 1035 918 l 1033 913 l 1050 882 l 1021 818 l 1663 818 l 1724 696 l 1722 693 l 1747 649 l 1744 643 l 1761 613 l 1579 203 l 1390 68 l 688 68 l 610 -106 l 94 -106 l 78 -75 l 72 -75 l 64 -61 z "},"ß":{"ha":1513,"x_min":-31,"x_max":1856,"o":"m 635 -75 l 640 -75 l 657 -106 l 1351 -106 l 1513 11 l 1640 300 l 1622 328 l 1625 333 l 1600 378 l 1603 383 l 1592 400 l 1728 497 l 1856 782 l 1839 814 l 1840 818 l 1817 865 l 1818 868 l 1757 988 l 596 988 l 425 868 l -31 -156 l -22 -156 l -6 -186 l 10 -186 l 18 -197 l 21 -197 l 40 -228 l 556 -228 l 629 -64 l 635 -75 m 1086 585 l 1150 631 l 888 631 l 528 -178 l 38 -178 l 11 -136 l -3 -136 l 440 857 l 597 968 l 1736 968 l 1794 857 l 1793 854 l 1817 807 l 1699 542 l 1543 431 l 1578 372 l 1576 367 l 1600 322 l 1482 56 l 1329 -56 l 654 -56 l 629 -11 l 615 -11 l 747 285 l 1038 285 l 1015 331 l 826 331 l 801 375 l 788 375 l 881 585 l 1086 585 m 1079 563 l 893 563 l 819 397 l 1006 397 l 1058 290 l 1046 263 l 760 263 l 649 11 l 1311 11 l 1440 107 l 1439 110 l 1556 372 l 1494 474 l 1657 593 l 1656 596 l 1771 856 l 1725 946 l 589 946 l 461 856 l 29 -114 l 489 -114 l 851 697 l 1240 697 l 1228 672 l 1079 563 m 1268 717 l 840 717 l 479 -94 l 89 -94 l 492 811 l 613 899 l 1719 899 l 1747 844 l 1638 600 l 1464 474 l 1532 361 l 1422 114 l 1307 31 l 707 31 l 788 213 l 1074 213 l 1097 265 l 1082 299 l 1083 301 l 1026 417 l 879 417 l 921 513 l 1101 513 l 1258 628 l 1281 678 l 1264 708 l 1268 717 m 807 311 l 813 311 l 818 304 l 793 304 l 800 322 l 807 311 z "},"à":{"ha":1514,"x_min":25,"x_max":1864,"o":"m 906 558 l 1136 558 l 1146 581 l 915 581 l 906 558 m 1188 631 l 1147 539 l 847 539 l 888 631 l 1188 631 m 1138 1053 l 1357 1053 l 1343 1186 l 1086 1186 l 1138 1053 m 1360 1236 l 1385 1036 l 1119 1036 l 1040 1236 l 1360 1236 m 771 517 l 1160 517 l 1240 697 l 851 697 l 771 517 m 1264 708 l 1281 678 l 1188 467 l 768 467 l 750 497 l 742 497 l 840 717 l 1268 717 l 1264 708 m 1114 371 l 1110 363 l 1128 335 l 993 31 l 1386 31 l 1754 858 l 1732 899 l 604 899 l 497 824 l 144 31 l 535 31 l 686 371 l 1114 371 m 935 11 l 1086 351 l 697 351 l 546 11 l 86 11 l 467 868 l 582 949 l 1735 949 l 1779 869 l 1397 11 l 935 11 m 1133 971 l 592 971 l 444 868 l 53 -11 l 67 -11 l 92 -56 l 582 -56 l 735 288 l 1035 288 l 901 -11 l 915 -11 l 940 -56 l 1433 -56 l 1825 822 l 1799 864 l 1801 869 l 1744 971 l 1436 971 l 1411 1194 l 1385 1242 l 1388 1242 l 1385 1258 l 1007 1258 l 1101 1014 l 1110 1014 l 1133 971 m 589 990 l 1089 990 l 1088 994 l 1082 994 l 975 1278 l 1408 1278 l 1411 1258 l 1422 1239 l 1425 1224 l 1431 1214 l 1432 1200 l 1432 1201 l 1446 1178 l 1463 990 l 1764 990 l 1825 881 l 1822 875 l 1849 833 l 1846 828 l 1864 797 l 1461 -106 l 943 -106 l 926 -75 l 921 -75 l 913 -61 l 899 -61 l 882 -31 l 874 -31 l 993 238 l 763 238 l 610 -106 l 94 -106 l 78 -75 l 72 -75 l 64 -61 l 50 -61 l 33 -31 l 25 -31 l 431 879 l 589 990 z "},"á":{"ha":1514,"x_min":25,"x_max":1864,"o":"m 906 558 l 1136 558 l 1146 581 l 915 581 l 906 558 m 1090 1053 l 1271 1053 l 1438 1186 l 1226 1186 l 1090 1053 m 1188 631 l 1147 539 l 847 539 l 888 631 l 1188 631 m 1529 1236 l 1275 1036 l 1004 1036 l 1210 1236 l 1529 1236 m 771 517 l 1160 517 l 1240 697 l 851 697 l 771 517 m 1264 708 l 1281 678 l 1188 467 l 768 467 l 750 497 l 742 497 l 840 717 l 1268 717 l 1264 708 m 1114 371 l 1110 363 l 1128 335 l 993 31 l 1386 31 l 1754 858 l 1732 899 l 604 899 l 497 824 l 144 31 l 535 31 l 686 371 l 1114 371 m 935 11 l 1086 351 l 697 351 l 546 11 l 86 11 l 467 868 l 582 949 l 1735 949 l 1779 869 l 1397 11 l 935 11 m 1744 971 l 1301 971 l 1596 1203 l 1568 1246 l 1582 1258 l 1204 1258 l 958 1014 l 981 1014 l 1001 971 l 592 971 l 444 868 l 53 -11 l 67 -11 l 92 -56 l 582 -56 l 735 288 l 1035 288 l 901 -11 l 915 -11 l 940 -56 l 1433 -56 l 1825 822 l 1799 864 l 1801 869 l 1744 971 m 1636 1278 l 1622 1268 l 1640 1236 l 1618 1215 l 1625 1204 l 1621 1201 l 1636 1169 l 1408 990 l 1764 990 l 1825 881 l 1822 875 l 1849 833 l 1846 828 l 1864 797 l 1461 -106 l 943 -106 l 926 -75 l 921 -75 l 913 -61 l 899 -61 l 882 -31 l 874 -31 l 993 238 l 763 238 l 610 -106 l 94 -106 l 78 -75 l 72 -75 l 64 -61 l 50 -61 l 33 -31 l 25 -31 l 431 879 l 589 990 l 933 990 l 932 994 l 918 994 l 1206 1278 l 1636 1278 z "},"â":{"ha":1514,"x_min":25,"x_max":1864,"o":"m 1244 1014 l 1254 1014 l 1278 971 l 1157 971 l 1235 1040 l 1244 1014 m 906 558 l 1136 558 l 1146 581 l 915 581 l 906 558 m 1188 631 l 1147 539 l 847 539 l 888 631 l 1188 631 m 1263 1182 l 1267 1150 l 1267 1151 l 1278 1133 l 1292 1053 l 1508 1053 l 1485 1186 l 1090 1186 l 949 1053 l 1118 1053 l 1263 1182 m 771 517 l 1160 517 l 1240 697 l 851 697 l 771 517 m 854 1036 l 1067 1236 l 1504 1236 l 1539 1036 l 1264 1036 l 1243 1139 l 1126 1036 l 854 1036 m 1264 708 l 1281 678 l 1188 467 l 768 467 l 750 497 l 742 497 l 840 717 l 1268 717 l 1264 708 m 1114 371 l 1110 363 l 1128 335 l 993 31 l 1386 31 l 1754 858 l 1732 899 l 604 899 l 497 824 l 144 31 l 535 31 l 686 371 l 1114 371 m 935 11 l 1086 351 l 697 351 l 546 11 l 86 11 l 467 868 l 582 949 l 1735 949 l 1779 869 l 1397 11 l 935 11 m 1528 1239 l 1531 1239 l 1528 1258 l 1065 1258 l 804 1014 l 822 1014 l 846 971 l 592 971 l 444 868 l 53 -11 l 67 -11 l 92 -56 l 582 -56 l 735 288 l 1035 288 l 901 -11 l 915 -11 l 940 -56 l 1433 -56 l 1825 822 l 1799 864 l 1801 869 l 1744 971 l 1586 971 l 1553 1197 l 1528 1239 m 1549 1278 l 1550 1261 l 1551 1263 l 1565 1239 l 1568 1222 l 1576 1208 l 1579 1192 l 1590 1174 l 1617 990 l 1764 990 l 1825 881 l 1822 875 l 1849 833 l 1846 828 l 1864 797 l 1461 -106 l 943 -106 l 926 -75 l 921 -75 l 913 -61 l 899 -61 l 882 -31 l 874 -31 l 993 238 l 763 238 l 610 -106 l 94 -106 l 78 -75 l 72 -75 l 64 -61 l 50 -61 l 33 -31 l 25 -31 l 431 879 l 589 990 l 775 990 l 774 994 l 758 994 l 1061 1278 l 1549 1278 z "}}}
